<svg width="42" height="42" viewBox="0 0 42 42" fill="none" xmlns="http://www.w3.org/2000/svg">
<path d="M12.7956 30.9729L21 22.7684L29.2044 30.9729L30.9729 29.2044L22.7684 21L30.9729 12.7956L29.2044 11.0271L21 19.2316L12.7956 11.0271L11.0271 12.7956L19.2316 21L11.0271 29.2044L12.7956 30.9729ZM21.0037 42C18.1219 42 15.4067 41.4488 12.8581 40.3465C10.3095 39.2442 8.08071 37.739 6.17181 35.831C4.26286 33.9229 2.75699 31.6951 1.6542 29.1476C0.551399 26.6001 0 23.8855 0 21.0037C0 18.0992 0.55116 15.3691 1.65348 12.8135C2.7558 10.2578 4.26098 8.03466 6.16904 6.14418C8.07714 4.25366 10.3049 2.757 12.8524 1.6542C15.3999 0.551401 18.1145 0 20.9963 0C23.9008 0 26.6309 0.551162 29.1865 1.65348C31.7422 2.7558 33.9653 4.25177 35.8558 6.14141C37.7463 8.03108 39.243 10.2532 40.3458 12.8078C41.4486 15.3623 42 18.0918 42 20.9963C42 23.8781 41.4488 26.5933 40.3465 29.1419C39.2442 31.6905 37.7482 33.9193 35.8586 35.8282C33.9689 37.7371 31.7468 39.243 29.1922 40.3458C26.6377 41.4486 23.9082 42 21.0037 42ZM21 39.4919C26.1466 39.4919 30.5152 37.6909 34.1059 34.0889C37.6966 30.4869 39.4919 26.1239 39.4919 21C39.4919 15.8534 37.6966 11.4848 34.1059 7.89409C30.5152 4.30341 26.1466 2.50807 21 2.50807C15.8761 2.50807 11.5131 4.30341 7.91111 7.89409C4.30908 11.4848 2.50807 15.8534 2.50807 21C2.50807 26.1239 4.30908 30.4869 7.91111 34.0889C11.5131 37.6909 15.8761 39.4919 21 39.4919Z" fill="#E50F0F"/>
</svg>
