<svg width="26" height="26" viewBox="0 0 26 26" fill="none" xmlns="http://www.w3.org/2000/svg">
<path d="M10.8668 0.64L5.90683 8.74667C5.36016 9.62667 6.00016 10.7733 7.04016 10.7733H16.9468C17.9868 10.7733 18.6268 9.62667 18.0802 8.74667L13.1335 0.64C12.6135 -0.213333 11.3868 -0.213333 10.8668 0.64Z" fill="#CACACA"/>
<path d="M19.3335 25.4402C22.6472 25.4402 25.3335 22.7539 25.3335 19.4402C25.3335 16.1264 22.6472 13.4402 19.3335 13.4402C16.0198 13.4402 13.3335 16.1264 13.3335 19.4402C13.3335 22.7539 16.0198 25.4402 19.3335 25.4402Z" fill="#CACACA"/>
<path d="M1.33333 24.7734H9.33333C10.0667 24.7734 10.6667 24.1734 10.6667 23.4401V15.4401C10.6667 14.7067 10.0667 14.1067 9.33333 14.1067H1.33333C0.6 14.1067 0 14.7067 0 15.4401V23.4401C0 24.1734 0.6 24.7734 1.33333 24.7734Z" fill="#CACACA"/>
</svg>
