<svg width="61" height="61" viewBox="0 0 61 61" fill="none" xmlns="http://www.w3.org/2000/svg">
<path d="M0.501563 29.203C0.501563 24.9877 0.543951 20.7772 0.478014 16.562C0.459175 15.2102 0.930153 14.4331 2.14999 13.8303C10.8254 9.54438 19.4725 5.2161 28.1103 0.854845C29.2029 0.303801 30.1072 0.350899 31.1858 0.892523C39.6775 5.18313 48.1692 9.46432 56.7175 13.6419C58.3188 14.4237 58.7615 15.4128 58.7427 17.0989C58.6626 24.8229 58.7191 32.5469 58.6956 40.271C58.6956 41.472 58.9263 42.5222 59.5151 43.6008C62.5293 49.1206 60.8197 55.7237 55.6107 58.997C50.3546 62.2986 43.5631 60.8668 39.9554 55.5448C39.0558 54.2166 38.2834 53.8304 37.0353 54.8195C31.9111 58.8699 27.1024 57.9373 21.7709 54.7488C15.7 51.1129 9.17226 48.2211 2.76226 45.1644C0.977251 44.3167 0.416787 43.2381 0.463885 41.3731C0.57221 37.3179 0.496853 33.2581 0.496853 29.203H0.501563ZM2.51264 29.9989C2.51264 33.6679 2.52677 37.3321 2.50322 41.001C2.4938 42.0795 2.65393 42.8896 3.7937 43.4501C11.4848 47.2367 19.1523 51.0846 26.8104 54.9419C28.0726 55.5777 28.6236 55.4365 28.6189 53.8728C28.5813 46.3843 28.5907 38.8957 28.6189 31.4025C28.6236 30.3192 28.2374 29.6787 27.2531 29.2313C25.6188 28.4918 24.0128 27.6912 22.435 26.8387C21.267 26.2076 20.7489 26.3677 20.7772 27.7995C20.8148 29.7493 20.7866 31.6992 20.7395 33.649C20.7065 35.0243 20.0613 35.4953 18.7614 34.8359C17.0894 33.9928 15.4787 32.9708 13.7266 32.3633C11.0185 31.4307 10.1707 29.7964 10.2791 26.9329C10.5145 20.4852 10.3309 20.5229 4.373 17.7912C2.82348 17.08 2.48438 17.4709 2.50322 18.9969C2.55032 22.6611 2.51735 26.33 2.51264 29.9989ZM56.6798 40.0025C56.6798 32.4998 56.7316 25.4258 56.6468 18.3564C56.6233 16.4442 55.3658 17.5887 54.7111 17.9137C47.2461 21.6061 39.8141 25.3692 32.3397 29.0382C31.035 29.6787 30.5688 30.4888 30.5876 31.9252C30.6583 37.69 30.5782 43.4548 30.63 49.2195C30.6488 51.2212 29.721 54.1884 31.0398 54.9843C32.6222 55.9404 34.638 53.5102 36.5926 52.8555C37.9255 52.4081 38.2127 51.6168 38.0997 50.2086C37.5958 43.8221 41.9523 38.5849 48.2116 37.803C51.1222 37.4404 53.7315 38.3258 56.6798 40.0072V40.0025ZM39.9742 49.0264C39.8612 54.2826 43.9869 58.6156 49.2478 58.7663C54.5792 58.9217 59.0017 54.6593 59.0488 49.3185C59.0959 44.0623 54.9136 39.7764 49.6575 39.7011C44.3873 39.6257 40.0825 43.7703 39.9742 49.0264ZM4.09983 15.4599C5.83774 16.3406 7.54739 17.0894 9.13458 18.0408C10.6276 18.931 11.8804 18.9074 13.4629 18.0879C19.6091 14.89 25.8637 11.8899 32.0335 8.7343C33.5736 7.94306 36.31 7.58512 36.277 6.11567C36.2488 4.74041 33.4041 4.47666 31.9535 3.47348C30.3521 2.36668 28.9298 2.5692 27.2248 3.45464C20.5935 6.9022 13.8773 10.1802 7.20358 13.543C6.18626 14.0564 5.04179 14.3813 4.09983 15.4646V15.4599ZM55.4929 15.2762C53.4395 14.2447 51.7251 13.5053 50.1426 12.5586C48.5695 11.6167 47.2414 11.6779 45.6024 12.5398C40.0166 15.4693 34.346 18.2245 28.7037 21.0504C26.9611 21.9217 25.2279 22.8024 23.4759 23.6549C22.3785 24.1918 22.4633 24.6769 23.4853 25.1856C24.8794 25.8779 26.3253 26.4902 27.6534 27.2908C28.991 28.0962 30.1025 28.0774 31.5249 27.3238C36.277 24.8135 41.1234 22.4869 45.9274 20.0849C48.9793 18.5589 52.0265 17.0188 55.4929 15.2809V15.2762ZM13.5571 20.1791C15.3327 21.088 16.6702 21.6768 17.9136 22.4303C19.1852 23.2027 20.292 23.1368 21.6155 22.4633C29.0428 18.6766 36.5125 14.9795 43.954 11.2352C44.392 11.0138 45.0608 10.962 45.0513 10.0813C43.5819 9.33715 42.0465 8.58359 40.5441 7.78764C39.7811 7.3826 39.1076 7.41557 38.3352 7.80177C30.2674 11.8522 22.1854 15.879 13.5618 20.1885L13.5571 20.1791ZM18.7896 28.4588C18.281 27.4086 19.6798 25.5718 17.8194 24.545C16.463 23.7915 15.0595 23.1321 13.6607 22.4633C13.1897 22.2372 12.4644 21.8981 12.4314 22.7883C12.3467 24.8747 12.1865 27.0082 12.5256 29.0429C12.7329 30.291 14.4237 30.4652 15.5022 31.0115C18.7708 32.6647 18.7849 32.6364 18.7896 28.4636V28.4588Z" fill="#729DC1"/>
</svg>
