<svg width="118" height="181" viewBox="0 0 118 181" fill="none" xmlns="http://www.w3.org/2000/svg">
<mask id="mask0_425_49" style="mask-type:luminance" maskUnits="userSpaceOnUse" x="16" y="0" width="85" height="121">
<path d="M16.3623 41.9436C16.3623 73.63 44.6056 108.502 54.7498 120.003C56.2298 99.4581 57.1343 80.0536 55.0993 76.4564C50.8751 69.0256 37.4934 61.2556 40.1656 42.6425C42.6118 25.5608 52.6943 19.0344 58.3265 19.0344C63.969 19.0344 74.1543 25.7972 76.4976 42.6425C79.0773 61.2658 65.7881 69.0256 61.564 76.4564C59.5084 80.0536 60.4129 99.4581 61.9134 120.014C72.0679 108.554 100.291 73.815 100.291 41.9436C100.291 18.7775 81.5029 0 58.3368 0C35.1706 0 16.3623 18.7672 16.3623 41.9436Z" fill="white"/>
</mask>
<g mask="url(#mask0_425_49)">
<path d="M70.372 160.2L-41.1111 77.2375L46.2706 -40.1964L157.754 42.7658L70.372 160.2Z" fill="url(#paint0_linear_425_49)"/>
</g>
<mask id="mask1_425_49" style="mask-type:luminance" maskUnits="userSpaceOnUse" x="60" y="23" width="14" height="50">
<path d="M61.9237 23.9267C61.8517 24.0294 61.862 24.163 61.9442 24.2453C65.2948 27.4417 68.6556 33.6186 69.7245 43.588C71.3792 58.9533 64.0512 66.4047 60.2073 72.7153H60.3512C64.8528 66.3431 75.2231 59.1589 73.0339 43.3825C71.5745 32.8889 66.7645 26.7119 62.232 23.865C62.1909 23.8444 62.1498 23.8239 62.1087 23.8239C62.0367 23.8342 61.9648 23.865 61.9237 23.9267Z" fill="white"/>
</mask>
<g mask="url(#mask1_425_49)">
<path d="M69.8786 79.9097L36.7944 55.2944L65.5619 16.6397L98.6461 41.255L69.8786 79.9097Z" fill="url(#paint1_linear_425_49)"/>
</g>
<mask id="mask2_425_49" style="mask-type:luminance" maskUnits="userSpaceOnUse" x="0" y="134" width="24" height="26">
<path d="M7.45139 135.173C5.85833 135.759 4.50167 136.612 3.39167 137.733C2.28167 138.843 1.43889 140.199 0.863333 141.803C0.287778 143.396 0 145.163 0 147.085C0 149.038 0.298056 150.816 0.883889 152.399C1.46972 153.982 2.32278 155.338 3.4225 156.448C4.52222 157.558 5.85833 158.411 7.42055 158.997C8.98277 159.583 10.7197 159.871 12.6211 159.871C14.2553 159.871 15.7558 159.686 17.1433 159.316C18.5308 158.946 19.9697 158.36 21.46 157.548C21.9739 157.271 22.4056 156.973 22.7344 156.674C23.0633 156.366 23.2894 156.027 23.4231 155.657C23.5464 155.277 23.6081 154.773 23.6081 154.146V149.408C23.6081 148.555 23.4539 147.908 23.1558 147.486C22.8578 147.054 22.4672 146.787 21.9842 146.664C21.5011 146.541 20.9153 146.479 20.2164 146.479H14.5328C13.8442 146.479 13.2994 146.664 12.9089 147.024C12.4875 147.342 12.2922 147.805 12.2922 148.349C12.2922 149.028 12.5286 149.501 13.0117 149.778C13.4844 150.056 14.1936 150.199 15.1289 150.199H19.0036V154.218C17.9553 154.783 16.9275 155.215 15.91 155.513C14.8925 155.821 13.8031 155.965 12.6417 155.965C10.2572 155.965 8.39694 155.184 7.07111 153.622C5.735 152.06 5.07722 149.829 5.07722 146.921C5.07722 145.585 5.25194 144.362 5.59111 143.262C5.93028 142.162 6.42361 141.227 7.07111 140.466C7.71861 139.706 8.49972 139.13 9.40416 138.729C10.3189 138.329 11.3467 138.133 12.5081 138.133C13.6283 138.133 14.5533 138.298 15.2831 138.637C16.0128 138.976 16.5883 139.387 17.0097 139.881C17.4414 140.374 17.9553 141.104 18.5822 142.07C18.8083 142.378 19.0858 142.614 19.4147 142.779C19.7436 142.943 20.0931 143.036 20.4528 143.036C21.1003 143.036 21.6656 142.81 22.1281 142.368C22.5906 141.926 22.8269 141.391 22.8269 140.754C22.8269 140.168 22.6214 139.5 22.2206 138.75C21.8197 138 21.2133 137.28 20.4117 136.612C19.61 135.934 18.5719 135.379 17.2872 134.937C16.0025 134.495 14.5328 134.269 12.8678 134.269C10.8533 134.289 9.04444 134.577 7.45139 135.173Z" fill="white"/>
</mask>
<g mask="url(#mask2_425_49)">
<path d="M15.1802 171.156L-12.2512 150.744L8.40712 122.984L35.8385 143.396L15.1802 171.156Z" fill="url(#paint2_linear_425_49)"/>
</g>
<mask id="mask3_425_49" style="mask-type:luminance" maskUnits="userSpaceOnUse" x="28" y="134" width="22" height="26">
<path d="M44.8625 135.04C44.4103 135.543 44.1841 136.304 44.1841 137.321V149.583C44.1841 151.7 43.7833 153.273 42.9714 154.311C42.1594 155.349 40.7822 155.873 38.8191 155.873C37.4008 155.873 36.3011 155.616 35.5097 155.102C34.7183 154.588 34.1736 153.869 33.8653 152.944C33.5569 152.019 33.4028 150.857 33.4028 149.48V137.321C33.4028 136.304 33.1766 135.554 32.7244 135.04C32.2722 134.536 31.6555 134.279 30.8744 134.279C30.1344 134.279 29.528 134.536 29.0758 135.04C28.6236 135.543 28.3872 136.304 28.3872 137.321V149.213C28.3872 151.083 28.5928 152.687 28.9936 154.033C29.3944 155.379 30.0316 156.479 30.895 157.343C31.7583 158.206 32.8786 158.843 34.2558 159.244C35.6228 159.655 37.2672 159.861 39.1686 159.861C40.7616 159.861 42.1594 159.665 43.3516 159.285C44.5439 158.905 45.5922 158.298 46.4864 157.466C47.5347 156.489 48.2439 155.349 48.6241 154.064C49.0044 152.769 49.1894 151.155 49.1894 149.223V137.321C49.1894 136.294 48.953 135.533 48.4905 135.04C48.028 134.536 47.4114 134.289 46.6611 134.289C45.9108 134.289 45.3147 134.536 44.8625 135.04Z" fill="white"/>
</mask>
<g mask="url(#mask3_425_49)">
<path d="M41.7895 169.82L16.1567 150.744L35.8078 124.32L61.4406 143.396L41.7895 169.82Z" fill="url(#paint3_linear_425_49)"/>
</g>
<mask id="mask4_425_49" style="mask-type:luminance" maskUnits="userSpaceOnUse" x="52" y="134" width="22" height="26">
<path d="M55.7365 134.711C54.9759 134.711 54.4003 134.886 54.0098 135.245C53.6192 135.595 53.424 136.068 53.424 136.633C53.424 137.188 53.6192 137.63 54.0098 137.969C54.4003 138.308 54.9759 138.473 55.7365 138.473H66.6515L53.9481 153.673C53.7426 153.91 53.5062 154.187 53.239 154.506C52.9717 154.824 52.7559 155.092 52.6017 155.297C52.4476 155.503 52.3242 155.729 52.242 155.965C52.1495 156.202 52.1084 156.459 52.1084 156.746C52.1084 157.569 52.3859 158.226 52.9306 158.709C53.4856 159.203 54.2976 159.439 55.3973 159.439H71.4512C72.2323 159.439 72.8078 159.264 73.1881 158.915C73.5684 158.566 73.7637 158.093 73.7637 157.497C73.7637 156.921 73.5684 156.479 73.1881 156.161C72.8078 155.842 72.222 155.678 71.4512 155.678H58.3573L70.2281 141.546C71.1531 140.466 71.7595 139.685 72.0679 139.202C72.3762 138.719 72.5201 138.072 72.5201 137.26C72.5201 135.564 71.6054 134.711 69.7862 134.711H55.7365Z" fill="white"/>
</mask>
<g mask="url(#mask4_425_49)">
<path d="M66.0553 169.809L40.2683 150.621L59.8269 124.33L85.6139 143.519L66.0553 169.809Z" fill="url(#paint4_linear_425_49)"/>
</g>
<mask id="mask5_425_49" style="mask-type:luminance" maskUnits="userSpaceOnUse" x="74" y="134" width="22" height="26">
<path d="M77.0628 134.711C76.2405 134.711 75.6136 134.896 75.1819 135.266C74.7503 135.636 74.5344 136.139 74.5344 136.787C74.5344 137.404 74.74 137.907 75.1614 138.277C75.5725 138.658 76.2097 138.843 77.0628 138.843H82.5305V156.808C82.5305 157.836 82.7669 158.596 83.2294 159.1C83.6919 159.604 84.2983 159.861 85.0383 159.861C85.768 159.861 86.3642 159.614 86.8267 159.11C87.2892 158.607 87.5153 157.846 87.5153 156.808V138.843H92.983C93.8361 138.843 94.4836 138.658 94.905 138.277C95.3367 137.897 95.5422 137.404 95.5422 136.787C95.5422 136.17 95.3264 135.667 94.905 135.286C94.4836 134.906 93.8361 134.711 92.9728 134.711H77.0628Z" fill="white"/>
</mask>
<g mask="url(#mask5_425_49)">
<path d="M88.0599 169.923L62.4888 150.898L82.0165 124.639L107.588 143.673L88.0599 169.923Z" fill="url(#paint5_linear_425_49)"/>
</g>
<mask id="mask6_425_49" style="mask-type:luminance" maskUnits="userSpaceOnUse" x="96" y="134" width="21" height="26">
<path d="M113.415 134.505C113.138 134.649 112.881 134.865 112.644 135.143C112.418 135.42 112.202 135.718 112.007 136.026C111.812 136.345 111.575 136.725 111.298 137.188L106.622 144.691L101.997 137.188C101.287 136.026 100.753 135.256 100.404 134.865C100.044 134.474 99.5299 134.279 98.8413 134.279C98.1938 134.279 97.6388 134.485 97.1969 134.906C96.7549 135.317 96.5288 135.821 96.5288 136.386C96.5288 136.736 96.6419 137.147 96.8577 137.619C97.0735 138.092 97.4538 138.75 97.978 139.593L104.021 148.956V156.798C104.021 157.836 104.247 158.596 104.71 159.1C105.172 159.604 105.769 159.85 106.519 159.85C107.249 159.85 107.855 159.593 108.328 159.09C108.8 158.586 109.037 157.815 109.037 156.798V148.956L115.224 139.459C115.738 138.688 116.108 138.072 116.324 137.64C116.54 137.198 116.642 136.766 116.642 136.324C116.642 135.78 116.437 135.307 116.005 134.896C115.584 134.485 115.06 134.279 114.433 134.279C114.032 134.289 113.693 134.361 113.415 134.505Z" fill="white"/>
</mask>
<g mask="url(#mask6_425_49)">
<path d="M109.479 169.491L84.2983 150.744L103.703 124.659L128.894 143.396L109.479 169.491Z" fill="url(#paint6_linear_425_49)"/>
</g>
<path d="M37.9558 167.528C38.8397 167.528 39.5078 167.744 39.9703 168.175C40.4225 168.607 40.6589 169.234 40.6589 170.066C40.6589 170.508 40.5561 170.899 40.3506 171.248C40.145 171.598 39.8367 171.865 39.4358 172.071C39.035 172.276 38.5314 172.379 37.9456 172.389L37.9558 171.855C38.2745 171.855 38.6136 171.896 38.9836 171.988C39.3536 172.081 39.7031 172.225 40.032 172.43C40.3608 172.646 40.6383 172.934 40.8439 173.294C41.0597 173.653 41.1625 174.106 41.1625 174.64C41.1625 175.226 41.07 175.709 40.8747 176.099C40.6795 176.49 40.4225 176.798 40.1039 177.024C39.7853 177.251 39.4358 177.405 39.0556 177.487C38.6753 177.569 38.3053 177.621 37.9456 177.621H34.2558C34.04 177.621 33.8653 177.549 33.7317 177.415C33.5878 177.281 33.5261 177.096 33.5261 176.891V168.268C33.5261 168.052 33.5981 167.877 33.7317 167.744C33.8653 167.61 34.0503 167.538 34.2558 167.538H37.9558V167.528ZM37.74 168.946H34.9136L35.0883 168.699V171.803L34.9342 171.639H37.7914C38.1408 171.629 38.4389 171.516 38.7061 171.289C38.9733 171.063 39.1069 170.734 39.1069 170.282C39.1069 169.83 38.9836 169.511 38.737 169.275C38.48 169.059 38.1511 168.946 37.74 168.946ZM37.8531 173.078H34.9856L35.0883 172.965V176.367L34.9753 176.243H37.9353C38.4492 176.243 38.85 176.11 39.1583 175.842C39.4667 175.575 39.6208 175.174 39.6208 174.64C39.6208 174.188 39.5283 173.849 39.3433 173.633C39.1583 173.417 38.9322 173.263 38.665 173.191C38.3875 173.109 38.1203 173.078 37.8531 173.078Z" fill="#666667"/>
<path d="M46.3219 177.764C45.5202 177.764 44.8316 177.6 44.2457 177.261C43.6599 176.932 43.2077 176.469 42.8788 175.894C42.5602 175.308 42.3958 174.65 42.3958 173.9C42.3958 173.057 42.5705 172.327 42.9096 171.731C43.2488 171.125 43.6907 170.673 44.2457 170.344C44.7905 170.025 45.3763 169.861 45.993 169.861C46.4658 169.861 46.9077 169.953 47.3394 170.138C47.7607 170.323 48.141 170.58 48.4699 170.919C48.7988 171.248 49.066 171.639 49.251 172.091C49.4463 172.533 49.5388 173.026 49.5491 173.551C49.5388 173.746 49.4669 173.9 49.323 174.023C49.1791 174.147 49.0146 174.208 48.8194 174.208H43.2077L42.8582 172.985H48.2849L48.0074 173.242V172.882C47.9766 172.543 47.8635 172.256 47.658 171.999C47.4524 171.752 47.2058 171.557 46.918 171.403C46.6199 171.259 46.3116 171.187 45.9827 171.187C45.6949 171.187 45.4174 171.228 45.1502 171.32C44.883 171.413 44.6466 171.557 44.441 171.762C44.2355 171.968 44.071 172.225 43.9477 172.564C43.8244 172.893 43.7627 173.304 43.7627 173.797C43.7627 174.321 43.8758 174.784 44.0916 175.185C44.3177 175.575 44.6157 175.884 44.9857 176.099C45.366 176.315 45.7771 176.428 46.2294 176.428C46.5788 176.428 46.8769 176.398 47.103 176.315C47.3291 176.243 47.5244 176.151 47.6785 176.048C47.843 175.945 47.9766 175.843 48.0896 175.75C48.2335 175.658 48.3774 175.616 48.511 175.616C48.696 175.616 48.8399 175.678 48.953 175.801C49.066 175.925 49.1277 176.058 49.1277 176.223C49.1277 176.439 49.0249 176.624 48.8091 176.798C48.5521 177.045 48.1924 177.271 47.7402 177.456C47.2982 177.672 46.8152 177.764 46.3219 177.764Z" fill="#666667"/>
<path d="M56.0962 167.507C56.2093 167.507 56.3326 167.538 56.4559 167.6C56.5793 167.661 56.6718 167.744 56.7437 167.836L60.4026 173.417L59.7859 173.386L63.5271 167.836C63.6812 167.61 63.8765 167.507 64.1232 167.507C64.3184 167.507 64.4829 167.579 64.6371 167.713C64.7809 167.857 64.8632 168.031 64.8632 168.237V176.881C64.8632 177.096 64.7912 177.271 64.6576 177.405C64.5137 177.549 64.339 177.61 64.1129 177.61C63.8868 177.61 63.7121 177.538 63.5682 177.405C63.4346 177.271 63.3626 177.086 63.3626 176.881V169.563L63.8251 169.666L60.6493 174.496C60.5773 174.578 60.4951 174.661 60.3821 174.722C60.269 174.784 60.1662 174.815 60.0532 174.815C59.9504 174.815 59.8373 174.784 59.7243 174.722C59.6112 174.661 59.529 174.589 59.4571 174.496L56.3943 169.737L56.7437 169.162V176.881C56.7437 177.096 56.6821 177.271 56.5484 177.405C56.4148 177.549 56.2504 177.61 56.0346 177.61C55.829 177.61 55.6646 177.538 55.5412 177.405C55.4076 177.271 55.3459 177.086 55.3459 176.881V168.237C55.3459 168.042 55.4179 167.877 55.5721 167.723C55.7159 167.579 55.8907 167.507 56.0962 167.507Z" fill="#666667"/>
<path d="M72.664 169.974C72.8798 169.974 73.0546 170.046 73.1882 170.179C73.3218 170.313 73.3937 170.498 73.3937 170.704V176.901C73.3937 177.744 73.2293 178.432 72.9107 178.967C72.5921 179.491 72.1604 179.882 71.6157 180.128C71.071 180.375 70.4543 180.498 69.776 180.498C69.4265 180.498 69.0771 180.467 68.7379 180.406C68.3885 180.344 68.111 180.262 67.8848 180.159C67.6587 180.056 67.4943 179.923 67.3915 179.758C67.299 179.594 67.2785 179.429 67.3504 179.244C67.4223 179.018 67.5354 178.854 67.6998 178.782C67.8643 178.71 68.0287 178.689 68.2035 178.761C68.3679 178.833 68.5837 178.916 68.851 179.018C69.1182 179.121 69.4265 179.183 69.776 179.183C70.2487 179.183 70.6393 179.101 70.9682 178.957C71.2868 178.802 71.5335 178.566 71.7082 178.237C71.8829 177.908 71.9651 177.487 71.9651 176.973V175.976L72.1912 176.336C72.0371 176.644 71.8315 176.901 71.5746 177.117C71.3176 177.333 71.0196 177.497 70.6907 177.61C70.3515 177.723 69.9815 177.785 69.5601 177.785C69.036 177.785 68.5735 177.672 68.1932 177.436C67.8129 177.199 67.5251 176.87 67.3196 176.459C67.114 176.038 67.0112 175.565 67.0112 175.02V170.734C67.0112 170.519 67.0832 170.344 67.2168 170.21C67.3607 170.066 67.5354 170.005 67.741 170.005C67.9465 170.005 68.111 170.077 68.2548 170.21C68.3885 170.344 68.4604 170.529 68.4604 170.734V174.63C68.4604 175.267 68.594 175.729 68.8818 176.017C69.1593 176.315 69.5704 176.459 70.1254 176.459C70.4851 176.459 70.8037 176.377 71.0812 176.233C71.3485 176.079 71.5643 175.863 71.7185 175.596C71.8726 175.318 71.9446 175 71.9446 174.64V170.745C71.9446 170.529 72.0165 170.354 72.1501 170.221C72.2837 170.046 72.4585 169.974 72.664 169.974Z" fill="#666667"/>
<path d="M84.2675 177.764C83.5275 177.764 82.8389 177.631 82.212 177.364C81.585 177.096 81.03 176.726 80.547 176.254C80.0639 175.781 79.6939 175.226 79.4267 174.599C79.1595 173.972 79.0259 173.294 79.0259 172.564C79.0259 171.834 79.1595 171.156 79.4267 170.529C79.6939 169.902 80.0742 169.357 80.547 168.874C81.03 168.391 81.585 168.031 82.212 167.764C82.8389 167.497 83.5275 167.363 84.2675 167.363C84.7403 167.363 85.1925 167.415 85.6345 167.518C86.0764 167.62 86.4773 167.774 86.837 167.98C86.9603 168.052 87.0528 168.134 87.1145 168.247C87.1762 168.36 87.207 168.473 87.207 168.586C87.207 168.782 87.135 168.946 87.0014 169.1C86.8678 169.254 86.7034 169.326 86.5081 169.326C86.4362 169.326 86.3745 169.316 86.3025 169.296C86.2306 169.275 86.1689 169.254 86.097 169.224C85.8298 169.1 85.542 168.998 85.2337 168.926C84.9253 168.843 84.6067 168.813 84.2675 168.813C83.5789 168.813 82.952 168.977 82.397 169.316C81.842 169.655 81.4 170.097 81.0712 170.663C80.7525 171.228 80.5881 171.855 80.5881 172.554C80.5881 173.242 80.7525 173.879 81.0712 174.455C81.3898 175.031 81.8317 175.483 82.397 175.812C82.952 176.141 83.5789 176.305 84.2675 176.305C84.6067 176.305 84.9562 176.264 85.3364 176.182C85.7167 176.099 86.025 175.997 86.2923 175.863L86.1792 176.254V173.509L86.4053 173.715H84.5142C84.2984 173.715 84.1237 173.643 83.99 173.509C83.8462 173.376 83.7845 173.201 83.7845 172.996C83.7845 172.78 83.8564 172.605 83.99 172.471C84.1237 172.338 84.3087 172.266 84.5142 172.266H86.9911C87.207 172.266 87.3817 172.338 87.5153 172.471C87.6592 172.615 87.7209 172.79 87.7209 172.996V176.202C87.7209 176.356 87.6798 176.49 87.6078 176.593C87.5256 176.696 87.4434 176.788 87.3509 176.85C86.9089 177.117 86.4259 177.333 85.9017 177.497C85.3775 177.682 84.8328 177.764 84.2675 177.764Z" fill="#666667"/>
<path d="M95.1106 170.036C95.3161 170.036 95.4806 170.108 95.6244 170.241C95.7581 170.385 95.83 170.56 95.83 170.765V174.558C95.83 175.555 95.5525 176.336 94.9975 176.901C94.4425 177.466 93.6511 177.744 92.6336 177.744C91.6161 177.744 90.8247 177.466 90.28 176.901C89.725 176.336 89.4475 175.555 89.4475 174.558V170.765C89.4475 170.549 89.5195 170.375 89.6531 170.241C89.797 170.108 89.9717 170.036 90.1772 170.036C90.3828 170.036 90.5472 170.108 90.6911 170.241C90.8247 170.385 90.8967 170.56 90.8967 170.765V174.558C90.8967 175.185 91.0406 175.647 91.3386 175.956C91.6367 176.264 92.0581 176.418 92.6336 176.418C93.2092 176.418 93.6511 176.264 93.9389 175.956C94.2267 175.647 94.3808 175.185 94.3808 174.558V170.765C94.3808 170.549 94.4528 170.375 94.5864 170.241C94.72 170.108 94.8947 170.036 95.1106 170.036Z" fill="#666667"/>
<path d="M101.37 177.764C100.568 177.764 99.8794 177.6 99.2936 177.261C98.7078 176.932 98.2555 176.469 97.9267 175.894C97.608 175.308 97.4436 174.65 97.4436 173.9C97.4436 173.057 97.6183 172.327 97.9575 171.731C98.2967 171.125 98.7386 170.673 99.2936 170.344C99.8383 170.025 100.424 169.861 101.041 169.861C101.514 169.861 101.956 169.953 102.387 170.138C102.809 170.323 103.189 170.58 103.518 170.919C103.847 171.248 104.114 171.639 104.299 172.091C104.494 172.533 104.587 173.026 104.597 173.551C104.587 173.746 104.515 173.9 104.371 174.023C104.227 174.147 104.062 174.208 103.867 174.208H98.2555L97.9061 172.985H103.333L103.055 173.242V172.882C103.024 172.543 102.911 172.256 102.706 171.999C102.5 171.752 102.254 171.557 101.966 171.403C101.668 171.259 101.359 171.187 101.031 171.187C100.743 171.187 100.465 171.228 100.198 171.32C99.9308 171.413 99.6944 171.557 99.4889 171.762C99.2833 171.968 99.1189 172.225 98.9955 172.564C98.8722 172.893 98.8105 173.304 98.8105 173.797C98.8105 174.321 98.9236 174.784 99.1394 175.185C99.3655 175.575 99.6636 175.884 100.034 176.099C100.404 176.315 100.825 176.428 101.277 176.428C101.627 176.428 101.925 176.398 102.151 176.315C102.377 176.243 102.572 176.151 102.726 176.048C102.891 175.945 103.024 175.843 103.137 175.75C103.281 175.658 103.425 175.616 103.559 175.616C103.744 175.616 103.888 175.678 104.001 175.801C104.114 175.925 104.176 176.058 104.176 176.223C104.176 176.439 104.073 176.624 103.857 176.798C103.6 177.045 103.24 177.271 102.788 177.456C102.346 177.672 101.873 177.764 101.37 177.764Z" fill="#666667"/>
<path d="M105.779 176.439C105.697 176.305 105.656 176.151 105.666 175.966C105.676 175.791 105.779 175.637 105.974 175.514C106.108 175.421 106.252 175.39 106.396 175.401C106.539 175.411 106.683 175.493 106.817 175.627C107.084 175.925 107.382 176.161 107.721 176.336C108.05 176.511 108.451 176.593 108.924 176.593C109.119 176.582 109.314 176.552 109.52 176.5C109.726 176.449 109.9 176.356 110.044 176.212C110.188 176.079 110.26 175.873 110.26 175.596C110.26 175.359 110.178 175.164 110.034 175.031C109.88 174.897 109.674 174.774 109.428 174.681C109.181 174.589 108.903 174.496 108.605 174.424C108.297 174.332 107.989 174.239 107.68 174.136C107.372 174.034 107.094 173.89 106.838 173.725C106.581 173.561 106.375 173.335 106.221 173.068C106.067 172.8 105.995 172.471 105.995 172.071C105.995 171.618 106.118 171.228 106.365 170.899C106.611 170.57 106.951 170.313 107.362 170.138C107.773 169.953 108.215 169.861 108.688 169.861C108.975 169.861 109.273 169.892 109.582 169.964C109.89 170.036 110.188 170.149 110.476 170.303C110.764 170.457 111.01 170.662 111.226 170.909C111.319 171.032 111.38 171.187 111.391 171.351C111.401 171.526 111.329 171.68 111.154 171.824C111.041 171.916 110.897 171.958 110.733 171.947C110.568 171.937 110.435 171.875 110.332 171.783C110.147 171.557 109.911 171.372 109.623 171.248C109.335 171.125 109.006 171.063 108.646 171.063C108.461 171.063 108.276 171.084 108.081 171.135C107.886 171.187 107.721 171.279 107.578 171.413C107.444 171.546 107.372 171.742 107.372 172.009C107.372 172.245 107.454 172.441 107.608 172.584C107.763 172.728 107.978 172.852 108.235 172.944C108.492 173.037 108.78 173.129 109.088 173.201C109.386 173.283 109.684 173.366 109.972 173.479C110.27 173.581 110.527 173.715 110.764 173.89C111 174.054 111.195 174.27 111.339 174.537C111.483 174.804 111.565 175.133 111.565 175.544C111.565 176.017 111.432 176.418 111.154 176.747C110.877 177.076 110.538 177.333 110.116 177.507C109.695 177.682 109.253 177.764 108.79 177.764C108.246 177.764 107.701 177.662 107.156 177.466C106.611 177.271 106.159 176.932 105.779 176.439Z" fill="#666667"/>
<path d="M113.025 170.118H116.416C116.612 170.118 116.766 170.179 116.899 170.313C117.023 170.436 117.095 170.601 117.095 170.796C117.095 170.991 117.033 171.146 116.899 171.269C116.766 171.392 116.612 171.454 116.416 171.454H113.025C112.829 171.454 112.675 171.392 112.542 171.259C112.408 171.125 112.346 170.971 112.346 170.776C112.346 170.58 112.408 170.426 112.542 170.303C112.675 170.179 112.829 170.118 113.025 170.118ZM114.536 168.247C114.751 168.247 114.916 168.319 115.049 168.453C115.183 168.597 115.255 168.771 115.255 168.977V175.668C115.255 175.843 115.286 175.976 115.337 176.089C115.399 176.192 115.471 176.264 115.574 176.305C115.676 176.346 115.779 176.367 115.882 176.367C115.985 176.367 116.088 176.346 116.17 176.305C116.252 176.264 116.355 176.243 116.468 176.243C116.581 176.243 116.684 176.295 116.786 176.408C116.879 176.511 116.93 176.654 116.93 176.839C116.93 177.066 116.807 177.261 116.55 177.405C116.303 177.549 116.026 177.621 115.738 177.621C115.574 177.621 115.378 177.61 115.163 177.579C114.947 177.549 114.731 177.477 114.525 177.364C114.32 177.251 114.145 177.066 114.011 176.809C113.868 176.552 113.806 176.192 113.806 175.74V168.987C113.806 168.771 113.878 168.597 114.022 168.463C114.166 168.319 114.34 168.247 114.536 168.247Z" fill="#666667"/>
<defs>
<linearGradient id="paint0_linear_425_49" x1="304.786" y1="243.419" x2="-212.975" y2="-141.844" gradientUnits="userSpaceOnUse">
<stop stop-color="#44B549"/>
<stop offset="0.1828" stop-color="#FFEB22"/>
<stop offset="0.371" stop-color="#F05739"/>
<stop offset="0.5161" stop-color="#EC1D8E"/>
<stop offset="0.6452" stop-color="#633191"/>
<stop offset="0.7258" stop-color="#3D5FAB"/>
<stop offset="0.8387" stop-color="#00BDDF"/>
<stop offset="1" stop-color="#44B549"/>
</linearGradient>
<linearGradient id="paint1_linear_425_49" x1="313.8" y1="231.476" x2="-203.988" y2="-153.807" gradientUnits="userSpaceOnUse">
<stop stop-color="#44B549"/>
<stop offset="0.1828" stop-color="#FFEB22"/>
<stop offset="0.371" stop-color="#F05739"/>
<stop offset="0.5161" stop-color="#EC1D8E"/>
<stop offset="0.6452" stop-color="#633191"/>
<stop offset="0.7258" stop-color="#3D5FAB"/>
<stop offset="0.8387" stop-color="#00BDDF"/>
<stop offset="1" stop-color="#44B549"/>
</linearGradient>
<linearGradient id="paint2_linear_425_49" x1="389.483" y1="428.185" x2="-324.474" y2="-103.065" gradientUnits="userSpaceOnUse">
<stop stop-color="#44B549"/>
<stop offset="0.1828" stop-color="#FFEB22"/>
<stop offset="0.371" stop-color="#F05739"/>
<stop offset="0.5161" stop-color="#EC1D8E"/>
<stop offset="0.6452" stop-color="#633191"/>
<stop offset="0.7258" stop-color="#3D5FAB"/>
<stop offset="0.8387" stop-color="#00BDDF"/>
<stop offset="1" stop-color="#44B549"/>
</linearGradient>
<linearGradient id="paint3_linear_425_49" x1="399.042" y1="415.012" x2="-314.914" y2="-116.239" gradientUnits="userSpaceOnUse">
<stop stop-color="#44B549"/>
<stop offset="0.1828" stop-color="#FFEB22"/>
<stop offset="0.371" stop-color="#F05739"/>
<stop offset="0.5161" stop-color="#EC1D8E"/>
<stop offset="0.6452" stop-color="#633191"/>
<stop offset="0.7258" stop-color="#3D5FAB"/>
<stop offset="0.8387" stop-color="#00BDDF"/>
<stop offset="1" stop-color="#44B549"/>
</linearGradient>
<linearGradient id="paint4_linear_425_49" x1="407.543" y1="403.612" x2="-306.413" y2="-127.639" gradientUnits="userSpaceOnUse">
<stop stop-color="#44B549"/>
<stop offset="0.1828" stop-color="#FFEB22"/>
<stop offset="0.371" stop-color="#F05739"/>
<stop offset="0.5161" stop-color="#EC1D8E"/>
<stop offset="0.6452" stop-color="#633191"/>
<stop offset="0.7258" stop-color="#3D5FAB"/>
<stop offset="0.8387" stop-color="#00BDDF"/>
<stop offset="1" stop-color="#44B549"/>
</linearGradient>
<linearGradient id="paint5_linear_425_49" x1="415.443" y1="393.31" x2="-298.513" y2="-137.94" gradientUnits="userSpaceOnUse">
<stop stop-color="#44B549"/>
<stop offset="0.1828" stop-color="#FFEB22"/>
<stop offset="0.371" stop-color="#F05739"/>
<stop offset="0.5161" stop-color="#EC1D8E"/>
<stop offset="0.6452" stop-color="#633191"/>
<stop offset="0.7258" stop-color="#3D5FAB"/>
<stop offset="0.8387" stop-color="#00BDDF"/>
<stop offset="1" stop-color="#44B549"/>
</linearGradient>
<linearGradient id="paint6_linear_425_49" x1="423.08" y1="382.638" x2="-290.876" y2="-148.613" gradientUnits="userSpaceOnUse">
<stop stop-color="#44B549"/>
<stop offset="0.1828" stop-color="#FFEB22"/>
<stop offset="0.371" stop-color="#F05739"/>
<stop offset="0.5161" stop-color="#EC1D8E"/>
<stop offset="0.6452" stop-color="#633191"/>
<stop offset="0.7258" stop-color="#3D5FAB"/>
<stop offset="0.8387" stop-color="#00BDDF"/>
<stop offset="1" stop-color="#44B549"/>
</linearGradient>
</defs>
</svg>
