<svg width="70" height="83" viewBox="0 0 70 83" fill="none" xmlns="http://www.w3.org/2000/svg">
<g clip-path="url(#clip0_717_1046)">
<path d="M34.0012 32.818C30.0092 35.9541 26.379 39.1118 22.4418 41.7881C19.6192 43.7053 18.3699 45.9348 18.7274 49.3962C19.3836 55.729 17.8399 61.6281 15.215 67.3364C13.6039 70.8411 12.3714 74.528 10.9286 78.1152C9.49842 81.672 6.41087 83.1901 3.36959 81.8932C0.336716 80.6006 -0.80324 77.2997 0.593311 73.7082C2.67131 68.3687 4.76193 63.0292 6.89041 57.7113C7.32788 56.6226 7.55083 55.5425 7.55924 54.3627C7.58868 47.9388 7.69805 41.5105 7.68123 35.0866C7.67702 32.6662 8.48887 30.8011 10.2808 29.2396C15.6315 24.5897 20.9232 19.8617 26.2528 15.1859C30.1312 11.7895 34.2956 12.4055 37.564 16.396C42.065 21.8917 44.0126 28.1031 43.3311 35.2124C43.1923 36.6698 43.6424 37.6024 44.8623 38.3961C46.6921 39.589 48.4294 40.9423 50.1456 42.3043C52.4508 44.1347 52.9009 46.9542 51.3276 49.1663C49.8133 51.2961 47.2053 51.6951 44.8118 49.9948C41.8168 47.8694 38.8975 45.6269 35.9488 43.4321C34.527 42.3737 33.9507 40.9163 33.9927 39.1292C34.0348 37.1426 34.0012 35.1517 34.0012 32.805V32.818Z" fill="#CB957B"/>
<path d="M69.9959 45.397C69.9959 48.3552 69.9875 51.3177 69.9959 54.2759C70.0001 56.2192 69.1126 57.2168 67.1902 57.2125C61.381 57.2038 55.5677 57.2038 49.7585 57.2125C49.0266 57.2125 48.3662 57.078 47.8236 56.5575C47.4071 56.1585 47.0033 55.6943 47.1421 55.0654C47.302 54.341 47.9456 54.6924 48.3704 54.6316C51.845 54.1371 54.6254 51.7428 55.4794 48.468C56.388 44.9892 55.2101 41.5669 52.274 39.2897C50.9322 38.2487 49.5356 37.2901 48.1811 36.2664C46.8645 35.2688 46.957 34.3058 48.4756 33.6769C49.035 33.447 49.6997 33.4296 50.318 33.4296C55.778 33.4123 61.238 33.4079 66.7022 33.4253C69.2598 33.4296 69.9665 34.141 69.9875 36.7305C70.0127 39.6193 69.9917 42.5038 69.9917 45.3926L69.9959 45.397Z" fill="#CB957B"/>
<path d="M22.366 52.0204C22.366 50.6497 22.3997 49.2791 22.3534 47.9127C22.3239 47.0669 22.5385 46.4813 23.2367 45.9131C26.1687 43.5188 25.9836 43.6272 28.3939 46.5551C32.3185 51.3264 34.8761 56.6616 36.1212 62.7862C36.9204 66.7161 38.1824 70.5461 39.1835 74.4326C40.13 78.1108 38.5651 81.1471 35.322 82.0754C32.3017 82.9429 29.3193 81.056 28.3476 77.5253C26.7702 71.7867 25.2054 66.0437 23.7962 60.2618C23.4555 58.8564 22.1052 57.9759 22.2903 56.3363C22.4543 54.9135 22.3239 53.4561 22.3239 52.0161H22.366V52.0204Z" fill="#CB957B"/>
<path d="M49.5103 20.79C43.9283 20.8203 39.3054 16.0577 39.3559 10.3321C39.4064 4.61953 43.882 0.0130401 49.3967 2.74239e-05C55.0587 -0.0129853 59.5344 4.60652 59.5091 10.4319C59.4839 16.1531 55.0376 20.7596 49.5103 20.79Z" fill="#CB957B"/>
<path d="M56.8297 75.6167C56.8297 74.6061 56.7792 73.5954 56.8423 72.5935C56.9517 70.7977 57.1115 69.2318 54.4446 69.5181C53.0775 69.6656 52.4718 68.1171 53.2962 66.8462C54.4909 64.994 55.8117 63.22 57.1494 61.4676C58.1295 60.1837 59.1811 60.3832 60.0729 61.6107C61.2423 63.2243 62.4033 64.8466 63.4927 66.5165C64.5948 68.1995 63.9723 69.5051 61.97 69.4357C60.3673 69.3837 59.9425 69.8955 60.0182 71.5004C60.1486 74.3024 60.0518 77.1175 60.056 79.9283C60.056 81.1211 59.7616 82.2315 58.4239 82.2228C57.1073 82.2185 56.7792 81.1688 56.8213 79.9369C56.8675 78.4969 56.8339 77.0568 56.8339 75.6167H56.8297Z" fill="#CB957B"/>
</g>
<defs>
<clipPath id="clip0_717_1046">
<rect width="70" height="82.3529" fill="white"/>
</clipPath>
</defs>
</svg>
