<svg width="220" height="222" viewBox="0 0 220 222" fill="none" xmlns="http://www.w3.org/2000/svg">
<mask id="mask0_72_26" style="mask-type:luminance" maskUnits="userSpaceOnUse" x="66" y="20" width="85" height="121">
<path d="M66.8199 62.6944C66.8199 94.3808 95.0633 129.253 105.207 140.754C106.687 120.209 107.592 100.804 105.557 97.2072C101.333 89.7764 87.9511 82.0064 90.6233 63.3933C93.0694 46.3117 103.152 39.7853 108.784 39.7853C114.427 39.7853 124.612 46.5481 126.955 63.3933C129.535 82.0167 116.246 89.7764 112.022 97.2072C109.966 100.804 110.871 120.209 112.371 140.764C122.526 129.305 150.748 94.5658 150.748 62.6944C150.748 39.5283 131.961 20.7508 108.794 20.7508C85.6283 20.7508 66.8199 39.5181 66.8199 62.6944Z" fill="white"/>
</mask>
<g mask="url(#mask0_72_26)">
<path d="M120.83 180.951L9.34656 97.9883L96.7282 -19.4456L208.211 63.5167L120.83 180.951Z" fill="url(#paint0_linear_72_26)"/>
</g>
<mask id="mask1_72_26" style="mask-type:luminance" maskUnits="userSpaceOnUse" x="110" y="44" width="14" height="50">
<path d="M112.381 44.6775C112.309 44.7803 112.32 44.9139 112.402 44.9961C115.752 48.1925 119.113 54.3694 120.182 64.3389C121.837 79.7042 114.509 87.1556 110.665 93.4661H110.809C115.31 87.0939 125.681 79.9097 123.492 64.1333C122.032 53.6397 117.222 47.4628 112.69 44.6158C112.649 44.5953 112.607 44.5747 112.566 44.5747C112.494 44.585 112.422 44.6158 112.381 44.6775Z" fill="white"/>
</mask>
<g mask="url(#mask1_72_26)">
<path d="M120.336 100.661L87.2521 76.0453L116.02 37.3906L149.104 62.0058L120.336 100.661Z" fill="url(#paint1_linear_72_26)"/>
</g>
<mask id="mask2_72_26" style="mask-type:luminance" maskUnits="userSpaceOnUse" x="50" y="155" width="25" height="26">
<path d="M57.9092 155.924C56.3161 156.51 54.9594 157.363 53.8494 158.483C52.7394 159.593 51.8967 160.95 51.3211 162.553C50.7455 164.146 50.4578 165.914 50.4578 167.836C50.4578 169.789 50.7558 171.567 51.3417 173.15C51.9275 174.733 52.7805 176.089 53.8803 177.199C54.98 178.309 56.3161 179.162 57.8783 179.748C59.4405 180.334 61.1775 180.622 63.0789 180.622C64.713 180.622 66.2136 180.437 67.6011 180.067C68.9886 179.697 70.4275 179.111 71.9178 178.299C72.4316 178.021 72.8633 177.723 73.1922 177.425C73.5211 177.117 73.7472 176.778 73.8808 176.408C74.0042 176.028 74.0658 175.524 74.0658 174.897V170.159C74.0658 169.306 73.9116 168.658 73.6136 168.237C73.3155 167.805 72.925 167.538 72.4419 167.415C71.9589 167.291 71.373 167.23 70.6741 167.23H64.9905C64.3019 167.23 63.7572 167.415 63.3666 167.774C62.9453 168.093 62.75 168.556 62.75 169.1C62.75 169.779 62.9864 170.251 63.4694 170.529C63.9422 170.806 64.6514 170.95 65.5867 170.95H69.4614V174.969C68.413 175.534 67.3853 175.966 66.3678 176.264C65.3503 176.572 64.2608 176.716 63.0994 176.716C60.715 176.716 58.8547 175.935 57.5289 174.373C56.1928 172.811 55.535 170.58 55.535 167.672C55.535 166.336 55.7097 165.113 56.0489 164.013C56.388 162.913 56.8814 161.978 57.5289 161.217C58.1764 160.457 58.9575 159.881 59.8619 159.48C60.7766 159.079 61.8044 158.884 62.9658 158.884C64.0861 158.884 65.0111 159.049 65.7408 159.388C66.4705 159.727 67.0461 160.138 67.4675 160.631C67.8991 161.125 68.413 161.854 69.04 162.821C69.2661 163.129 69.5436 163.365 69.8725 163.53C70.2014 163.694 70.5508 163.787 70.9105 163.787C71.558 163.787 72.1233 163.561 72.5858 163.119C73.0483 162.677 73.2847 162.142 73.2847 161.505C73.2847 160.919 73.0792 160.251 72.6783 159.501C72.2775 158.751 71.6711 158.031 70.8694 157.363C70.0678 156.685 69.0297 156.13 67.745 155.688C66.4603 155.246 64.9905 155.02 63.3255 155.02C61.3111 155.04 59.5022 155.328 57.9092 155.924Z" fill="white"/>
</mask>
<g mask="url(#mask2_72_26)">
<path d="M65.6381 191.907L38.2067 171.495L58.865 143.735L86.2964 164.146L65.6381 191.907Z" fill="url(#paint2_linear_72_26)"/>
</g>
<mask id="mask3_72_26" style="mask-type:luminance" maskUnits="userSpaceOnUse" x="78" y="155" width="22" height="26">
<path d="M95.3202 155.791C94.868 156.294 94.6419 157.055 94.6419 158.072V170.334C94.6419 172.451 94.2411 174.023 93.4291 175.061C92.6172 176.099 91.24 176.624 89.2769 176.624C87.8586 176.624 86.7589 176.367 85.9675 175.853C85.1761 175.339 84.6314 174.619 84.323 173.694C84.0147 172.769 83.8605 171.608 83.8605 170.231V158.072C83.8605 157.055 83.6344 156.304 83.1822 155.791C82.73 155.287 82.1133 155.03 81.3322 155.03C80.5922 155.03 79.9858 155.287 79.5336 155.791C79.0814 156.294 78.845 157.055 78.845 158.072V169.964C78.845 171.834 79.0505 173.437 79.4514 174.784C79.8522 176.13 80.4894 177.23 81.3527 178.093C82.2161 178.957 83.3364 179.594 84.7136 179.995C86.0805 180.406 87.725 180.611 89.6264 180.611C91.2194 180.611 92.6172 180.416 93.8094 180.036C95.0016 179.656 96.05 179.049 96.9441 178.217C97.9925 177.24 98.7016 176.099 99.0819 174.815C99.4622 173.52 99.6472 171.906 99.6472 169.974V158.072C99.6472 157.044 99.4108 156.284 98.9483 155.791C98.4858 155.287 97.8691 155.04 97.1189 155.04C96.3686 155.04 95.7725 155.287 95.3202 155.791Z" fill="white"/>
</mask>
<g mask="url(#mask3_72_26)">
<path d="M92.2472 190.571L66.6144 171.495L86.2655 145.071L111.898 164.146L92.2472 190.571Z" fill="url(#paint3_linear_72_26)"/>
</g>
<mask id="mask4_72_26" style="mask-type:luminance" maskUnits="userSpaceOnUse" x="102" y="155" width="23" height="26">
<path d="M106.194 155.462C105.434 155.462 104.858 155.636 104.467 155.996C104.077 156.346 103.882 156.818 103.882 157.384C103.882 157.939 104.077 158.381 104.467 158.72C104.858 159.059 105.434 159.223 106.194 159.223H117.109L104.406 174.424C104.2 174.661 103.964 174.938 103.697 175.257C103.429 175.575 103.214 175.843 103.059 176.048C102.905 176.254 102.782 176.48 102.7 176.716C102.607 176.953 102.566 177.209 102.566 177.497C102.566 178.319 102.844 178.977 103.388 179.46C103.943 179.954 104.755 180.19 105.855 180.19H121.909C122.69 180.19 123.265 180.015 123.646 179.666C124.026 179.316 124.221 178.844 124.221 178.248C124.221 177.672 124.026 177.23 123.646 176.911C123.265 176.593 122.68 176.428 121.909 176.428H108.815L120.686 162.296C121.611 161.217 122.217 160.436 122.525 159.953C122.834 159.47 122.978 158.823 122.978 158.011C122.978 156.315 122.063 155.462 120.244 155.462H106.194V155.462Z" fill="white"/>
</mask>
<g mask="url(#mask4_72_26)">
<path d="M116.513 190.56L90.7261 171.372L110.285 145.081L136.072 164.27L116.513 190.56Z" fill="url(#paint4_linear_72_26)"/>
</g>
<mask id="mask5_72_26" style="mask-type:luminance" maskUnits="userSpaceOnUse" x="124" y="155" width="22" height="26">
<path d="M127.521 155.462C126.698 155.462 126.071 155.647 125.64 156.017C125.208 156.387 124.992 156.89 124.992 157.538C124.992 158.154 125.198 158.658 125.619 159.028C126.03 159.408 126.667 159.593 127.521 159.593H132.988V177.559C132.988 178.587 133.225 179.347 133.687 179.851C134.15 180.354 134.756 180.611 135.496 180.611C136.226 180.611 136.822 180.365 137.284 179.861C137.747 179.358 137.973 178.597 137.973 177.559V159.593H143.441C144.294 159.593 144.941 159.408 145.363 159.028C145.794 158.648 146 158.154 146 157.538C146 156.921 145.784 156.418 145.363 156.037C144.941 155.657 144.294 155.462 143.431 155.462H127.521V155.462Z" fill="white"/>
</mask>
<g mask="url(#mask5_72_26)">
<path d="M138.518 190.673L112.947 171.649L132.474 145.389L158.046 164.424L138.518 190.673Z" fill="url(#paint5_linear_72_26)"/>
</g>
<mask id="mask6_72_26" style="mask-type:luminance" maskUnits="userSpaceOnUse" x="146" y="155" width="22" height="26">
<path d="M163.873 155.256C163.596 155.4 163.339 155.616 163.102 155.893C162.876 156.171 162.66 156.469 162.465 156.777C162.27 157.096 162.033 157.476 161.756 157.939L157.079 165.441L152.454 157.939C151.745 156.777 151.211 156.006 150.861 155.616C150.502 155.225 149.988 155.03 149.299 155.03C148.652 155.03 148.097 155.236 147.655 155.657C147.213 156.068 146.987 156.572 146.987 157.137C146.987 157.486 147.1 157.897 147.316 158.37C147.531 158.843 147.912 159.501 148.436 160.344L154.479 169.707V177.549C154.479 178.587 154.705 179.347 155.168 179.851C155.63 180.354 156.226 180.601 156.977 180.601C157.706 180.601 158.313 180.344 158.786 179.841C159.258 179.337 159.495 178.566 159.495 177.549V169.707L165.682 160.21C166.196 159.439 166.566 158.823 166.782 158.391C166.998 157.949 167.1 157.517 167.1 157.075C167.1 156.531 166.895 156.058 166.463 155.647C166.042 155.236 165.518 155.03 164.891 155.03C164.49 155.04 164.151 155.112 163.873 155.256Z" fill="white"/>
</mask>
<g mask="url(#mask6_72_26)">
<path d="M159.937 190.242L134.756 171.495L154.161 145.41L179.351 164.146L159.937 190.242Z" fill="url(#paint6_linear_72_26)"/>
</g>
<path d="M88.4136 188.279C89.2975 188.279 89.9656 188.494 90.4281 188.926C90.8803 189.358 91.1167 189.985 91.1167 190.817C91.1167 191.259 91.0139 191.65 90.8083 191.999C90.6028 192.349 90.2944 192.616 89.8936 192.821C89.4928 193.027 88.9892 193.13 88.4033 193.14L88.4136 192.606C88.7322 192.606 89.0714 192.647 89.4414 192.739C89.8114 192.832 90.1608 192.976 90.4897 193.181C90.8186 193.397 91.0961 193.685 91.3017 194.044C91.5175 194.404 91.6203 194.856 91.6203 195.391C91.6203 195.977 91.5278 196.46 91.3325 196.85C91.1372 197.241 90.8803 197.549 90.5617 197.775C90.243 198.001 89.8936 198.156 89.5133 198.238C89.1331 198.32 88.763 198.371 88.4033 198.371H84.7136C84.4978 198.371 84.3231 198.299 84.1894 198.166C84.0456 198.032 83.9839 197.847 83.9839 197.642V189.019C83.9839 188.803 84.0558 188.628 84.1894 188.494C84.3231 188.361 84.5081 188.289 84.7136 188.289H88.4136V188.279ZM88.1978 189.697H85.3714L85.5461 189.45V192.554L85.3919 192.39H88.2492C88.5986 192.379 88.8967 192.266 89.1639 192.04C89.4311 191.814 89.5647 191.485 89.5647 191.033C89.5647 190.581 89.4414 190.262 89.1947 190.026C88.9378 189.81 88.6089 189.697 88.1978 189.697ZM88.3108 193.829H85.4433L85.5461 193.716V197.117L85.433 196.994H88.393C88.9069 196.994 89.3078 196.861 89.6161 196.593C89.9244 196.326 90.0786 195.925 90.0786 195.391C90.0786 194.939 89.9861 194.599 89.8011 194.384C89.6161 194.168 89.39 194.014 89.1228 193.942C88.8453 193.859 88.5781 193.829 88.3108 193.829Z" fill="#666667"/>
<path d="M96.7797 198.515C95.9781 198.515 95.2895 198.351 94.7036 198.012C94.1178 197.683 93.6656 197.22 93.3367 196.645C93.0181 196.059 92.8536 195.401 92.8536 194.651C92.8536 193.808 93.0284 193.078 93.3675 192.482C93.7067 191.876 94.1486 191.424 94.7036 191.095C95.2484 190.776 95.8342 190.612 96.4509 190.612C96.9236 190.612 97.3656 190.704 97.7972 190.889C98.2186 191.074 98.5989 191.331 98.9278 191.67C99.2567 191.999 99.5239 192.39 99.7089 192.842C99.9042 193.284 99.9967 193.777 100.007 194.301C99.9967 194.497 99.9247 194.651 99.7809 194.774C99.637 194.897 99.4725 194.959 99.2772 194.959H93.6656L93.3161 193.736H98.7428L98.4653 193.993V193.633C98.4345 193.294 98.3214 193.006 98.1159 192.749C97.9103 192.503 97.6636 192.308 97.3759 192.153C97.0778 192.009 96.7695 191.938 96.4406 191.938C96.1528 191.938 95.8753 191.979 95.6081 192.071C95.3409 192.164 95.1045 192.308 94.8989 192.513C94.6934 192.719 94.5289 192.976 94.4056 193.315C94.2823 193.644 94.2206 194.055 94.2206 194.548C94.2206 195.072 94.3336 195.535 94.5495 195.936C94.7756 196.326 95.0736 196.634 95.4436 196.85C95.8239 197.066 96.235 197.179 96.6872 197.179C97.0367 197.179 97.3348 197.148 97.5609 197.066C97.787 196.994 97.9822 196.902 98.1364 196.799C98.3009 196.696 98.4345 196.593 98.5475 196.501C98.6914 196.408 98.8353 196.367 98.9689 196.367C99.1539 196.367 99.2978 196.429 99.4109 196.552C99.5239 196.676 99.5856 196.809 99.5856 196.974C99.5856 197.189 99.4828 197.374 99.267 197.549C99.01 197.796 98.6503 198.022 98.1981 198.207C97.7561 198.423 97.2731 198.515 96.7797 198.515Z" fill="#666667"/>
<path d="M106.554 188.258C106.667 188.258 106.79 188.289 106.914 188.351C107.037 188.412 107.129 188.494 107.201 188.587L110.86 194.168L110.244 194.137L113.985 188.587C114.139 188.361 114.334 188.258 114.581 188.258C114.776 188.258 114.941 188.33 115.095 188.464C115.239 188.607 115.321 188.782 115.321 188.988V197.631C115.321 197.847 115.249 198.022 115.115 198.156C114.971 198.299 114.797 198.361 114.571 198.361C114.344 198.361 114.17 198.289 114.026 198.156C113.892 198.022 113.82 197.837 113.82 197.631V190.314L114.283 190.416L111.107 195.247C111.035 195.329 110.953 195.411 110.84 195.473C110.727 195.535 110.624 195.566 110.511 195.566C110.408 195.566 110.295 195.535 110.182 195.473C110.069 195.411 109.987 195.339 109.915 195.247L106.852 190.488L107.201 189.913V197.631C107.201 197.847 107.14 198.022 107.006 198.156C106.872 198.299 106.708 198.361 106.492 198.361C106.287 198.361 106.122 198.289 105.999 198.156C105.865 198.022 105.804 197.837 105.804 197.631V188.988C105.804 188.793 105.876 188.628 106.03 188.474C106.174 188.33 106.348 188.258 106.554 188.258Z" fill="#666667"/>
<path d="M123.122 190.725C123.337 190.725 123.512 190.797 123.646 190.93C123.779 191.064 123.851 191.249 123.851 191.454V197.652C123.851 198.495 123.687 199.183 123.368 199.718C123.05 200.242 122.618 200.632 122.073 200.879C121.529 201.126 120.912 201.249 120.234 201.249C119.884 201.249 119.535 201.218 119.196 201.157C118.846 201.095 118.569 201.013 118.342 200.91C118.116 200.807 117.952 200.674 117.849 200.509C117.757 200.345 117.736 200.18 117.808 199.995C117.88 199.769 117.993 199.605 118.157 199.533C118.322 199.461 118.486 199.44 118.661 199.512C118.826 199.584 119.041 199.666 119.309 199.769C119.576 199.872 119.884 199.934 120.234 199.934C120.706 199.934 121.097 199.851 121.426 199.707C121.744 199.553 121.991 199.317 122.166 198.988C122.341 198.659 122.423 198.238 122.423 197.724V196.727L122.649 197.087C122.495 197.395 122.289 197.652 122.032 197.868C121.775 198.084 121.477 198.248 121.148 198.361C120.809 198.474 120.439 198.536 120.018 198.536C119.494 198.536 119.031 198.423 118.651 198.186C118.271 197.95 117.983 197.621 117.777 197.21C117.572 196.789 117.469 196.316 117.469 195.771V191.485C117.469 191.269 117.541 191.095 117.674 190.961C117.818 190.817 117.993 190.756 118.199 190.756C118.404 190.756 118.569 190.828 118.712 190.961C118.846 191.095 118.918 191.28 118.918 191.485V195.381C118.918 196.018 119.052 196.48 119.339 196.768C119.617 197.066 120.028 197.21 120.583 197.21C120.943 197.21 121.261 197.128 121.539 196.984C121.806 196.83 122.022 196.614 122.176 196.347C122.33 196.069 122.402 195.751 122.402 195.391V191.496C122.402 191.28 122.474 191.105 122.608 190.971C122.741 190.797 122.916 190.725 123.122 190.725Z" fill="#666667"/>
<path d="M134.725 198.515C133.985 198.515 133.297 198.382 132.67 198.114C132.043 197.847 131.488 197.477 131.005 197.004C130.522 196.532 130.152 195.977 129.884 195.35C129.617 194.723 129.484 194.044 129.484 193.315C129.484 192.585 129.617 191.907 129.884 191.28C130.152 190.653 130.532 190.108 131.005 189.625C131.488 189.142 132.043 188.782 132.67 188.515C133.297 188.248 133.985 188.114 134.725 188.114C135.198 188.114 135.65 188.166 136.092 188.268C136.534 188.371 136.935 188.525 137.295 188.731C137.418 188.803 137.511 188.885 137.572 188.998C137.634 189.111 137.665 189.224 137.665 189.337C137.665 189.533 137.593 189.697 137.459 189.851C137.326 190.005 137.161 190.077 136.966 190.077C136.894 190.077 136.832 190.067 136.76 190.046C136.688 190.026 136.627 190.005 136.555 189.974C136.288 189.851 136 189.748 135.691 189.676C135.383 189.594 135.064 189.563 134.725 189.563C134.037 189.563 133.41 189.728 132.855 190.067C132.3 190.406 131.858 190.848 131.529 191.413C131.21 191.979 131.046 192.606 131.046 193.304C131.046 193.993 131.21 194.63 131.529 195.206C131.848 195.781 132.289 196.234 132.855 196.562C133.41 196.891 134.037 197.056 134.725 197.056C135.064 197.056 135.414 197.015 135.794 196.933C136.174 196.85 136.483 196.748 136.75 196.614L136.637 197.004V194.26L136.863 194.466H134.972C134.756 194.466 134.581 194.394 134.448 194.26C134.304 194.127 134.242 193.952 134.242 193.746C134.242 193.531 134.314 193.356 134.448 193.222C134.581 193.089 134.766 193.017 134.972 193.017H137.449C137.665 193.017 137.839 193.089 137.973 193.222C138.117 193.366 138.179 193.541 138.179 193.746V196.953C138.179 197.107 138.138 197.241 138.066 197.344C137.983 197.446 137.901 197.539 137.809 197.601C137.367 197.868 136.884 198.084 136.359 198.248C135.835 198.433 135.291 198.515 134.725 198.515Z" fill="#666667"/>
<path d="M145.568 190.786C145.774 190.786 145.938 190.858 146.082 190.992C146.216 191.136 146.288 191.311 146.288 191.516V195.309C146.288 196.306 146.01 197.087 145.455 197.652C144.9 198.217 144.109 198.495 143.091 198.495C142.074 198.495 141.282 198.217 140.738 197.652C140.183 197.087 139.905 196.306 139.905 195.309V191.516C139.905 191.3 139.977 191.126 140.111 190.992C140.255 190.858 140.429 190.786 140.635 190.786C140.841 190.786 141.005 190.858 141.149 190.992C141.282 191.136 141.354 191.311 141.354 191.516V195.309C141.354 195.936 141.498 196.398 141.796 196.706C142.094 197.015 142.516 197.169 143.091 197.169C143.667 197.169 144.109 197.015 144.397 196.706C144.684 196.398 144.839 195.936 144.839 195.309V191.516C144.839 191.3 144.911 191.126 145.044 190.992C145.178 190.858 145.352 190.786 145.568 190.786Z" fill="#666667"/>
<path d="M151.827 198.515C151.026 198.515 150.337 198.351 149.751 198.012C149.166 197.683 148.713 197.22 148.384 196.645C148.066 196.059 147.901 195.401 147.901 194.651C147.901 193.808 148.076 193.078 148.415 192.482C148.754 191.876 149.196 191.424 149.751 191.095C150.296 190.776 150.882 190.612 151.499 190.612C151.971 190.612 152.413 190.704 152.845 190.889C153.266 191.074 153.647 191.331 153.976 191.67C154.304 191.999 154.572 192.39 154.757 192.842C154.952 193.284 155.044 193.777 155.055 194.301C155.044 194.497 154.972 194.651 154.829 194.774C154.685 194.897 154.52 194.959 154.325 194.959H148.713L148.364 193.736H153.791L153.513 193.993V193.633C153.482 193.294 153.369 193.006 153.164 192.749C152.958 192.503 152.711 192.308 152.424 192.153C152.126 192.009 151.817 191.938 151.488 191.938C151.201 191.938 150.923 191.979 150.656 192.071C150.389 192.164 150.152 192.308 149.947 192.513C149.741 192.719 149.577 192.976 149.453 193.315C149.33 193.644 149.268 194.055 149.268 194.548C149.268 195.072 149.381 195.535 149.597 195.936C149.823 196.326 150.121 196.634 150.491 196.85C150.861 197.066 151.283 197.179 151.735 197.179C152.084 197.179 152.382 197.148 152.609 197.066C152.835 196.994 153.03 196.902 153.184 196.799C153.349 196.696 153.482 196.593 153.595 196.501C153.739 196.408 153.883 196.367 154.017 196.367C154.202 196.367 154.346 196.429 154.459 196.552C154.572 196.676 154.633 196.809 154.633 196.974C154.633 197.189 154.531 197.374 154.315 197.549C154.058 197.796 153.698 198.022 153.246 198.207C152.804 198.423 152.331 198.515 151.827 198.515Z" fill="#666667"/>
<path d="M156.237 197.189C156.154 197.056 156.113 196.902 156.124 196.717C156.134 196.542 156.237 196.388 156.432 196.264C156.566 196.172 156.709 196.141 156.853 196.151C156.997 196.162 157.141 196.244 157.275 196.378C157.542 196.676 157.84 196.912 158.179 197.087C158.508 197.261 158.909 197.344 159.382 197.344C159.577 197.333 159.772 197.303 159.978 197.251C160.183 197.2 160.358 197.107 160.502 196.963C160.646 196.83 160.718 196.624 160.718 196.347C160.718 196.11 160.636 195.915 160.492 195.781C160.338 195.648 160.132 195.524 159.885 195.432C159.639 195.339 159.361 195.247 159.063 195.175C158.755 195.082 158.446 194.99 158.138 194.887C157.83 194.784 157.552 194.641 157.295 194.476C157.038 194.312 156.833 194.086 156.679 193.818C156.524 193.551 156.453 193.222 156.453 192.821C156.453 192.369 156.576 191.979 156.823 191.65C157.069 191.321 157.408 191.064 157.819 190.889C158.231 190.704 158.672 190.612 159.145 190.612C159.433 190.612 159.731 190.643 160.039 190.714C160.348 190.786 160.646 190.899 160.934 191.054C161.221 191.208 161.468 191.413 161.684 191.66C161.776 191.783 161.838 191.938 161.848 192.102C161.859 192.277 161.787 192.431 161.612 192.575C161.499 192.667 161.355 192.708 161.191 192.698C161.026 192.688 160.893 192.626 160.79 192.534C160.605 192.308 160.368 192.123 160.081 191.999C159.793 191.876 159.464 191.814 159.104 191.814C158.919 191.814 158.734 191.835 158.539 191.886C158.344 191.938 158.179 192.03 158.035 192.164C157.902 192.297 157.83 192.493 157.83 192.76C157.83 192.996 157.912 193.191 158.066 193.335C158.22 193.479 158.436 193.603 158.693 193.695C158.95 193.788 159.238 193.88 159.546 193.952C159.844 194.034 160.142 194.116 160.43 194.229C160.728 194.332 160.985 194.466 161.221 194.641C161.458 194.805 161.653 195.021 161.797 195.288C161.941 195.555 162.023 195.884 162.023 196.295C162.023 196.768 161.889 197.169 161.612 197.498C161.334 197.827 160.995 198.084 160.574 198.258C160.152 198.433 159.711 198.515 159.248 198.515C158.703 198.515 158.159 198.413 157.614 198.217C157.069 198.022 156.617 197.683 156.237 197.189Z" fill="#666667"/>
<path d="M163.483 190.869H166.874C167.069 190.869 167.224 190.93 167.357 191.064C167.481 191.187 167.553 191.352 167.553 191.547C167.553 191.742 167.491 191.896 167.357 192.02C167.224 192.143 167.069 192.205 166.874 192.205H163.483C163.287 192.205 163.133 192.143 162.999 192.009C162.866 191.876 162.804 191.722 162.804 191.526C162.804 191.331 162.866 191.177 162.999 191.054C163.133 190.93 163.287 190.869 163.483 190.869ZM164.993 188.998C165.209 188.998 165.374 189.07 165.507 189.204C165.641 189.348 165.713 189.522 165.713 189.728V196.419C165.713 196.593 165.744 196.727 165.795 196.84C165.857 196.943 165.929 197.015 166.031 197.056C166.134 197.097 166.237 197.117 166.34 197.117C166.443 197.117 166.545 197.097 166.628 197.056C166.71 197.015 166.813 196.994 166.926 196.994C167.039 196.994 167.141 197.046 167.244 197.159C167.337 197.261 167.388 197.405 167.388 197.59C167.388 197.816 167.265 198.012 167.008 198.156C166.761 198.299 166.484 198.371 166.196 198.371C166.031 198.371 165.836 198.361 165.62 198.33C165.404 198.299 165.189 198.228 164.983 198.114C164.778 198.001 164.603 197.816 164.469 197.559C164.325 197.303 164.264 196.943 164.264 196.491V189.738C164.264 189.522 164.336 189.348 164.479 189.214C164.623 189.07 164.798 188.998 164.993 188.998Z" fill="#666667"/>
<path d="M155.575 32.7879L153.663 29.5056H152.396V32.7879H151.348V24.7606H153.94C154.546 24.7606 155.057 24.8643 155.471 25.0716C155.894 25.2789 156.208 25.5591 156.416 25.9123C156.623 26.2655 156.727 26.6686 156.727 27.1216C156.727 27.6744 156.565 28.162 156.243 28.5842C155.928 29.0065 155.452 29.2868 154.815 29.425L156.83 32.7879H155.575ZM152.396 28.6649H153.94C154.508 28.6649 154.934 28.5267 155.218 28.2503C155.502 27.9662 155.644 27.5899 155.644 27.1216C155.644 26.6456 155.502 26.277 155.218 26.016C154.942 25.7549 154.515 25.6244 153.94 25.6244H152.396V28.6649Z" fill="#231F20"/>
<path d="M153.616 33.9064C157.135 33.9064 159.988 31.0534 159.988 27.5342C159.988 24.0149 157.135 21.1619 153.616 21.1619C150.097 21.1619 147.244 24.0149 147.244 27.5342C147.244 31.0534 150.097 33.9064 153.616 33.9064Z" stroke="#231F20" stroke-width="0.5" stroke-miterlimit="10"/>
<defs>
<linearGradient id="paint0_linear_72_26" x1="355.244" y1="264.17" x2="-162.518" y2="-121.093" gradientUnits="userSpaceOnUse">
<stop stop-color="#44B549"/>
<stop offset="0.1828" stop-color="#FFEB22"/>
<stop offset="0.371" stop-color="#F05739"/>
<stop offset="0.5161" stop-color="#EC1D8E"/>
<stop offset="0.6452" stop-color="#633191"/>
<stop offset="0.7258" stop-color="#3D5FAB"/>
<stop offset="0.8387" stop-color="#00BDDF"/>
<stop offset="1" stop-color="#44B549"/>
</linearGradient>
<linearGradient id="paint1_linear_72_26" x1="364.257" y1="252.227" x2="-153.531" y2="-133.056" gradientUnits="userSpaceOnUse">
<stop stop-color="#44B549"/>
<stop offset="0.1828" stop-color="#FFEB22"/>
<stop offset="0.371" stop-color="#F05739"/>
<stop offset="0.5161" stop-color="#EC1D8E"/>
<stop offset="0.6452" stop-color="#633191"/>
<stop offset="0.7258" stop-color="#3D5FAB"/>
<stop offset="0.8387" stop-color="#00BDDF"/>
<stop offset="1" stop-color="#44B549"/>
</linearGradient>
<linearGradient id="paint2_linear_72_26" x1="439.94" y1="448.936" x2="-274.016" y2="-82.3143" gradientUnits="userSpaceOnUse">
<stop stop-color="#44B549"/>
<stop offset="0.1828" stop-color="#FFEB22"/>
<stop offset="0.371" stop-color="#F05739"/>
<stop offset="0.5161" stop-color="#EC1D8E"/>
<stop offset="0.6452" stop-color="#633191"/>
<stop offset="0.7258" stop-color="#3D5FAB"/>
<stop offset="0.8387" stop-color="#00BDDF"/>
<stop offset="1" stop-color="#44B549"/>
</linearGradient>
<linearGradient id="paint3_linear_72_26" x1="449.5" y1="435.763" x2="-264.456" y2="-95.4877" gradientUnits="userSpaceOnUse">
<stop stop-color="#44B549"/>
<stop offset="0.1828" stop-color="#FFEB22"/>
<stop offset="0.371" stop-color="#F05739"/>
<stop offset="0.5161" stop-color="#EC1D8E"/>
<stop offset="0.6452" stop-color="#633191"/>
<stop offset="0.7258" stop-color="#3D5FAB"/>
<stop offset="0.8387" stop-color="#00BDDF"/>
<stop offset="1" stop-color="#44B549"/>
</linearGradient>
<linearGradient id="paint4_linear_72_26" x1="458.001" y1="424.362" x2="-255.955" y2="-106.888" gradientUnits="userSpaceOnUse">
<stop stop-color="#44B549"/>
<stop offset="0.1828" stop-color="#FFEB22"/>
<stop offset="0.371" stop-color="#F05739"/>
<stop offset="0.5161" stop-color="#EC1D8E"/>
<stop offset="0.6452" stop-color="#633191"/>
<stop offset="0.7258" stop-color="#3D5FAB"/>
<stop offset="0.8387" stop-color="#00BDDF"/>
<stop offset="1" stop-color="#44B549"/>
</linearGradient>
<linearGradient id="paint5_linear_72_26" x1="465.901" y1="414.061" x2="-248.055" y2="-117.189" gradientUnits="userSpaceOnUse">
<stop stop-color="#44B549"/>
<stop offset="0.1828" stop-color="#FFEB22"/>
<stop offset="0.371" stop-color="#F05739"/>
<stop offset="0.5161" stop-color="#EC1D8E"/>
<stop offset="0.6452" stop-color="#633191"/>
<stop offset="0.7258" stop-color="#3D5FAB"/>
<stop offset="0.8387" stop-color="#00BDDF"/>
<stop offset="1" stop-color="#44B549"/>
</linearGradient>
<linearGradient id="paint6_linear_72_26" x1="473.538" y1="403.389" x2="-240.418" y2="-127.862" gradientUnits="userSpaceOnUse">
<stop stop-color="#44B549"/>
<stop offset="0.1828" stop-color="#FFEB22"/>
<stop offset="0.371" stop-color="#F05739"/>
<stop offset="0.5161" stop-color="#EC1D8E"/>
<stop offset="0.6452" stop-color="#633191"/>
<stop offset="0.7258" stop-color="#3D5FAB"/>
<stop offset="0.8387" stop-color="#00BDDF"/>
<stop offset="1" stop-color="#44B549"/>
</linearGradient>
</defs>
</svg>
