<?xml version="1.0" encoding="utf-8"?>
<!-- Generator: Adobe Illustrator 26.3.0, SVG Export Plug-In . SVG Version: 6.00 Build 0)  -->
<svg version="1.1" id="Layer_1" xmlns="http://www.w3.org/2000/svg" xmlns:xlink="http://www.w3.org/1999/xlink" x="0px" y="0px"
	 viewBox="0 0 283.46 283.46" style="enable-background:new 0 0 283.46 283.46;" xml:space="preserve">
<style type="text/css">
	
		.st0{clip-path:url(#SVGID_00000130605765364660079940000018364790926961639061_);fill:url(#SVGID_00000129928093776334084620000001610953294422537605_);}
	
		.st1{clip-path:url(#SVGID_00000137101811391132027240000007825511857972475799_);fill:url(#SVGID_00000111154439660293768730000001447989893394986629_);}
	
		.st2{clip-path:url(#SVGID_00000072985803335997543610000015983826208515768972_);fill:url(#SVGID_00000027565869700057679340000011365742689458836125_);}
	
		.st3{clip-path:url(#SVGID_00000048466334944950974860000009466642647173623732_);fill:url(#SVGID_00000183969040612381710720000002274232144008467122_);}
	
		.st4{clip-path:url(#SVGID_00000104696056214192154380000018441085428689472937_);fill:url(#SVGID_00000147213635306596377120000002192071727542830226_);}
	
		.st5{clip-path:url(#SVGID_00000029033621017901249960000011987979642321378452_);fill:url(#SVGID_00000098187677303200333720000005031797891405256114_);}
	
		.st6{clip-path:url(#SVGID_00000167379225010097769680000007876547271992589485_);fill:url(#SVGID_00000181772753533714439390000008538699978932935862_);}
	.st7{fill:#666766;}
	.st8{font-family:'Poppins-Regular';}
	.st9{font-size:14.0793px;}
	.st10{fill:none;stroke:#000000;stroke-width:0.2;stroke-miterlimit:10;}
</style>
<g>
	<g>
		<g>
			<g>
				<defs>
					<path id="SVGID_1_" d="M91.56,84.27c0,37.69,33.59,79.17,45.66,92.85c1.76-24.44,2.84-47.52,0.41-51.8
						c-5.03-8.84-20.95-18.08-17.77-40.22c2.92-20.32,14.91-28.08,21.6-28.08c6.71,0,18.83,8.04,21.61,28.08
						c3.07,22.16-12.74,31.38-17.76,40.22c-2.44,4.28-1.36,27.37,0.41,51.81c12.07-13.63,45.64-54.95,45.64-92.86
						c0-27.56-22.35-49.89-49.9-49.89S91.56,56.71,91.56,84.27"/>
				</defs>
				<clipPath id="SVGID_00000148652783242361811380000011946240963831981978_">
					<use xlink:href="#SVGID_1_"  style="overflow:visible;"/>
				</clipPath>
				
					<linearGradient id="SVGID_00000047783019729097274280000002579528912980982445_" gradientUnits="userSpaceOnUse" x1="1416.7695" y1="539.4043" x2="1416.955" y2="539.4043" gradientTransform="matrix(-3318.6287 -2469.3708 -2469.3708 3318.6287 6034155.5 1708770.75)">
					<stop  offset="0" style="stop-color:#43B649"/>
					<stop  offset="0.1828" style="stop-color:#FEEB23"/>
					<stop  offset="0.371" style="stop-color:#F1573A"/>
					<stop  offset="0.5161" style="stop-color:#ED1F8F"/>
					<stop  offset="0.6452" style="stop-color:#633193"/>
					<stop  offset="0.7258" style="stop-color:#3E5FAC"/>
					<stop  offset="0.8387" style="stop-color:#00BDE0"/>
					<stop  offset="1" style="stop-color:#43B649"/>
				</linearGradient>
				
					<polygon style="clip-path:url(#SVGID_00000148652783242361811380000011946240963831981978_);fill:url(#SVGID_00000047783019729097274280000002579528912980982445_);" points="
					155.81,224.93 23.2,126.26 127.13,-13.42 259.74,85.25 				"/>
			</g>
			<g>
				<defs>
					<path id="SVGID_00000042729792000086971780000000873070321151391674_" d="M145.75,62.85c-0.09,0.12-0.08,0.28,0.03,0.38
						c3.99,3.8,7.98,11.15,9.25,23c1.96,18.28-6.75,27.13-11.32,34.64h0.18c5.36-7.58,17.7-16.12,15.09-34.89
						c-1.73-12.49-7.46-19.83-12.85-23.21c-0.05-0.03-0.1-0.04-0.15-0.04C145.89,62.74,145.81,62.78,145.75,62.85"/>
				</defs>
				<clipPath id="SVGID_00000139281760512750885710000000103189315394170535_">
					<use xlink:href="#SVGID_00000042729792000086971780000000873070321151391674_"  style="overflow:visible;"/>
				</clipPath>
				
					<linearGradient id="SVGID_00000107559114464967365460000006625078882784127363_" gradientUnits="userSpaceOnUse" x1="1416.7695" y1="539.4124" x2="1416.955" y2="539.4124" gradientTransform="matrix(-3318.7996 -2469.4978 -2469.4978 3318.7996 6034497 1708817)">
					<stop  offset="0" style="stop-color:#43B649"/>
					<stop  offset="0.1828" style="stop-color:#FEEB23"/>
					<stop  offset="0.371" style="stop-color:#F1573A"/>
					<stop  offset="0.5161" style="stop-color:#ED1F8F"/>
					<stop  offset="0.6452" style="stop-color:#633193"/>
					<stop  offset="0.7258" style="stop-color:#3E5FAC"/>
					<stop  offset="0.8387" style="stop-color:#00BDE0"/>
					<stop  offset="1" style="stop-color:#43B649"/>
				</linearGradient>
				
					<polygon style="clip-path:url(#SVGID_00000139281760512750885710000000103189315394170535_);fill:url(#SVGID_00000107559114464967365460000006625078882784127363_);" points="
					155.22,129.44 115.87,100.16 150.08,54.18 189.43,83.46 				"/>
			</g>
		</g>
		<g>
			<g>
				<defs>
					<path id="SVGID_00000147202642898876994240000004669244270895337369_" d="M80.96,195.17c-1.9,0.7-3.51,1.72-4.83,3.04
						c-1.32,1.32-2.33,2.94-3.01,4.84c-0.68,1.9-1.02,3.99-1.02,6.28c0,2.33,0.35,4.43,1.05,6.32c0.7,1.89,1.71,3.49,3.02,4.82
						c1.31,1.32,2.9,2.33,4.75,3.03c1.86,0.69,3.92,1.04,6.18,1.04c1.94,0,3.73-0.22,5.38-0.66c1.64-0.44,3.36-1.14,5.14-2.11
						c0.62-0.33,1.12-0.68,1.51-1.04c0.39-0.36,0.67-0.77,0.81-1.21c0.15-0.45,0.22-1.05,0.22-1.8v-5.64c0-1.02-0.18-1.78-0.53-2.29
						c-0.35-0.51-0.82-0.84-1.39-0.98c-0.57-0.15-1.28-0.22-2.11-0.22h-6.76c-0.82,0-1.46,0.21-1.94,0.64
						c-0.48,0.43-0.71,0.97-0.71,1.63c0,0.8,0.28,1.37,0.85,1.7c0.57,0.33,1.41,0.5,2.52,0.5h4.61v4.78
						c-1.24,0.67-2.47,1.18-3.68,1.54c-1.21,0.36-2.5,0.54-3.88,0.54c-2.83,0-5.05-0.93-6.63-2.79c-1.58-1.86-2.38-4.51-2.38-7.96
						c0-1.59,0.2-3.04,0.61-4.35c0.41-1.31,1-2.42,1.77-3.32c0.77-0.9,1.7-1.59,2.78-2.07c1.08-0.47,2.31-0.71,3.69-0.71
						c1.34,0,2.44,0.2,3.3,0.6c0.86,0.4,1.55,0.9,2.06,1.49c0.51,0.59,1.13,1.46,1.87,2.61c0.27,0.36,0.6,0.64,0.99,0.84
						c0.39,0.2,0.81,0.3,1.23,0.3c0.78,0,1.44-0.26,2-0.79c0.56-0.53,0.83-1.17,0.83-1.92c0-0.69-0.24-1.49-0.72-2.39
						c-0.48-0.9-1.2-1.75-2.15-2.55c-0.95-0.8-2.19-1.47-3.71-2c-1.52-0.53-3.28-0.79-5.26-0.79
						C85.01,194.11,82.86,194.46,80.96,195.17"/>
				</defs>
				<clipPath id="SVGID_00000172415941478983180260000012235401592137216190_">
					<use xlink:href="#SVGID_00000147202642898876994240000004669244270895337369_"  style="overflow:visible;"/>
				</clipPath>
				
					<linearGradient id="SVGID_00000129172082814359750690000003587311260001307568_" gradientUnits="userSpaceOnUse" x1="1416.7369" y1="539.2007" x2="1416.9224" y2="539.2007" gradientTransform="matrix(-4579.1699 -3407.3315 -3407.3315 4579.1699 8325249.5 2358744.25)">
					<stop  offset="0" style="stop-color:#43B649"/>
					<stop  offset="0.1828" style="stop-color:#FEEB23"/>
					<stop  offset="0.371" style="stop-color:#F1573A"/>
					<stop  offset="0.5161" style="stop-color:#ED1F8F"/>
					<stop  offset="0.6452" style="stop-color:#633193"/>
					<stop  offset="0.7258" style="stop-color:#3E5FAC"/>
					<stop  offset="0.8387" style="stop-color:#00BDE0"/>
					<stop  offset="1" style="stop-color:#43B649"/>
				</linearGradient>
				
					<polygon style="clip-path:url(#SVGID_00000172415941478983180260000012235401592137216190_);fill:url(#SVGID_00000129172082814359750690000003587311260001307568_);" points="
					90.16,237.97 57.53,213.69 82.09,180.67 114.73,204.95 				"/>
			</g>
			<g>
				<defs>
					<path id="SVGID_00000040545060346144753440000001642100121094645414_" d="M125.46,195c-0.54,0.6-0.8,1.5-0.8,2.72v14.59
						c0,2.51-0.48,4.39-1.44,5.63c-0.96,1.24-2.61,1.86-4.94,1.86c-1.69,0-3-0.31-3.93-0.91c-0.94-0.61-1.59-1.46-1.96-2.57
						c-0.37-1.1-0.55-2.48-0.55-4.12v-14.47c0-1.2-0.27-2.11-0.81-2.71c-0.54-0.6-1.27-0.9-2.2-0.9c-0.88,0-1.6,0.3-2.14,0.9
						c-0.54,0.6-0.81,1.5-0.81,2.71v14.14c0,2.22,0.24,4.13,0.72,5.73c0.48,1.6,1.24,2.91,2.27,3.93c1.03,1.02,2.36,1.78,3.99,2.27
						c1.63,0.49,3.58,0.73,5.84,0.73c1.9,0,3.56-0.23,4.98-0.68c1.42-0.45,2.66-1.18,3.73-2.17c1.24-1.16,2.09-2.51,2.54-4.05
						c0.45-1.54,0.67-3.46,0.67-5.76v-14.14c0-1.22-0.28-2.12-0.83-2.72c-0.56-0.59-1.28-0.89-2.18-0.89
						C126.71,194.11,125.99,194.41,125.46,195"/>
				</defs>
				<clipPath id="SVGID_00000132046391793034157570000018364558896529162139_">
					<use xlink:href="#SVGID_00000040545060346144753440000001642100121094645414_"  style="overflow:visible;"/>
				</clipPath>
				
					<linearGradient id="SVGID_00000045589339405853535540000003644887211613805715_" gradientUnits="userSpaceOnUse" x1="1416.7369" y1="539.2163" x2="1416.9224" y2="539.2163" gradientTransform="matrix(-4579.1699 -3407.3315 -3407.3315 4579.1699 8325314 2358657.25)">
					<stop  offset="0" style="stop-color:#43B649"/>
					<stop  offset="0.1828" style="stop-color:#FEEB23"/>
					<stop  offset="0.371" style="stop-color:#F1573A"/>
					<stop  offset="0.5161" style="stop-color:#ED1F8F"/>
					<stop  offset="0.6452" style="stop-color:#633193"/>
					<stop  offset="0.7258" style="stop-color:#3E5FAC"/>
					<stop  offset="0.8387" style="stop-color:#00BDE0"/>
					<stop  offset="1" style="stop-color:#43B649"/>
				</linearGradient>
				
					<polygon style="clip-path:url(#SVGID_00000132046391793034157570000018364558896529162139_);fill:url(#SVGID_00000045589339405853535540000003644887211613805715_);" points="
					121.8,236.37 91.31,213.69 114.69,182.26 145.18,204.95 				"/>
			</g>
			<g>
				<defs>
					<path id="SVGID_00000158714457745263749770000009746187446487072700_" d="M138.4,194.61c-0.91,0-1.59,0.21-2.06,0.63
						c-0.46,0.42-0.69,0.97-0.69,1.65c0,0.66,0.23,1.18,0.69,1.58c0.46,0.4,1.15,0.6,2.06,0.6h12.98l-15.11,18.08
						c-0.24,0.28-0.52,0.61-0.84,0.99c-0.32,0.38-0.57,0.7-0.75,0.94c-0.18,0.25-0.32,0.51-0.43,0.79
						c-0.11,0.28-0.16,0.59-0.16,0.92c0,0.98,0.33,1.75,0.98,2.34c0.65,0.58,1.63,0.87,2.93,0.87h19.1c0.92,0,1.61-0.21,2.07-0.62
						c0.45-0.41,0.68-0.98,0.68-1.69c0-0.68-0.23-1.21-0.68-1.59c-0.45-0.38-1.14-0.57-2.07-0.57h-15.57l14.12-16.81
						c1.1-1.28,1.83-2.21,2.19-2.79c0.36-0.57,0.54-1.34,0.54-2.31c0-2.02-1.08-3.03-3.25-3.03H138.4z"/>
				</defs>
				<clipPath id="SVGID_00000064326752216420823420000010939391141682249145_">
					<use xlink:href="#SVGID_00000158714457745263749770000009746187446487072700_"  style="overflow:visible;"/>
				</clipPath>
				
					<linearGradient id="SVGID_00000008130416585284435240000017184317714950810546_" gradientUnits="userSpaceOnUse" x1="1416.7369" y1="539.2278" x2="1416.9224" y2="539.2278" gradientTransform="matrix(-4579.1699 -3407.3315 -3407.3315 4579.1699 8325363.5 2358590.75)">
					<stop  offset="0" style="stop-color:#43B649"/>
					<stop  offset="0.1828" style="stop-color:#FEEB23"/>
					<stop  offset="0.371" style="stop-color:#F1573A"/>
					<stop  offset="0.5161" style="stop-color:#ED1F8F"/>
					<stop  offset="0.6452" style="stop-color:#633193"/>
					<stop  offset="0.7258" style="stop-color:#3E5FAC"/>
					<stop  offset="0.8387" style="stop-color:#00BDE0"/>
					<stop  offset="1" style="stop-color:#43B649"/>
				</linearGradient>
				
					<polygon style="clip-path:url(#SVGID_00000064326752216420823420000010939391141682249145_);fill:url(#SVGID_00000008130416585284435240000017184317714950810546_);" points="
					150.67,236.36 120,213.54 143.27,182.28 173.93,205.09 				"/>
			</g>
			<g>
				<defs>
					<path id="SVGID_00000180327271154364576800000015849611698391701645_" d="M163.76,194.61c-0.98,0-1.72,0.22-2.24,0.66
						c-0.51,0.44-0.77,1.04-0.77,1.81c0,0.74,0.25,1.33,0.74,1.78c0.49,0.45,1.25,0.67,2.27,0.67h6.5v21.37
						c0,1.22,0.28,2.13,0.83,2.73c0.56,0.6,1.27,0.9,2.16,0.9c0.87,0,1.58-0.3,2.13-0.89c0.55-0.59,0.82-1.51,0.82-2.74v-21.37h6.5
						c1.02,0,1.78-0.22,2.29-0.67c0.51-0.45,0.76-1.04,0.76-1.78c0-0.74-0.25-1.33-0.75-1.79c-0.5-0.45-1.27-0.68-2.3-0.68H163.76z"
						/>
				</defs>
				<clipPath id="SVGID_00000163050177706787571630000017325287546759080876_">
					<use xlink:href="#SVGID_00000180327271154364576800000015849611698391701645_"  style="overflow:visible;"/>
				</clipPath>
				
					<linearGradient id="SVGID_00000070086381150956004250000004052505395229027972_" gradientUnits="userSpaceOnUse" x1="1416.7369" y1="539.2428" x2="1416.9224" y2="539.2428" gradientTransform="matrix(-4579.1699 -3407.3315 -3407.3315 4579.1699 8325424 2358509.75)">
					<stop  offset="0" style="stop-color:#43B649"/>
					<stop  offset="0.1828" style="stop-color:#FEEB23"/>
					<stop  offset="0.371" style="stop-color:#F1573A"/>
					<stop  offset="0.5161" style="stop-color:#ED1F8F"/>
					<stop  offset="0.6452" style="stop-color:#633193"/>
					<stop  offset="0.7258" style="stop-color:#3E5FAC"/>
					<stop  offset="0.8387" style="stop-color:#00BDE0"/>
					<stop  offset="1" style="stop-color:#43B649"/>
				</linearGradient>
				
					<polygon style="clip-path:url(#SVGID_00000163050177706787571630000017325287546759080876_);fill:url(#SVGID_00000070086381150956004250000004052505395229027972_);" points="
					176.84,236.5 146.42,213.87 169.66,182.64 200.07,205.27 				"/>
			</g>
			<g>
				<defs>
					<path id="SVGID_00000070078226573773145850000009338613535736883882_" d="M206.99,194.37c-0.34,0.17-0.64,0.42-0.91,0.75
						c-0.27,0.33-0.52,0.68-0.75,1.05c-0.23,0.37-0.51,0.84-0.84,1.38l-5.56,8.93l-5.5-8.93c-0.84-1.38-1.47-2.3-1.9-2.76
						c-0.42-0.46-1.04-0.69-1.86-0.69c-0.77,0-1.43,0.25-1.96,0.74c-0.53,0.49-0.79,1.08-0.79,1.77c0,0.42,0.13,0.9,0.39,1.46
						c0.26,0.56,0.71,1.34,1.33,2.35l7.18,11.14v9.33c0,1.23,0.27,2.14,0.82,2.74c0.55,0.6,1.26,0.89,2.15,0.89
						c0.87,0,1.59-0.3,2.15-0.9c0.56-0.6,0.84-1.51,0.84-2.73v-9.33l7.36-11.3c0.62-0.92,1.05-1.64,1.3-2.17
						c0.25-0.52,0.38-1.04,0.38-1.56c0-0.64-0.25-1.21-0.75-1.7c-0.5-0.49-1.13-0.73-1.88-0.73
						C207.74,194.11,207.33,194.2,206.99,194.37"/>
				</defs>
				<clipPath id="SVGID_00000029727238561457050060000011725900751029367184_">
					<use xlink:href="#SVGID_00000070078226573773145850000009338613535736883882_"  style="overflow:visible;"/>
				</clipPath>
				
					<linearGradient id="SVGID_00000151535650768052290240000007991111770068083614_" gradientUnits="userSpaceOnUse" x1="1416.7369" y1="539.2545" x2="1416.9224" y2="539.2545" gradientTransform="matrix(-4579.1699 -3407.3315 -3407.3315 4579.1699 8325473 2358443.5)">
					<stop  offset="0" style="stop-color:#43B649"/>
					<stop  offset="0.1828" style="stop-color:#FEEB23"/>
					<stop  offset="0.371" style="stop-color:#F1573A"/>
					<stop  offset="0.5161" style="stop-color:#ED1F8F"/>
					<stop  offset="0.6452" style="stop-color:#633193"/>
					<stop  offset="0.7258" style="stop-color:#3E5FAC"/>
					<stop  offset="0.8387" style="stop-color:#00BDE0"/>
					<stop  offset="1" style="stop-color:#43B649"/>
				</linearGradient>
				
					<polygon style="clip-path:url(#SVGID_00000029727238561457050060000011725900751029367184_);fill:url(#SVGID_00000151535650768052290240000007991111770068083614_);" points="
					202.32,235.98 172.36,213.69 195.45,182.66 225.41,204.95 				"/>
			</g>
		</g>
		<g>
			<path class="st7" d="M117.24,233.65c1.05,0,1.85,0.26,2.39,0.77s0.82,1.26,0.82,2.25c0,0.53-0.12,0.99-0.37,1.41
				c-0.25,0.41-0.61,0.74-1.09,0.98c-0.48,0.24-1.07,0.37-1.77,0.38l0.02-0.64c0.38,0,0.79,0.05,1.23,0.15s0.86,0.28,1.25,0.53
				c0.4,0.25,0.72,0.59,0.97,1.02c0.25,0.43,0.38,0.96,0.38,1.6c0,0.7-0.11,1.28-0.34,1.74c-0.23,0.46-0.54,0.83-0.92,1.1
				c-0.38,0.27-0.8,0.45-1.24,0.56c-0.45,0.1-0.89,0.15-1.32,0.15h-4.39c-0.25,0-0.46-0.08-0.63-0.25
				c-0.17-0.16-0.25-0.37-0.25-0.63v-10.26c0-0.25,0.08-0.46,0.25-0.63c0.16-0.16,0.37-0.25,0.63-0.25H117.24z M116.98,235.34h-3.36
				l0.2-0.29v3.69l-0.19-0.19h3.4c0.41-0.01,0.77-0.15,1.09-0.42c0.31-0.27,0.47-0.67,0.47-1.19c0-0.53-0.15-0.92-0.44-1.19
				C117.87,235.48,117.48,235.34,116.98,235.34z M117.12,240.25h-3.41l0.12-0.14v4.05l-0.14-0.15h3.52c0.61,0,1.09-0.16,1.46-0.47
				c0.37-0.31,0.55-0.79,0.55-1.43c0-0.54-0.11-0.94-0.32-1.2c-0.22-0.26-0.49-0.44-0.81-0.52
				C117.76,240.29,117.44,240.25,117.12,240.25z"/>
			<path class="st7" d="M127.19,245.83c-0.95,0-1.77-0.2-2.47-0.59c-0.7-0.39-1.24-0.94-1.62-1.63c-0.38-0.69-0.57-1.48-0.57-2.38
				c0-1,0.2-1.87,0.61-2.58c0.41-0.72,0.94-1.26,1.59-1.65c0.65-0.38,1.34-0.57,2.08-0.57c0.56,0,1.09,0.11,1.6,0.33
				c0.5,0.22,0.95,0.53,1.35,0.93c0.39,0.39,0.71,0.86,0.94,1.39c0.23,0.53,0.35,1.11,0.36,1.74c-0.01,0.23-0.1,0.42-0.27,0.57
				c-0.17,0.15-0.37,0.22-0.6,0.22h-6.67l-0.41-1.46h6.45l-0.33,0.31v-0.43c-0.03-0.4-0.17-0.75-0.41-1.05
				c-0.24-0.3-0.54-0.53-0.88-0.7c-0.35-0.17-0.72-0.26-1.11-0.26c-0.34,0-0.67,0.05-0.99,0.16c-0.31,0.11-0.59,0.28-0.84,0.52
				c-0.25,0.24-0.44,0.56-0.58,0.95c-0.14,0.39-0.21,0.88-0.21,1.47c0,0.63,0.13,1.18,0.39,1.65c0.26,0.47,0.62,0.83,1.06,1.09
				c0.45,0.26,0.94,0.39,1.48,0.39c0.42,0,0.77-0.04,1.04-0.13c0.27-0.08,0.5-0.19,0.69-0.32c0.19-0.12,0.35-0.25,0.49-0.36
				c0.17-0.1,0.34-0.15,0.5-0.15c0.22,0,0.39,0.07,0.53,0.21c0.14,0.14,0.2,0.31,0.2,0.51c0,0.25-0.12,0.48-0.38,0.69
				c-0.31,0.3-0.74,0.56-1.28,0.79C128.36,245.71,127.78,245.83,127.19,245.83z"/>
			<path class="st7" d="M138.82,233.63c0.14,0,0.28,0.03,0.43,0.11c0.15,0.07,0.26,0.17,0.34,0.28l4.36,6.64l-0.74-0.03l4.44-6.6
				c0.18-0.26,0.42-0.39,0.7-0.39c0.23,0,0.43,0.08,0.61,0.25c0.18,0.17,0.27,0.38,0.27,0.63v10.28c0,0.25-0.08,0.46-0.25,0.63
				c-0.17,0.17-0.38,0.25-0.64,0.25c-0.26,0-0.48-0.08-0.64-0.25c-0.16-0.16-0.25-0.37-0.25-0.63v-8.7l0.55,0.12l-3.77,5.75
				c-0.08,0.1-0.19,0.19-0.32,0.27c-0.13,0.07-0.26,0.11-0.39,0.11c-0.13,0-0.25-0.03-0.39-0.11s-0.24-0.16-0.32-0.27l-3.64-5.66
				l0.41-0.69v9.18c0,0.25-0.08,0.46-0.23,0.63c-0.15,0.17-0.36,0.25-0.61,0.25c-0.24,0-0.44-0.08-0.59-0.25
				c-0.15-0.16-0.23-0.37-0.23-0.63V234.5c0-0.23,0.09-0.43,0.27-0.61C138.37,233.72,138.58,233.63,138.82,233.63z"/>
			<path class="st7" d="M158.53,236.56c0.25,0,0.46,0.08,0.62,0.25c0.16,0.16,0.24,0.37,0.24,0.63v7.38c0,1-0.19,1.82-0.57,2.45
				c-0.38,0.63-0.9,1.09-1.54,1.38c-0.65,0.29-1.38,0.44-2.19,0.44c-0.41,0-0.83-0.04-1.24-0.11s-0.75-0.17-1.01-0.3
				c-0.27-0.13-0.47-0.28-0.58-0.47c-0.11-0.19-0.13-0.39-0.05-0.61c0.08-0.27,0.22-0.46,0.41-0.56c0.19-0.1,0.39-0.11,0.6-0.03
				c0.19,0.08,0.45,0.18,0.77,0.31c0.32,0.13,0.69,0.19,1.1,0.19c0.56,0,1.03-0.09,1.41-0.27c0.38-0.18,0.68-0.47,0.88-0.86
				c0.21-0.39,0.31-0.89,0.31-1.51v-1.18l0.27,0.43c-0.18,0.37-0.43,0.68-0.73,0.93c-0.3,0.25-0.66,0.45-1.05,0.58
				c-0.4,0.14-0.85,0.21-1.34,0.21c-0.63,0-1.17-0.14-1.62-0.42c-0.45-0.28-0.8-0.67-1.04-1.17c-0.25-0.5-0.37-1.06-0.37-1.71v-5.09
				c0-0.25,0.08-0.46,0.25-0.63c0.17-0.17,0.38-0.25,0.63-0.25c0.24,0,0.44,0.08,0.61,0.25c0.16,0.16,0.25,0.37,0.25,0.63v4.63
				c0,0.76,0.16,1.31,0.5,1.66s0.82,0.52,1.48,0.52c0.43,0,0.81-0.09,1.13-0.27c0.32-0.18,0.57-0.44,0.75-0.76
				c0.18-0.33,0.27-0.71,0.27-1.14v-4.63c0-0.25,0.08-0.46,0.24-0.63C158.08,236.65,158.28,236.56,158.53,236.56z"/>
			<path class="st7" d="M172.33,245.83c-0.88,0-1.7-0.16-2.44-0.47c-0.75-0.31-1.41-0.76-1.98-1.32c-0.57-0.57-1.02-1.22-1.34-1.97
				c-0.32-0.74-0.48-1.55-0.48-2.42c0-0.87,0.16-1.68,0.48-2.42c0.32-0.74,0.77-1.4,1.34-1.96c0.57-0.57,1.23-1.01,1.98-1.32
				c0.75-0.31,1.56-0.47,2.44-0.47c0.56,0,1.1,0.06,1.62,0.19c0.52,0.13,1,0.31,1.43,0.55c0.15,0.08,0.26,0.19,0.32,0.32
				c0.07,0.13,0.1,0.26,0.1,0.4c0,0.23-0.08,0.43-0.24,0.61c-0.16,0.18-0.35,0.26-0.58,0.26c-0.08,0-0.16-0.01-0.24-0.03
				c-0.08-0.02-0.16-0.05-0.24-0.08c-0.32-0.15-0.66-0.27-1.03-0.36c-0.37-0.09-0.75-0.14-1.15-0.14c-0.82,0-1.57,0.2-2.23,0.6
				c-0.66,0.4-1.19,0.94-1.57,1.61c-0.38,0.67-0.57,1.42-0.57,2.25c0,0.82,0.19,1.58,0.57,2.26c0.38,0.68,0.91,1.22,1.57,1.61
				c0.66,0.39,1.41,0.59,2.23,0.59c0.4,0,0.82-0.05,1.27-0.15s0.82-0.22,1.13-0.38l-0.14,0.46v-3.26l0.27,0.24h-2.25
				c-0.25,0-0.46-0.08-0.63-0.24c-0.17-0.16-0.25-0.36-0.25-0.62s0.08-0.46,0.25-0.62c0.16-0.16,0.37-0.24,0.63-0.24h2.95
				c0.25,0,0.46,0.08,0.63,0.25c0.17,0.17,0.25,0.38,0.25,0.63v3.81c0,0.18-0.04,0.34-0.14,0.46c-0.09,0.13-0.19,0.23-0.31,0.31
				c-0.53,0.32-1.1,0.58-1.72,0.77C173.65,245.73,173,245.83,172.33,245.83z"/>
			<path class="st7" d="M185.23,236.63c0.24,0,0.44,0.08,0.61,0.25c0.16,0.17,0.25,0.37,0.25,0.63v4.51c0,1.19-0.33,2.12-1,2.79
				c-0.66,0.67-1.6,1-2.81,1s-2.15-0.33-2.81-1c-0.66-0.67-0.99-1.6-0.99-2.79v-4.51c0-0.25,0.08-0.46,0.25-0.63
				c0.17-0.16,0.38-0.25,0.63-0.25c0.24,0,0.44,0.08,0.61,0.25c0.16,0.17,0.25,0.37,0.25,0.63v4.51c0,0.74,0.17,1.3,0.52,1.66
				c0.35,0.37,0.86,0.55,1.54,0.55c0.69,0,1.2-0.18,1.55-0.55c0.35-0.37,0.52-0.92,0.52-1.66v-4.51c0-0.25,0.08-0.46,0.25-0.63
				C184.77,236.72,184.98,236.63,185.23,236.63z"/>
			<path class="st7" d="M192.67,245.83c-0.95,0-1.77-0.2-2.47-0.59c-0.7-0.39-1.24-0.94-1.62-1.63c-0.38-0.69-0.57-1.48-0.57-2.38
				c0-1,0.2-1.87,0.61-2.58c0.41-0.72,0.94-1.26,1.59-1.65c0.65-0.38,1.34-0.57,2.08-0.57c0.56,0,1.09,0.11,1.6,0.33
				c0.5,0.22,0.95,0.53,1.35,0.93c0.39,0.39,0.71,0.86,0.94,1.39c0.23,0.53,0.35,1.11,0.36,1.74c-0.01,0.23-0.1,0.42-0.27,0.57
				c-0.17,0.15-0.37,0.22-0.6,0.22h-6.67l-0.41-1.46h6.45l-0.33,0.31v-0.43c-0.03-0.4-0.17-0.75-0.41-1.05
				c-0.24-0.3-0.54-0.53-0.88-0.7c-0.35-0.17-0.72-0.26-1.11-0.26c-0.34,0-0.67,0.05-0.99,0.16c-0.31,0.11-0.59,0.28-0.84,0.52
				c-0.25,0.24-0.44,0.56-0.58,0.95c-0.14,0.39-0.21,0.88-0.21,1.47c0,0.63,0.13,1.18,0.39,1.65c0.26,0.47,0.62,0.83,1.06,1.09
				c0.45,0.26,0.94,0.39,1.48,0.39c0.42,0,0.77-0.04,1.04-0.13c0.27-0.08,0.5-0.19,0.69-0.32c0.19-0.12,0.35-0.25,0.49-0.36
				c0.17-0.1,0.34-0.15,0.5-0.15c0.22,0,0.39,0.07,0.53,0.21c0.14,0.14,0.2,0.31,0.2,0.51c0,0.25-0.12,0.48-0.38,0.69
				c-0.31,0.3-0.74,0.56-1.28,0.79C193.84,245.71,193.27,245.83,192.67,245.83z"/>
			<path class="st7" d="M197.92,244.25c-0.1-0.16-0.15-0.35-0.14-0.56c0.01-0.21,0.13-0.39,0.36-0.54c0.16-0.1,0.33-0.15,0.51-0.13
				c0.18,0.02,0.34,0.1,0.51,0.27c0.32,0.35,0.68,0.63,1.07,0.84c0.39,0.2,0.87,0.31,1.43,0.31c0.23-0.01,0.46-0.05,0.7-0.11
				s0.45-0.18,0.62-0.34c0.17-0.16,0.26-0.41,0.26-0.73c0-0.29-0.09-0.51-0.27-0.68c-0.18-0.16-0.42-0.31-0.72-0.42
				c-0.3-0.11-0.62-0.22-0.98-0.31c-0.37-0.1-0.73-0.22-1.1-0.34c-0.37-0.12-0.7-0.29-1-0.49s-0.55-0.46-0.73-0.78
				c-0.18-0.32-0.27-0.71-0.27-1.18c0-0.54,0.15-1,0.44-1.39c0.3-0.39,0.69-0.69,1.18-0.91c0.49-0.22,1.02-0.33,1.58-0.33
				c0.34,0,0.7,0.04,1.06,0.13c0.36,0.09,0.72,0.22,1.06,0.4c0.34,0.18,0.64,0.42,0.89,0.72c0.11,0.15,0.18,0.33,0.2,0.53
				c0.02,0.21-0.08,0.4-0.28,0.57c-0.14,0.11-0.3,0.16-0.5,0.15c-0.19-0.02-0.35-0.08-0.48-0.2c-0.22-0.27-0.5-0.49-0.84-0.64
				c-0.34-0.15-0.73-0.22-1.17-0.22c-0.22,0-0.44,0.03-0.68,0.08c-0.23,0.06-0.43,0.17-0.59,0.33c-0.16,0.16-0.24,0.39-0.24,0.7
				c0,0.29,0.09,0.51,0.28,0.69c0.19,0.17,0.44,0.31,0.75,0.43s0.65,0.22,1.01,0.31c0.35,0.09,0.71,0.2,1.05,0.33
				c0.35,0.12,0.66,0.29,0.94,0.49c0.28,0.2,0.51,0.46,0.69,0.77c0.18,0.31,0.27,0.71,0.27,1.19c0,0.56-0.16,1.04-0.49,1.43
				c-0.33,0.39-0.74,0.69-1.23,0.9c-0.5,0.21-1.02,0.31-1.57,0.31c-0.65,0-1.3-0.12-1.95-0.35
				C198.91,245.24,198.37,244.83,197.92,244.25z"/>
			<path class="st7" d="M206.53,236.74h4.03c0.23,0,0.42,0.08,0.58,0.23c0.15,0.15,0.23,0.34,0.23,0.57c0,0.23-0.08,0.42-0.23,0.57
				c-0.15,0.15-0.35,0.22-0.58,0.22h-4.03c-0.23,0-0.42-0.07-0.57-0.23c-0.15-0.15-0.23-0.35-0.23-0.58c0-0.23,0.08-0.42,0.23-0.57
				C206.12,236.81,206.31,236.74,206.53,236.74z M208.34,234.5c0.25,0,0.46,0.08,0.62,0.25c0.16,0.17,0.24,0.37,0.24,0.63v7.96
				c0,0.21,0.03,0.37,0.1,0.5c0.07,0.12,0.16,0.21,0.28,0.26c0.12,0.04,0.24,0.07,0.37,0.07c0.13,0,0.24-0.02,0.34-0.07
				c0.09-0.04,0.21-0.07,0.35-0.07c0.14,0,0.26,0.06,0.38,0.19c0.11,0.13,0.17,0.3,0.17,0.52c0,0.27-0.15,0.5-0.45,0.67
				s-0.62,0.26-0.96,0.26c-0.19,0-0.42-0.02-0.69-0.05c-0.26-0.03-0.52-0.12-0.76-0.26c-0.24-0.14-0.45-0.36-0.62-0.66
				c-0.17-0.3-0.25-0.73-0.25-1.28v-8.03c0-0.25,0.08-0.46,0.26-0.63C207.89,234.59,208.1,234.5,208.34,234.5z"/>
		</g>
	</g>
	<text transform="matrix(1 0 0 1 191.0437 47.3192)" class="st8 st9">R</text>
	<circle class="st10" cx="194.81" cy="42.45" r="7.57"/>
</g>
</svg>
