<svg width="360" height="419" viewBox="0 0 360 419" fill="none" xmlns="http://www.w3.org/2000/svg">
<path d="M371 -66.3964V295.851H-11V-66.3964C-11 -88.8092 7.19048 -107 29.6326 -107H330.343C352.785 -107 371 -88.8092 371 -66.3964Z" fill="#CE005E"/>
<g style="mix-blend-mode:screen" opacity="0.5">
<path d="M371 16.5961V243.499H50.2871L51.9298 183.16C56.6163 161.93 70.9416 143.449 89.2046 131.555C107.443 119.661 129.306 114.04 151.072 113.123C163.778 112.592 176.654 113.582 189.168 111.169C222.505 104.727 246.082 76.1384 273.066 55.5592C301.33 33.9908 335.634 20.5045 371 16.5961Z" fill="#D10069"/>
</g>
<g style="mix-blend-mode:screen" opacity="0.5">
<path d="M360.564 155.223C342.881 155.295 326.116 163.112 311.041 172.424C295.991 181.713 281.908 192.714 265.94 200.314C229.8 217.539 186.1 215.561 149.501 199.324C122.349 187.286 96.8867 167.454 67.1731 167.599C55.5293 167.647 43.0883 170.711 32.7248 165.428C21.4433 159.662 16.6602 146.055 6.99722 137.9C1.94833 133.654 -4.4292 131.097 -11 130.445V56.7654C9.60621 52.3263 32.4349 57.8029 48.0405 72.0853C57.4136 80.6982 64.5158 92.182 75.8698 97.9722C85.581 102.966 97.2007 102.966 107.902 100.771C118.604 98.5753 128.774 94.3292 139.186 91.024C160.686 84.2446 184.868 81.7838 205.16 91.5065C218.398 97.8516 228.81 108.756 241.227 116.549C252.146 123.377 264.635 127.743 277.439 129.167C292.899 130.904 308.602 128.467 324.038 130.445C339.451 132.424 355.757 140.458 360.564 155.223Z" fill="#EA0075"/>
</g>
<path d="M199.749 263.426H-11V91.7236C-2.35167 94.7635 5.7652 99.3474 12.795 105.234C23.7624 114.426 32.0484 126.513 43.2815 135.391C68.6951 155.464 104.206 155.633 134.137 168.057C172.016 183.787 200.522 222.461 199.749 263.426Z" fill="#034424"/>
<path d="M371 138.648V264.488H27.386C35.3096 252.015 44.3203 240.169 55.5534 230.615C68.6467 219.518 85.0496 211.653 102.201 211.267C120.464 210.832 138.751 218.746 156.628 214.958C165.614 213.028 173.707 208.299 181.606 203.619C193.081 196.839 204.532 190.036 216.006 183.257C237.192 170.735 258.523 158.142 281.69 149.794C310.148 139.541 340.803 136.091 371 138.648Z" fill="#006837"/>
<path d="M371 256.237H-11V295.851H371V256.237Z" fill="#37B34A"/>
<path d="M258.064 25.1125C258.064 34.3768 250.551 41.8799 241.275 41.8799C231.999 41.8799 224.486 34.3768 224.486 25.1125C224.486 15.8482 231.999 8.34512 241.275 8.34512C250.551 8.34512 258.064 15.8482 258.064 25.1125Z" fill="#FCEE21"/>
<path d="M371 233.776V267.721H-11V242.606C-4.96067 240.217 2.89047 240.362 8.2534 243.667C11.1281 238.77 17.9646 235.441 24.8978 235.513C31.8551 235.609 38.5225 239.108 41.1799 244.078C47.8231 237.419 62.4383 236.84 69.9029 242.992C73.7439 237.057 80.9428 232.256 89.4221 231.122C97.8771 230.012 107.323 233.028 111.284 238.939C118.797 232.932 133.896 234.934 138.413 242.534C142.302 238.866 148.849 237.009 154.888 237.805C160.952 238.601 166.291 242.075 168.368 246.538C173.538 237.998 189.772 235.03 199.29 240.893C201.874 236.14 208.276 232.835 214.944 232.739C221.587 232.69 228.085 235.875 230.815 240.555C237.676 232.159 256.253 232.159 263.113 240.507C272.245 233.269 290 234.62 297.103 243.113C300.726 239.204 307.152 236.96 313.336 237.419C319.545 237.877 325.27 241.014 327.879 245.405C335.054 239.084 347.833 237.033 357.641 240.652C360.612 237.057 365.613 234.572 371 233.728V233.776Z" fill="#15824B"/>
<path d="M115.802 361.715L114.425 380.774L136.311 382.366L138.123 362.752L115.802 361.715Z" fill="white"/>
<path d="M111.744 377.903C111.744 377.903 112.734 372.644 115.778 370.496C118.822 368.325 128.895 367.191 129.886 380.316L127.422 381.57L111.744 377.927V377.903Z" fill="#C87A37"/>
<path d="M126.818 375.804C125.779 375.249 124.595 374.96 123.411 374.767C119.691 374.188 114.304 374.212 111.091 376.455C108.386 378.337 107.202 381.618 105.632 384.369C103.892 387.457 101.984 390.4 99.7373 393.078C97.1525 396.094 94.2294 399.327 93.9879 403.428C93.9154 404.514 94.0845 405.672 94.785 406.468C95.4373 407.216 96.4277 407.481 97.3457 407.698C108.531 410.304 120.295 409.99 131.359 406.83C133.872 406.106 136.481 405.141 138.123 402.97C139.814 400.726 140.128 397.662 140.37 394.767C140.732 390.376 141.022 386.54 139.573 382.318C139.355 381.691 139.09 381.015 138.582 380.629C137.882 380.098 136.964 380.195 136.094 380.171C133.872 380.123 131.021 379.23 129.33 377.782C128.774 377.324 128.291 376.769 127.711 376.335C127.446 376.118 127.132 375.949 126.842 375.78L126.818 375.804Z" fill="#43270F"/>
<path d="M99.3266 401.595C101.549 401.45 103.82 401.812 105.897 402.656C109.352 404.055 112.323 406.709 115.874 407.867C121.841 409.797 128.146 407.095 133.872 404.417C135.828 403.5 137.954 402.415 138.872 400.34C140.346 397.011 141.481 401.474 141.505 403.235C141.505 403.983 141.505 404.779 141.191 405.455C141.07 405.72 140.877 405.937 140.708 406.178C136.07 412.186 128.001 415.443 121.117 417.059C118.773 417.614 116.502 417.928 114.111 418C107.806 418.193 101.332 417.059 95.7996 413.633C94.0845 412.572 92.3693 411.124 91.9103 409.049C91.4755 407.023 92.4176 404.876 93.9154 403.573C95.4131 402.27 97.394 401.739 99.3025 401.619L99.3266 401.595Z" fill="#C87A37"/>
<path d="M229.752 361.715L231.129 380.774L209.242 382.366L207.431 362.752L229.752 361.715Z" fill="white"/>
<path d="M233.81 377.903C233.81 377.903 232.82 372.644 229.776 370.496C226.732 368.325 216.659 367.191 215.668 380.316L218.132 381.57L233.81 377.927V377.903Z" fill="#C87A37"/>
<path d="M218.736 375.804C219.775 375.249 220.959 374.96 222.143 374.767C225.863 374.188 231.25 374.212 234.463 376.455C237.168 378.337 238.352 381.618 239.922 384.369C241.662 387.457 243.57 390.4 245.817 393.078C248.402 396.094 251.325 399.327 251.566 403.428C251.639 404.514 251.47 405.672 250.769 406.468C250.117 407.216 249.126 407.481 248.208 407.698C237.023 410.304 225.259 409.99 214.195 406.83C211.682 406.106 209.073 405.141 207.431 402.97C205.74 400.726 205.426 397.662 205.184 394.767C204.822 390.376 204.532 386.54 205.981 382.318C206.199 381.691 206.464 381.015 206.972 380.629C207.672 380.098 208.59 380.195 209.46 380.171C211.682 380.123 214.533 379.23 216.224 377.782C216.78 377.324 217.263 376.769 217.843 376.335C218.108 376.118 218.422 375.949 218.712 375.78L218.736 375.804Z" fill="#43270F"/>
<path d="M246.203 401.595C243.981 401.45 241.71 401.812 239.632 402.656C236.178 404.055 233.207 406.709 229.655 407.867C223.689 409.797 217.384 407.095 211.658 404.417C209.702 403.5 207.576 402.415 206.658 400.34C205.184 397.011 204.049 401.474 204.025 403.235C204.025 403.983 204.025 404.779 204.339 405.455C204.459 405.72 204.653 405.937 204.822 406.178C209.46 412.186 217.528 415.443 224.413 417.059C226.757 417.614 229.027 417.928 231.419 418C237.724 418.193 244.198 417.059 249.73 413.633C251.445 412.572 253.161 411.124 253.62 409.049C254.054 407.023 253.112 404.876 251.614 403.573C250.117 402.27 248.136 401.739 246.227 401.619L246.203 401.595Z" fill="#C87A37"/>
<path d="M154.671 118.986C155.082 119.323 155.71 119.275 156.096 119.637C156.797 120.313 156.024 121.76 156.797 122.339C157.232 122.677 157.86 122.484 158.367 122.653C158.633 122.749 158.874 122.918 159.116 123.087C160.324 123.883 161.942 124.028 163.271 123.449C163.513 122.773 163.102 122.026 162.595 121.519C162.087 121.012 161.459 120.602 161.049 119.999C159.744 117.997 161.677 115.126 160.59 113.003C160.396 112.592 160.082 112.255 159.889 111.845C159.696 111.434 159.599 110.928 159.841 110.542C158.319 110.252 156.773 110.107 155.227 110.059C155.058 110.059 154.889 110.059 154.768 110.132C154.623 110.204 154.55 110.349 154.454 110.493C153.85 111.603 153.342 112.93 153.85 114.088C154.091 114.643 154.55 115.077 154.647 115.681C154.744 116.235 154.502 116.814 154.357 117.369C154.212 117.924 154.212 118.6 154.647 118.986H154.671Z" fill="#601A13"/>
<path d="M192.405 118.986C191.994 119.323 191.366 119.275 190.98 119.637C190.279 120.313 191.052 121.76 190.279 122.339C189.844 122.677 189.216 122.484 188.709 122.653C188.443 122.749 188.202 122.918 187.96 123.087C186.752 123.883 185.134 124.028 183.805 123.449C183.563 122.773 183.974 122.026 184.481 121.519C184.989 121.012 185.617 120.602 186.027 119.999C187.332 117.997 185.399 115.126 186.486 113.003C186.68 112.592 186.994 112.255 187.187 111.845C187.38 111.434 187.477 110.928 187.235 110.542C188.757 110.252 190.303 110.107 191.849 110.059C192.018 110.059 192.188 110.059 192.308 110.132C192.453 110.204 192.526 110.349 192.622 110.493C193.226 111.603 193.734 112.93 193.226 114.088C192.985 114.643 192.526 115.077 192.429 115.681C192.332 116.235 192.574 116.814 192.719 117.369C192.864 117.924 192.864 118.6 192.429 118.986H192.405Z" fill="#601A13"/>
<path d="M119.667 156.815C118.508 157.587 117.42 158.504 116.406 159.445C103.288 171.556 99.7131 190.543 97.3457 207.503C96.7417 211.894 95.0266 220.627 98.312 224.391C101.863 228.444 108.869 225.983 112.178 223.04C120.706 215.465 122.977 205.066 127.204 195.102C130.852 186.441 133.63 177.394 135.152 168.106C135.538 165.693 135.852 163.256 136.094 160.82C136.36 157.973 136.553 158.118 134.234 156.935C131.287 155.416 127.76 153.92 124.402 154.692C122.687 155.078 121.116 155.85 119.667 156.839V156.815Z" fill="#FFAAAA"/>
<path d="M94.8334 198.528L125.103 209.867L148.632 141.254C148.632 141.254 120.247 145.307 102.829 174.692L94.8334 198.528Z" fill="white"/>
<path d="M225.839 156.815C226.998 157.587 228.085 158.504 229.1 159.445C242.217 171.556 245.792 190.543 248.16 207.503C248.764 211.894 250.479 220.627 247.194 224.391C243.642 228.444 236.637 225.983 233.327 223.04C224.8 215.465 222.529 205.066 218.301 195.102C214.654 186.441 211.876 177.394 210.354 168.106C209.967 165.693 209.653 163.256 209.412 160.82C209.146 157.973 208.953 158.118 211.272 156.935C214.219 155.416 217.746 153.92 221.104 154.692C222.819 155.078 224.389 155.85 225.839 156.839V156.815Z" fill="#FFAAAA"/>
<path d="M250.672 198.528L220.403 209.867L196.874 141.254C196.874 141.254 225.259 145.307 242.676 174.692L250.672 198.528Z" fill="white"/>
<path d="M39.8754 292.088C39.8754 291.485 40.2136 290.833 40.745 290.471C41.5905 289.892 42.6535 289.844 43.6922 289.796C57.7035 289.024 71.1591 278.24 75.9181 265.212L93.2148 267.841C92.1277 270.809 91.0406 273.752 89.9052 276.696C88.335 280.773 86.8614 285.043 91.2822 287.938C92.1035 288.469 93.1665 289.024 93.1906 289.989C93.2389 291.05 92.0311 291.702 90.9923 291.895C89.9535 292.112 88.8665 292.136 87.8035 292.015C85.7018 291.75 83.7451 290.857 81.7159 290.302C77.9957 289.289 75.2176 291.147 71.8355 292.064C67.7529 293.149 63.5254 293.897 59.2979 294.283C53.3793 294.838 47.3883 294.573 41.5422 293.559C41.1074 293.487 40.6484 293.391 40.3102 293.101C40.0203 292.836 39.8995 292.474 39.8995 292.112L39.8754 292.088Z" fill="#FFAAAA"/>
<path d="M86.5473 283.113H73.14C72.0287 282.558 76.4737 262.461 76.8602 260.628C78.0681 254.669 87.6102 230.133 89.7844 224.463C91.3305 220.434 93.3113 216.405 96.3552 213.438C103.216 206.731 115.802 209.891 114.135 219.638C112.396 229.699 105.269 242.075 101.38 251.219C100.534 253.221 91.0889 274.042 86.5473 283.113Z" fill="#FFAAAA"/>
<path d="M221.587 241.086C221.587 241.086 192.767 238.915 172.572 244.898C152.376 238.891 123.556 241.086 123.556 241.086L116.261 254.331C118.942 312.764 155.444 288.734 167.788 286.756C169.31 286.515 170.929 285.863 172.596 284.922C174.238 285.863 175.881 286.515 177.403 286.756C189.723 288.758 226.249 312.764 228.931 254.331L221.635 241.086H221.587Z" fill="#0A5077"/>
<path d="M214.557 251.629H130.586C130.586 251.629 134.331 223.643 132.615 206.369C130.924 189.119 122.083 155.15 126.165 150.18C127.518 148.516 135.973 144.824 144.67 141.543C148.68 140.047 152.738 138.624 156.193 137.538C160.275 136.236 163.488 135.415 164.817 135.415H180.326C181.631 135.415 184.868 136.26 188.95 137.538C199.918 140.988 216.997 147.744 218.978 150.156C223.06 155.126 214.219 189.095 212.528 206.345C210.837 223.595 214.557 251.605 214.557 251.605V251.629Z" fill="#D41834"/>
<path d="M110.584 366.081C110.584 366.081 102.443 270.64 113.966 249.868C125.489 229.096 152.642 240.386 149.26 279.374C145.878 318.361 141.795 366.081 141.795 366.081H110.584Z" fill="#0071BC"/>
<path d="M182.935 137.538L182.766 134.981L182.114 125.669H164.141L163.899 129.432L163.344 137.538H182.935Z" fill="#FFAAAA"/>
<g style="mix-blend-mode:multiply" opacity="0.5">
<path d="M182.766 134.981C175.93 136.815 168.296 132.569 163.899 129.432L164.165 125.669H182.138L182.766 134.981Z" fill="#BE5E66"/>
</g>
<path d="M188.153 115.126C188.153 117.707 187.597 120.144 186.631 122.291C184.24 127.599 179.287 131.242 173.538 131.242C165.469 131.242 158.923 124.028 158.923 115.126C158.923 114.595 158.923 114.064 158.995 113.533C159.72 105.379 165.953 99.0096 173.538 99.0096C181.606 99.0096 188.153 106.223 188.153 115.126Z" fill="#FFAAAA"/>
<g style="mix-blend-mode:multiply" opacity="0.5">
<path d="M188.153 115.126C188.153 117.707 187.598 120.144 186.631 122.291C176.123 121.422 165.276 116.718 159.019 113.533C159.744 105.379 165.977 99.0096 173.562 99.0096C181.631 99.0096 188.177 106.223 188.177 115.126H188.153Z" fill="#BE5E66"/>
</g>
<path d="M188.95 137.563C187.259 145.042 180.568 150.615 172.572 150.615C164.576 150.615 157.884 145.042 156.193 137.563C160.276 136.26 163.489 135.439 164.817 135.439H180.326C181.631 135.439 184.868 136.284 188.95 137.563Z" fill="#FFAAAA"/>
<path d="M214.799 106.802C214.799 109.335 196.342 111.386 173.562 111.386C167.112 111.386 161 111.217 155.541 110.928C141.795 110.204 132.301 108.636 132.301 106.802C132.301 105.234 139.259 103.883 149.888 103.039C156.58 102.508 164.745 102.194 173.538 102.194C196.318 102.194 214.775 104.269 214.775 106.802H214.799Z" fill="#C87A37"/>
<g style="mix-blend-mode:multiply" opacity="0.5">
<path d="M214.799 106.802C214.799 109.335 196.342 111.386 173.562 111.386C167.112 111.386 161 111.217 155.541 110.928C151.192 109.335 148.656 107.478 148.656 105.451C148.656 104.631 149.091 103.811 149.888 103.063C156.579 102.532 164.745 102.218 173.538 102.218C196.318 102.218 214.775 104.293 214.775 106.826L214.799 106.802Z" fill="#C87A37"/>
</g>
<path d="M194.893 111.724H152.207C152.207 111.724 153.367 109.456 154.091 106.392C154.212 105.885 154.309 105.379 154.405 104.848C154.695 103.207 154.792 101.446 154.526 99.7093C153.681 93.9432 163.416 85.3786 167.281 85.0891C170.035 84.8961 172.403 86.1747 173.562 86.9226C174.722 86.1747 177.113 84.8961 179.843 85.0891C183.708 85.3786 193.444 93.9191 192.598 99.7093C192.357 101.422 192.453 103.159 192.719 104.776C192.816 105.306 192.912 105.837 193.033 106.32C193.758 109.432 194.917 111.724 194.917 111.724H194.893Z" fill="#C87A37"/>
<path d="M214.775 108.395V106.971C214.775 106.971 214.605 107.381 213.687 107.864C209.46 109.89 193.081 111.41 173.514 111.41C153.946 111.41 137.761 109.914 133.413 107.888C132.446 107.381 132.301 107.092 132.277 106.971V108.322V108.37C132.277 108.395 132.277 108.443 132.277 108.467C132.785 110.952 151.047 112.954 173.514 112.954C195.98 112.954 214.219 110.952 214.75 108.467V108.395H214.775Z" fill="#C87A37"/>
<g style="mix-blend-mode:multiply" opacity="0.5">
<path d="M193.009 106.32C186.921 106.609 180.06 106.802 172.813 106.802C166.146 106.802 159.817 106.657 154.091 106.392C154.212 105.885 154.309 105.379 154.405 104.848C160.034 105.089 166.267 105.234 172.813 105.234C179.94 105.234 186.68 105.065 192.695 104.776C192.791 105.306 192.888 105.837 193.009 106.32Z" fill="#C87A37"/>
</g>
<path d="M272.317 280.918C281.086 284.15 290.967 284.778 300.195 282.727C304.833 281.69 309.423 279.904 312.902 276.913C318.869 271.774 320.898 263.668 319.883 256.261C318.869 248.855 315.172 242.027 311.162 235.537C307.49 229.626 303.529 223.884 299.253 218.335C295.218 213.124 290.918 208.034 287.585 202.412C284.758 197.636 282.681 192.545 280.627 187.455C278.888 183.136 277.125 178.818 275.385 174.499C273.187 174.62 267.534 174.62 266.471 176.839C266.036 177.732 266.133 178.769 266.302 179.734C267.003 183.763 268.718 187.575 270.409 191.339C273.356 197.877 276.303 204.439 280.12 210.567C289.735 225.983 304.495 238.77 307.321 257.081C307.587 258.891 307.78 260.724 307.563 262.534C307.128 266.394 304.954 270.061 301.668 272.522C294.276 277.998 281.908 276.527 273.356 274.91C272.8 276.768 272.897 279.036 272.342 280.893L272.317 280.918Z" fill="#C87A37"/>
<g style="mix-blend-mode:multiply" opacity="0.5">
<path d="M272.317 280.918C281.086 284.15 290.967 284.778 300.195 282.727C304.833 281.69 309.423 279.904 312.902 276.913C318.869 271.774 320.898 263.668 319.883 256.261C318.869 248.855 315.172 242.027 311.162 235.537C307.49 229.626 303.529 223.884 299.253 218.335C295.218 213.124 290.918 208.034 287.585 202.412C284.758 197.636 282.681 192.545 280.627 187.455C278.888 183.136 277.125 178.818 275.385 174.499C273.187 174.62 267.534 174.62 266.471 176.839C266.036 177.732 266.133 178.769 266.302 179.734C267.003 183.763 268.718 187.575 270.409 191.339C273.356 197.877 276.303 204.439 280.12 210.567C289.735 225.983 304.495 238.77 307.321 257.081C307.587 258.891 307.78 260.724 307.563 262.534C307.128 266.394 304.954 270.061 301.668 272.522C294.276 277.998 281.908 276.527 273.356 274.91C272.8 276.768 272.897 279.036 272.342 280.893L272.317 280.918Z" fill="#C87A37"/>
</g>
<path d="M271.182 280.58C278.719 283.861 287.198 284.561 295.073 282.558C299.059 281.545 302.949 279.808 305.944 276.816C311.041 271.726 312.708 263.619 311.79 256.213C310.872 248.806 307.659 241.955 304.181 235.441C301.016 229.506 297.562 223.74 293.866 218.167C290.387 212.931 286.643 207.817 283.768 202.171C281.328 197.394 279.516 192.256 277.704 187.165C276.182 182.847 274.636 178.504 273.114 174.185C271.23 174.282 266.399 174.258 265.481 176.477C265.118 177.37 265.215 178.407 265.36 179.372C265.988 183.401 267.486 187.237 268.959 191.001C271.52 197.563 274.105 204.125 277.414 210.277C285.749 225.742 298.504 238.625 301.016 256.961C301.258 258.77 301.427 260.604 301.258 262.413C300.92 266.273 299.084 269.94 296.257 272.353C289.952 277.781 279.347 276.213 272.027 274.548C271.568 276.382 271.665 278.674 271.182 280.532V280.58Z" fill="#C87A37"/>
<path d="M216.707 250.616C216.707 250.616 206.464 251.532 204.314 259.06C202.164 266.587 195.062 284.488 227.819 284.488L217.915 266.587L217.867 251.291L216.731 250.616H216.707Z" fill="#43270F"/>
<path d="M288.72 250.616C288.72 250.616 298.963 251.532 301.113 259.06C303.263 266.587 310.365 284.488 277.608 284.488L287.512 266.587L287.561 251.291L288.696 250.616H288.72Z" fill="#43270F"/>
<path d="M288.599 283.306C288.599 283.306 288.503 283.451 288.479 283.523C287.512 285.115 286.353 286.539 284.927 287.6C282.101 289.699 278.574 290.037 275.24 290.303C270.554 290.689 265.891 291.075 261.229 291.461H244.246C239.56 291.075 234.898 290.689 230.235 290.303C226.877 290.037 223.375 289.699 220.548 287.6C219.147 286.539 217.963 285.115 216.997 283.523C216.973 283.451 216.925 283.403 216.876 283.306C211.658 274.548 212.963 262.751 214.75 252.304C215.741 246.563 216.828 240.821 217.843 235.079C218.253 232.763 218.664 230.471 219.026 228.155C220.427 219.662 221.563 211.17 221.973 202.581C222.094 199.952 222.167 197.298 222.143 194.644H283.357C283.309 200.772 283.695 206.852 284.324 212.907C284.879 217.998 285.628 223.064 286.449 228.131C286.812 230.447 287.222 232.739 287.633 235.055C288.672 240.797 289.735 246.538 290.725 252.28C292.537 262.751 293.817 274.524 288.599 283.282V283.306Z" fill="#43270F"/>
<g style="mix-blend-mode:multiply" opacity="0.5">
<path d="M284.299 212.931C259.224 210.736 234.608 205.549 221.925 202.581C222.046 199.952 222.118 197.298 222.094 194.644H283.309C283.261 200.772 283.647 206.852 284.275 212.907L284.299 212.931Z" fill="#43270F"/>
</g>
<path d="M285.193 280.121C284.323 281.545 283.261 282.848 281.956 283.813C279.371 285.719 276.207 286.008 273.139 286.274C268.887 286.611 264.659 286.973 260.408 287.311H244.971C241.927 287.046 238.859 286.804 235.791 286.563C234.608 286.467 233.424 286.37 232.24 286.274C229.196 286.008 226.008 285.719 223.423 283.813C222.142 282.848 221.08 281.545 220.186 280.121C215.33 272.136 216.514 261.352 218.157 251.774C218.157 251.774 218.157 251.75 218.157 251.725H287.174V251.774C288.841 261.352 290 272.16 285.145 280.121H285.193Z" fill="#C87A37"/>
<g style="mix-blend-mode:multiply" opacity="0.5">
<path d="M285.193 280.121C284.323 281.545 283.261 282.848 281.956 283.813C279.371 285.719 276.207 286.008 273.139 286.274C268.887 286.611 264.659 286.973 260.408 287.311H244.971C241.927 287.046 238.859 286.804 235.791 286.563C245.841 278.216 252.943 265.743 257.944 251.725H287.198V251.774C288.865 261.352 290.025 272.16 285.169 280.121H285.193Z" fill="#C87A37"/>
</g>
<path d="M236.709 213.945V195.995C236.709 194.234 235.26 192.786 233.496 192.786C231.733 192.786 230.283 194.234 230.283 195.995V213.945H236.733H236.709Z" fill="#C87A37"/>
<path d="M275.168 213.945V195.995C275.168 194.234 273.718 192.786 271.955 192.786C270.191 192.786 268.742 194.234 268.742 195.995V213.945H275.192H275.168Z" fill="#C87A37"/>
<path d="M232.892 244.029V235.224C232.892 233.318 231.322 231.749 229.414 231.749C227.505 231.749 225.935 233.318 225.935 235.224V244.029H232.892Z" fill="#C87A37"/>
<path d="M279.468 244.029V235.224C279.468 233.318 277.898 231.749 275.989 231.749C274.081 231.749 272.51 233.318 272.51 235.224V244.029H279.468Z" fill="#C87A37"/>
<path d="M287.609 235.079C287.174 235.248 286.739 235.344 286.256 235.344H219.147C218.664 235.344 218.205 235.248 217.794 235.079C218.205 232.763 218.616 230.471 218.978 228.155C219.026 228.155 219.099 228.155 219.147 228.155H286.256C286.256 228.155 286.377 228.155 286.425 228.155C286.788 230.471 287.198 232.763 287.609 235.079Z" fill="#C87A37"/>
<path d="M288.599 283.62L288.479 283.837C287.512 285.429 286.329 286.853 284.927 287.89C282.101 289.989 278.574 290.327 275.216 290.592C270.554 290.978 265.867 291.364 261.205 291.75H244.222C239.536 291.364 234.873 290.978 230.211 290.592C226.853 290.327 223.35 289.989 220.5 287.89C219.099 286.853 217.915 285.405 216.949 283.837L216.828 283.62H288.623H288.599Z" fill="#43270F"/>
<path d="M287.005 182.991V196.936C287.005 198.842 285.459 200.386 283.55 200.386H221.853C219.944 200.386 218.398 198.842 218.398 196.936V182.991C218.398 173.413 226.249 165.573 235.816 165.573H269.563C274.25 165.573 278.526 167.454 281.666 170.47C284.952 173.655 287.005 178.07 287.005 182.967V182.991Z" fill="#C87A37"/>
<g style="mix-blend-mode:multiply" opacity="0.5">
<path d="M287.005 182.991V196.936C287.005 198.842 285.459 200.386 283.55 200.386H268.114C269.273 186.803 269.418 174.475 269.273 165.573H269.563C274.25 165.573 278.526 167.454 281.666 170.47C284.952 173.655 287.005 178.07 287.005 182.967V182.991Z" fill="#C87A37"/>
</g>
<g style="mix-blend-mode:multiply" opacity="0.5">
<path d="M281.69 170.494C276.134 173.992 266.809 178.576 256.349 178.432C239.584 178.19 236.009 165.934 236.009 165.934L236.057 165.597H269.563C274.25 165.597 278.526 167.478 281.666 170.494H281.69Z" fill="#C87A37"/>
</g>
<path d="M267.148 172.062C263.645 172.497 260.045 171.411 256.543 171.942C253.668 172.376 250.721 173.872 248.039 172.738C246.034 171.893 244.875 169.843 243.353 168.299C242.048 166.996 240.43 166.007 238.666 165.476C241.468 162.677 244.585 160.096 248.208 158.48C251.832 156.863 256.035 156.284 259.828 157.49C261.157 157.925 262.389 158.552 263.572 159.252C264.925 160.072 266.181 160.989 267.389 161.978C268.79 163.16 270.167 164.487 270.795 166.224C271.423 167.961 271.085 170.132 269.612 171.218C268.911 171.725 268.017 171.942 267.148 172.062Z" fill="#FFAAAA"/>
<path d="M234.535 366.081C234.535 366.081 242.676 270.64 231.153 249.868C219.63 229.096 192.477 240.386 195.859 279.374C199.241 318.361 203.324 366.081 203.324 366.081H234.535Z" fill="#0071BC"/>
</svg>
