<svg width="159" height="177" viewBox="0 0 159 177" fill="none" xmlns="http://www.w3.org/2000/svg">
<g clip-path="url(#clip0_993_30)">
<mask id="mask0_993_30" style="mask-type:luminance" maskUnits="userSpaceOnUse" x="45" y="32" width="69" height="97">
<path d="M45.9561 65.871C45.9561 91.2866 68.5355 119.249 76.6424 128.476C77.8258 111.996 78.5517 96.4345 76.9194 93.5512C73.5415 87.5951 62.8414 81.3569 64.9772 66.4308C66.9368 52.7338 74.9976 47.4975 79.5 47.4975C84.0025 47.4975 92.1556 52.9191 94.027 66.4308C96.0915 81.3695 85.4627 87.5908 82.0848 93.5512C80.4441 96.4387 81.1659 112.005 82.3618 128.484C90.4771 119.295 113.04 91.4339 113.04 65.871C113.04 47.2913 98.0176 32.2305 79.4958 32.2305C60.9741 32.2305 45.9519 47.2913 45.9519 65.871" fill="white"/>
</mask>
<g mask="url(#mask0_993_30)">
<mask id="mask1_993_30" style="mask-type:luminance" maskUnits="userSpaceOnUse" x="0" y="-1" width="159" height="162">
<path d="M69.8594 -0.00472576L0.00109863 94.1823L89.1405 160.711L158.999 66.5245L69.8594 -0.00472576Z" fill="white"/>
</mask>
<g mask="url(#mask1_993_30)">
<path d="M112.78 160.718L159 98.4086V99.5072L113.598 160.718H112.78Z" fill="#F37634"/>
<path d="M111.961 160.719L159 97.3058V98.4086L112.78 160.719H111.961Z" fill="#F37534"/>
<path d="M111.143 160.719L159 96.203V97.3058L111.961 160.719H111.143Z" fill="#F37434"/>
<path d="M110.329 160.719L159 95.1044V96.203L111.143 160.719H110.329Z" fill="#F37335"/>
<path d="M109.511 160.718L159 94.0015V95.1043L110.329 160.718H109.511Z" fill="#F37235"/>
<path d="M108.693 160.719L159 92.8987V94.0015L109.511 160.719H108.693Z" fill="#F37135"/>
<path d="M107.874 160.719L159 91.7959V92.8987L108.693 160.719H107.874Z" fill="#F37035"/>
<path d="M107.06 160.719L159 90.6973V91.7959L107.874 160.719H107.06Z" fill="#F26F35"/>
<path d="M106.242 160.718L159 89.5944V90.6972L107.06 160.718H106.242Z" fill="#F26E35"/>
<path d="M105.424 160.719L159 88.4916V89.5944L106.242 160.719H105.424Z" fill="#F26D36"/>
<path d="M104.605 160.719L159 87.3888V88.4916L105.424 160.719H104.605Z" fill="#F26C36"/>
<path d="M103.791 160.719L159 86.2902V87.3888L104.605 160.719H103.791Z" fill="#F26B36"/>
<path d="M102.973 160.718L159 85.1873V86.2901L103.791 160.718H102.973Z" fill="#F26A36"/>
<path d="M102.155 160.719L159 84.0845V85.1873L102.973 160.719H102.155Z" fill="#F26936"/>
<path d="M101.337 160.719L159 82.9817V84.0845L102.155 160.719H101.337Z" fill="#F26836"/>
<path d="M100.523 160.719L159 81.8831V82.9817L101.337 160.719H100.523Z" fill="#F26736"/>
<path d="M99.7044 160.718L159 80.7802V81.883L100.523 160.718H99.7044Z" fill="#F26637"/>
<path d="M98.8862 160.719L159 79.6774V80.7802L99.7044 160.719H98.8862Z" fill="#F16537"/>
<path d="M98.0679 160.719L159 78.5787V79.6774L98.8862 160.719H98.0679Z" fill="#F16437"/>
<path d="M97.2538 160.719L159 77.476V78.5788L98.0679 160.719H97.2538Z" fill="#F16337"/>
<path d="M96.4356 160.718L159 76.373V77.4759L97.2539 160.718H96.4356Z" fill="#F16237"/>
<path d="M95.6174 160.719L159 75.2703V76.3731L96.4356 160.719H95.6174Z" fill="#F16137"/>
<path d="M94.7991 160.719L159 74.1716V75.2703L95.6173 160.719H94.7991Z" fill="#F16038"/>
<path d="M93.985 160.719L159 73.0688V74.1717L94.7991 160.719H93.985Z" fill="#F15F38"/>
<path d="M93.1668 160.719L159 71.9659V73.0688L93.9851 160.719H93.1668Z" fill="#F15E38"/>
<path d="M92.3486 160.719L159 70.8632V71.966L93.1668 160.719H92.3486Z" fill="#F15D38"/>
<path d="M91.5303 160.719L159 69.7645V70.8631L92.3486 160.719H91.5303Z" fill="#F15C38"/>
<path d="M90.7162 160.719L159 68.6617V69.7646L91.5303 160.719H90.7162Z" fill="#F05B38"/>
<path d="M89.898 160.719L159 67.5588V68.6617L90.7163 160.719H89.898Z" fill="#F05A39"/>
<path d="M89.0798 160.719L159 66.4561V67.5589L89.898 160.719H89.0798Z" fill="#F05939"/>
<path d="M88.2615 160.719L159 65.3574V66.456L89.0798 160.719H88.2615Z" fill="#F05839"/>
<path d="M87.4475 160.718L159 64.2545V65.3574L88.2616 160.718H87.4475Z" fill="#F05739"/>
<path d="M86.3481 160.719L159 62.7729V64.2546L87.4475 160.719H86.3481Z" fill="#F05739"/>
<path d="M85.2487 160.718L159 61.2954V62.7729L86.3481 160.718H85.2487Z" fill="#F0563A"/>
<path d="M84.1535 160.719L159 59.8138V61.2955L85.2487 160.719H84.1535Z" fill="#F0563B"/>
<path d="M83.0541 160.718L159 58.3363V59.8138L84.1535 160.718H83.0541Z" fill="#F0553C"/>
<path d="M81.9589 160.719L159 56.8547V58.3364L83.0541 160.719H81.9589Z" fill="#F0543D"/>
<path d="M80.8596 160.719L159 55.3772V56.8547L81.959 160.719H80.8596Z" fill="#F0543E"/>
<path d="M79.7601 160.718L159 53.8955V55.3772L80.8595 160.718H79.7601Z" fill="#F0533F"/>
<path d="M78.665 160.719L159 52.4181V53.8955L79.7602 160.719H78.665Z" fill="#F05240"/>
<path d="M77.5656 160.718L159 50.9364V52.4181L78.6649 160.718H77.5656Z" fill="#F05241"/>
<path d="M76.4704 160.718L159 49.4547V50.9364L77.5656 160.718H76.4704Z" fill="#F05142"/>
<path d="M75.371 160.719L159 47.9773V49.4547L76.4704 160.719H75.371Z" fill="#F05043"/>
<path d="M74.2716 160.718L159 46.4956V47.9773L75.371 160.718H74.2716Z" fill="#EF4F44"/>
<path d="M73.1764 160.719L159 45.0182V46.4956L74.2716 160.719H73.1764Z" fill="#EF4F45"/>
<path d="M72.077 160.719L159 43.5365V45.0182L73.1764 160.719H72.077Z" fill="#EF4E46"/>
<path d="M70.9818 160.719L159 42.0591V43.5365L72.077 160.719H70.9818Z" fill="#EF4D47"/>
<path d="M69.8824 160.719L159 40.5774V42.0591L70.9818 160.719H69.8824Z" fill="#EF4D48"/>
<path d="M68.7831 160.719L159 39.1V40.5774L69.8825 160.719H68.7831Z" fill="#EF4C49"/>
<path d="M67.6879 160.719L159 37.6183V39.0999L68.7831 160.719H67.6879Z" fill="#EF4B4A"/>
<path d="M66.5885 160.718L159 36.1366V37.6183L67.6879 160.718H66.5885Z" fill="#EF4B4B"/>
<path d="M65.4933 160.719L159 34.6592V36.1366L66.5885 160.719H65.4933Z" fill="#EF4A4C"/>
<path d="M64.3939 160.719L159 33.1775V34.6592L65.4933 160.719H64.3939Z" fill="#EF494D"/>
<path d="M63.2987 160.719L159 31.7001V33.1775L64.3939 160.719H63.2987Z" fill="#EF494E"/>
<path d="M62.1993 160.719L159 30.2184V31.7L63.2987 160.719H62.1993Z" fill="#EF484F"/>
<path d="M61.1 160.719L159 28.741V30.2184L62.1994 160.719H61.1Z" fill="#EF4750"/>
<path d="M60.0048 160.719L159 27.2593V28.7409L61.1 160.719H60.0048Z" fill="#EF4651"/>
<path d="M58.9053 160.719L159 25.7819V27.2593L60.0047 160.719H58.9053Z" fill="#EF4652"/>
<path d="M57.8102 160.719L159 24.3002V25.7818L58.9054 160.719H57.8102Z" fill="#EF4553"/>
<path d="M56.7108 160.719L159 22.8185V24.3001L57.8101 160.719H56.7108Z" fill="#EF4454"/>
<path d="M55.6114 160.719L159 21.3411V22.8185L56.7108 160.719H55.6114Z" fill="#EF4455"/>
<path d="M54.5162 160.719L159 19.8594V21.341L55.6114 160.719H54.5162Z" fill="#EF4356"/>
<path d="M53.4168 160.719L159 18.382V19.8594L54.5162 160.719H53.4168Z" fill="#EF4257"/>
<path d="M52.3217 160.719L159 16.9003V18.3819L53.4168 160.719H52.3217Z" fill="#EF4258"/>
<path d="M51.2222 160.718L159 15.4227V16.9002L52.3216 160.718H51.2222Z" fill="#EE4159"/>
<path d="M50.1229 160.719L159 13.9412V15.4228L51.2223 160.719H50.1229Z" fill="#EE405A"/>
<path d="M49.0276 160.719L159 12.4636V13.9411L50.1228 160.719H49.0276Z" fill="#EE405B"/>
<path d="M47.9283 160.719L159 10.9821V12.4637L49.0277 160.719H47.9283Z" fill="#EE3F5C"/>
<path d="M46.8331 160.719L159 9.50037V10.982L47.9283 160.719H46.8331Z" fill="#EE3E5D"/>
<path d="M45.7337 160.718L159 8.02283V9.50028L46.8331 160.718H45.7337Z" fill="#EE3E5E"/>
<path d="M44.6343 160.719L159 6.54126V8.02292L45.7337 160.719H44.6343Z" fill="#EE3D5F"/>
<path d="M43.5391 160.718L159 5.06372V6.54118L44.6343 160.718H43.5391Z" fill="#EE3C60"/>
<path d="M42.4397 160.719L159 3.58215V5.06382L43.5391 160.719H42.4397Z" fill="#EE3B61"/>
<path d="M41.3445 160.719L159 2.10461V3.58207L42.4397 160.719H41.3445Z" fill="#EE3B62"/>
<path d="M40.2451 160.718L159 0.622925V2.10459L41.3445 160.718H40.2451Z" fill="#EE3A63"/>
<path d="M39.15 160.719L158.362 0H159V0.622973L40.2452 160.719H39.15Z" fill="#EE3964"/>
<path d="M38.0505 160.719L157.267 0H158.362L39.1499 160.719H38.0505Z" fill="#EE3965"/>
<path d="M36.9512 160.719L156.168 0H157.267L38.0506 160.719H36.9512Z" fill="#EE3866"/>
<path d="M35.856 160.719L155.068 0H156.168L36.9511 160.719H35.856Z" fill="#EE3767"/>
<path d="M34.7566 160.719L153.973 0H155.068L35.856 160.719H34.7566Z" fill="#EE3768"/>
<path d="M33.6614 160.719L152.874 0H153.973L34.7566 160.719H33.6614Z" fill="#EE3669"/>
<path d="M32.562 160.719L151.778 0H152.874L33.6614 160.719H32.562Z" fill="#EE356A"/>
<path d="M31.4626 160.719L150.679 0H151.778L32.562 160.719H31.4626Z" fill="#EE356C"/>
<path d="M30.3674 160.719L149.58 0H150.679L31.4626 160.719H30.3674Z" fill="#EE346D"/>
<path d="M29.2681 160.719L148.484 0H149.58L30.3675 160.719H29.2681Z" fill="#EE336E"/>
<path d="M28.1729 160.719L147.385 0H148.484L29.268 160.719H28.1729Z" fill="#ED326F"/>
<path d="M27.0735 160.719L146.29 0H147.385L28.1729 160.719H27.0735Z" fill="#ED3270"/>
<path d="M25.9741 160.719L145.191 0H146.29L27.0734 160.719H25.9741Z" fill="#ED3171"/>
<path d="M24.8789 160.719L144.091 0H145.191L25.9741 160.719H24.8789Z" fill="#ED3072"/>
<path d="M23.7795 160.719L142.996 0H144.091L24.8789 160.719H23.7795Z" fill="#ED3073"/>
<path d="M22.6843 160.719L141.897 0H142.996L23.7795 160.719H22.6843Z" fill="#ED2F74"/>
<path d="M21.5849 160.719L140.801 0H141.897L22.6843 160.719H21.5849Z" fill="#ED2E75"/>
<path d="M20.4855 160.719L139.702 0H140.801L21.5849 160.719H20.4855Z" fill="#ED2E76"/>
<path d="M19.3903 160.719L138.607 0H139.702L20.4855 160.719H19.3903Z" fill="#ED2D77"/>
<path d="M18.291 160.719L137.507 0H138.607L19.3903 160.719H18.291Z" fill="#ED2C78"/>
<path d="M17.1957 160.719L136.408 0H137.507L18.2909 160.719H17.1957Z" fill="#ED2C79"/>
<path d="M16.0964 160.719L135.313 0H136.408L17.1958 160.719H16.0964Z" fill="#ED2B7A"/>
<path d="M15.0012 160.719L134.213 0H135.313L16.0964 160.719H15.0012Z" fill="#ED2A7B"/>
<path d="M13.9018 160.719L133.118 0H134.213L15.0012 160.719H13.9018Z" fill="#ED297C"/>
<path d="M12.8024 160.719L132.019 0H133.118L13.9018 160.719H12.8024Z" fill="#ED297D"/>
<path d="M11.7072 160.719L130.919 0H132.019L12.8024 160.719H11.7072Z" fill="#ED287E"/>
<path d="M10.6078 160.719L129.824 0H130.919L11.7072 160.719H10.6078Z" fill="#ED277F"/>
<path d="M9.51263 160.719L128.725 0H129.824L10.6078 160.719H9.51263Z" fill="#ED2780"/>
<path d="M8.41327 160.719L127.63 0H128.725L9.51266 160.719H8.41327Z" fill="#ED2681"/>
<path d="M7.31384 160.719L126.53 0H127.63L8.41323 160.719H7.31384Z" fill="#ED2582"/>
<path d="M6.21869 160.719L125.431 0H126.53L7.31388 160.719H6.21869Z" fill="#ED2583"/>
<path d="M5.11926 160.719L124.336 0H125.431L6.21865 160.719H5.11926Z" fill="#EC2484"/>
<path d="M4.02411 160.719L123.236 0H124.336L5.1193 160.719H4.02411Z" fill="#EC2385"/>
<path d="M2.92468 160.719L122.141 0H123.236L4.02407 160.719H2.92468Z" fill="#EC2386"/>
<path d="M1.82532 160.719L121.042 0H122.141L2.92471 160.719H1.82532Z" fill="#EC2287"/>
<path d="M0.730103 160.719L119.942 0H121.042L1.82529 160.719H0.730103Z" fill="#EC2188"/>
<path d="M0 160.222L118.847 0H119.942L0.730128 160.719H0V160.222Z" fill="#EC2089"/>
<path d="M0 158.74L117.748 0H118.847L0 160.222V158.74Z" fill="#EC208A"/>
<path d="M0 157.258L116.653 0H117.748L0 158.74V157.258Z" fill="#EC1F8B"/>
<path d="M0 155.781L115.553 0H116.653L0 157.258V155.781Z" fill="#EC1E8C"/>
<path d="M0 154.299L114.458 0H115.553L0 155.781V154.299Z" fill="#EC1E8D"/>
<path d="M0 152.822L113.359 0H114.458L0 154.299V152.822Z" fill="#EC1D8E"/>
<path d="M0 152.005L112.754 0H113.359L0 152.822V152.005Z" fill="#EC1D8E"/>
<path d="M0 151.189L112.146 0H112.754L0 152.005V151.189Z" fill="#EB1D8E"/>
<path d="M0 150.372L111.542 0H112.146L0 151.189V150.372Z" fill="#EA1D8E"/>
<path d="M0 149.556L110.937 0H111.542L0 150.372V149.556Z" fill="#E91D8E"/>
<path d="M0 148.739L110.333 0H110.937L0 149.556V148.739Z" fill="#E81E8E"/>
<path d="M0 147.922L109.725 0H110.333L0 148.739V147.922Z" fill="#E71E8E"/>
<path d="M0 147.11L109.121 0H109.725L0 147.922V147.11Z" fill="#E61E8E"/>
<path d="M0 146.293L108.516 0H109.121L0 147.11V146.293Z" fill="#E51E8E"/>
<path d="M0 145.477L107.912 0H108.516L0 146.293V145.477Z" fill="#E41E8E"/>
<path d="M0 144.66L107.304 0H107.912L0 145.477V144.66Z" fill="#E31E8E"/>
<path d="M0 143.844L106.699 0H107.304L0 144.66V143.844Z" fill="#E21E8E"/>
<path d="M0 143.027L106.095 0H106.699L0 143.844V143.027Z" fill="#E11F8E"/>
<path d="M0 142.21L105.487 0H106.095L0 143.027V142.21Z" fill="#E01F8E"/>
<path d="M0 141.394L104.882 0H105.487L0 142.21V141.394Z" fill="#DF1F8E"/>
<path d="M0 140.581L104.278 0H104.882L0 141.394V140.581Z" fill="#DE1F8E"/>
<path d="M0 139.765L103.674 0H104.278L0 140.581V139.765Z" fill="#DD1F8E"/>
<path d="M0 138.948L103.065 0H103.674L0 139.765V138.948Z" fill="#DC1F8E"/>
<path d="M0 138.132L102.461 0H103.065L0 138.948V138.132Z" fill="#DB1F8E"/>
<path d="M0 137.315L101.857 0H102.461L0 138.132V137.315Z" fill="#DA208E"/>
<path d="M0 136.498L101.253 0H101.857L0 137.315V136.498Z" fill="#D9208E"/>
<path d="M0 135.682L100.644 0H101.253L0 136.498V135.682Z" fill="#D8208E"/>
<path d="M0 134.865L100.04 0H100.644L0 135.682V134.865Z" fill="#D7208E"/>
<path d="M0 134.049L99.4358 0H100.04L0 134.865V134.049Z" fill="#D6208E"/>
<path d="M0 133.236L98.8274 0H99.4358L0 134.049V133.236Z" fill="#D5208F"/>
<path d="M0 132.42L98.2232 0H98.8274L0 133.236V132.42Z" fill="#D4218F"/>
<path d="M0 131.603L97.6189 0H98.2232L0 132.42V131.603Z" fill="#D3218F"/>
<path d="M0 130.786L97.0147 0H97.6189L0 131.603V130.786Z" fill="#D2218F"/>
<path d="M0 129.97L96.4062 0H97.0147L0 130.786V129.97Z" fill="#D1218F"/>
<path d="M0 129.153L95.802 0H96.4062L0 129.97V129.153Z" fill="#D0218F"/>
<path d="M0 128.337L95.1977 0H95.802L0 129.153V128.337Z" fill="#CF218F"/>
<path d="M0 127.52L94.5935 0H95.1977L0 128.337V127.52Z" fill="#CE218F"/>
<path d="M0 126.708L93.9851 0H94.5935L0 127.52V126.708Z" fill="#CD228F"/>
<path d="M0 125.891L93.3808 0H93.9851L0 126.708V125.891Z" fill="#CC228F"/>
<path d="M0 125.074L92.7766 0H93.3808L0 125.891V125.074Z" fill="#CB228F"/>
<path d="M0 124.258L92.1723 0H92.7766L0 125.074V124.258Z" fill="#CA228F"/>
<path d="M0 123.441L91.5639 0H92.1723L0 124.258V123.441Z" fill="#C9228F"/>
<path d="M0 122.625L90.9596 0H91.5639L0 123.441V122.625Z" fill="#C8228F"/>
<path d="M0 121.808L90.3554 0H90.9596L0 122.625V121.808Z" fill="#C7228F"/>
<path d="M0 120.991L89.747 0H90.3554L0 121.808V120.991Z" fill="#C6238F"/>
<path d="M0 120.175L89.1427 0H89.747L0 120.991V120.175Z" fill="#C5238F"/>
<path d="M0 119.362L88.5385 0H89.1427L0 120.175V119.362Z" fill="#C4238F"/>
<path d="M0 118.546L87.9342 0H88.5385L0 119.362V118.546Z" fill="#C3238F"/>
<path d="M0 117.729L87.3258 0H87.9342L0 118.546V117.729Z" fill="#C2238F"/>
<path d="M0 116.913L86.7215 0H87.3258L0 117.729V116.913Z" fill="#C1238F"/>
<path d="M0 116.096L86.1173 0H86.7215L0 116.913V116.096Z" fill="#C0238F"/>
<path d="M0 115.279L85.5131 0H86.1173L0 116.096V115.279Z" fill="#BF248F"/>
<path d="M0 114.463L84.9046 0H85.5131L0 115.279V114.463Z" fill="#BE248F"/>
<path d="M0 113.646L84.3004 0H84.9046L0 114.463V113.646Z" fill="#BD248F"/>
<path d="M0 112.834L83.6961 0H84.3004L0 113.646V112.834Z" fill="#BC248F"/>
<path d="M0 112.017L83.0919 0H83.6961L0 112.834V112.017Z" fill="#BB248F"/>
<path d="M0 111.201L82.4835 0H83.0919L0 112.017V111.201Z" fill="#BA248F"/>
<path d="M0 110.384L81.8792 0H82.4834L0 111.201V110.384Z" fill="#B9248F"/>
<path d="M0 109.567L81.275 0H81.8792L0 110.384V109.567Z" fill="#B8258F"/>
<path d="M0 108.751L80.6665 0H81.275L0 109.567V108.751Z" fill="#B7258F"/>
<path d="M0 107.934L80.0623 0H80.6665L0 108.751V107.934Z" fill="#B6258F"/>
<path d="M0 107.118L79.458 0H80.0623L0 107.934V107.118Z" fill="#B5258F"/>
<path d="M0 106.301L78.8538 0H79.458L0 107.118V106.301Z" fill="#B4258F"/>
<path d="M0 105.489L78.2454 0H78.8538L0 106.301V105.489Z" fill="#B3258F"/>
<path d="M0 104.672L77.6411 0H78.2454L0 105.489V104.672Z" fill="#B2268F"/>
<path d="M0 103.855L77.0369 0H77.6411L0 104.672V103.855Z" fill="#B1268F"/>
<path d="M0 103.039L76.4326 0H77.0369L0 103.855V103.039Z" fill="#B0268F"/>
<path d="M0 102.222L75.8242 0H76.4326L0 103.039V102.222Z" fill="#AF268F"/>
<path d="M0 101.406L75.2199 0H75.8242L0 102.222V101.406Z" fill="#AE268F"/>
<path d="M0 100.589L74.6157 0H75.2199L0 101.406V100.589Z" fill="#AD268F"/>
<path d="M0 99.7724L74.0115 0H74.6157L0 100.589V99.7724Z" fill="#AC268F"/>
<path d="M0 98.9558L73.403 0H74.0115L0 99.7724V98.9558Z" fill="#AB278F"/>
<path d="M0 98.1434L72.7988 0H73.403L0 98.9558V98.1434Z" fill="#AA278F"/>
<path d="M0 97.3269L72.1945 0H72.7988L0 98.1434V97.3269Z" fill="#A9278F"/>
<path d="M0 96.5103L71.5861 0H72.1945L0 97.3269V96.5103Z" fill="#A8278F"/>
<path d="M0 95.6937L70.9818 0H71.5861L0 96.5103V95.6937Z" fill="#A72790"/>
<path d="M0 94.877L70.3776 0H70.9818L0 95.6936V94.877Z" fill="#A62790"/>
<path d="M0 94.0605L69.7733 0H70.3776L0 94.8771V94.0605Z" fill="#A52790"/>
<path d="M0 93.2439L69.1649 0H69.7734L0 94.0605V93.2439Z" fill="#A42890"/>
<path d="M0 92.4273L68.5607 0H69.1649L0 93.2439V92.4273Z" fill="#A32890"/>
<path d="M0 91.6149L67.9564 0H68.5607L0 92.4273V91.6149Z" fill="#A22890"/>
<path d="M0 90.7983L67.3522 0H67.9564L0 91.6149V90.7983Z" fill="#A12890"/>
<path d="M0 89.9817L66.7437 0H67.3522L0 90.7983V89.9817Z" fill="#A02890"/>
<path d="M0 89.1651L66.1395 0H66.7437L0 89.9817V89.1651Z" fill="#9F2890"/>
<path d="M0 88.3485L65.5352 0H66.1395L0 89.1651V88.3485Z" fill="#9E2890"/>
<path d="M0 87.5319L64.931 0H65.5352L0 88.3485V87.5319Z" fill="#9D2990"/>
<path d="M0 86.7153L64.3226 0H64.931L0 87.5319V86.7153Z" fill="#9C2990"/>
<path d="M0 85.8987L63.7183 0H64.3226L0 86.7153V85.8987Z" fill="#9A2990"/>
<path d="M0 85.0821L63.1141 0H63.7183L0 85.8987V85.0821Z" fill="#992990"/>
<path d="M0 84.2697L62.5057 0H63.1141L0 85.0821V84.2697Z" fill="#982990"/>
<path d="M0 83.4531L61.9014 0H62.5056L0 84.2697V83.4531Z" fill="#972990"/>
<path d="M0 82.6365L61.2971 0H61.9014L0 83.4531V82.6365Z" fill="#962990"/>
<path d="M0 81.8199L60.6929 0H61.2972L0 82.6365V81.8199Z" fill="#952A90"/>
<path d="M0 81.0033L60.0845 0H60.6929L0 81.8199V81.0033Z" fill="#942A90"/>
<path d="M0 80.1867L59.4802 0H60.0845L0 81.0033V80.1867Z" fill="#932A90"/>
<path d="M0 79.3701L58.876 0H59.4802L0 80.1867V79.3701Z" fill="#922A90"/>
<path d="M0 78.5535L58.2717 0H58.876L0 79.3701V78.5535Z" fill="#912A90"/>
<path d="M0 77.7411L57.6633 0H58.2717L0 78.5535V77.7411Z" fill="#902A90"/>
<path d="M0 76.9245L57.0591 0H57.6633L0 77.7411V76.9245Z" fill="#8F2B90"/>
<path d="M0 76.1079L56.4548 0H57.0591L0 76.9245V76.1079Z" fill="#8E2B90"/>
<path d="M0 75.2913L55.8506 0H56.4548L0 76.1079V75.2913Z" fill="#8D2B90"/>
<path d="M0 74.4747L55.2421 0H55.8506L0 75.2913V74.4747Z" fill="#8C2B90"/>
<path d="M0 73.6581L54.6379 0H55.2421L0 74.4747V73.6581Z" fill="#8B2B90"/>
<path d="M0 72.8415L54.0336 0H54.6379L0 73.6581V72.8415Z" fill="#8A2B90"/>
<path d="M0 72.0249L53.4252 0H54.0336L0 72.8415V72.0249Z" fill="#892B90"/>
<path d="M0 71.2083L52.821 0H53.4252L0 72.0249V71.2083Z" fill="#882C90"/>
<path d="M0 70.3959L52.2167 0H52.821L0 71.2083V70.3959Z" fill="#872C90"/>
<path d="M0 69.5793L51.6125 0H52.2167L0 70.3959V69.5793Z" fill="#862C90"/>
<path d="M0 68.7627L51.004 0H51.6125L0 69.5793V68.7627Z" fill="#852C90"/>
<path d="M0 67.9461L50.3998 0H51.004L0 68.7627V67.9461Z" fill="#842C90"/>
<path d="M0 67.1295L49.7955 0H50.3998L0 67.9461V67.1295Z" fill="#832C90"/>
<path d="M0 66.3129L49.1913 0H49.7955L0 67.1295V66.3129Z" fill="#822C90"/>
<path d="M0 65.4963L48.5829 0H49.1913L0 66.3129V65.4963Z" fill="#812D90"/>
<path d="M0 64.6797L47.9786 0H48.5829L0 65.4963V64.6797Z" fill="#802D90"/>
<path d="M0 63.8631L47.3744 0H47.9786L0 64.6797V63.8631Z" fill="#7F2D90"/>
<path d="M0 63.0507L46.7659 0H47.3744L0 63.8631V63.0507Z" fill="#7E2D90"/>
<path d="M0 62.2341L46.1617 0H46.7659L0 63.0507V62.2341Z" fill="#7D2D90"/>
<path d="M0 61.4175L45.5574 0H46.1617L0 62.2341V61.4175Z" fill="#7C2D90"/>
</g>
</g>
<mask id="mask2_993_30" style="mask-type:luminance" maskUnits="userSpaceOnUse" x="81" y="51" width="11" height="40">
<path d="M82.3786 51.429C82.3198 51.509 82.324 51.6184 82.3995 51.69C85.0809 54.2534 87.7622 59.2119 88.6182 67.2011C89.94 79.5301 84.078 85.4988 81.0106 90.5584H81.1281C84.7284 85.4483 93.0242 79.69 91.2702 67.037C90.1078 58.6184 86.2558 53.6641 82.6303 51.3869C82.5968 51.3658 82.5632 51.3574 82.5296 51.3574C82.4709 51.3574 82.4121 51.3827 82.3744 51.4332" fill="white"/>
</mask>
<g mask="url(#mask2_993_30)">
<mask id="mask3_993_30" style="mask-type:luminance" maskUnits="userSpaceOnUse" x="62" y="45" width="50" height="52">
<path d="M85.2865 45.5759L62.2902 76.5809L88.7411 96.3226L111.738 65.3176L85.2865 45.5759Z" fill="white"/>
</mask>
<g mask="url(#mask3_993_30)">
<path d="M91.2995 96.3294L111.739 68.7755V70.253L92.3989 96.3294H91.2995Z" fill="#EE3C60"/>
<path d="M90.2043 96.3294L111.739 67.2938V68.7755L91.2995 96.3294H90.2043Z" fill="#EE3B61"/>
<path d="M89.1049 96.3294L111.739 65.8121V67.2938L90.2043 96.3294H89.1049Z" fill="#EE3B62"/>
<path d="M88.0056 96.3294L111.739 64.3347V65.8122L89.1049 96.3294H88.0056Z" fill="#EE3A63"/>
<path d="M86.9103 96.3294L111.739 62.853V64.3347L88.0055 96.3294H86.9103Z" fill="#EE3964"/>
<path d="M85.811 96.3294L111.739 61.3756V62.8531L86.9104 96.3294H85.811Z" fill="#EE3965"/>
<path d="M84.7158 96.3294L111.739 59.8939V61.3756L85.811 96.3294H84.7158Z" fill="#EE3866"/>
<path d="M83.6164 96.3294L111.739 58.4165V59.894L84.7158 96.3294H83.6164Z" fill="#EE3767"/>
<path d="M82.517 96.3294L111.739 56.9348V58.4165L83.6164 96.3294H82.517Z" fill="#EE3768"/>
<path d="M81.4218 96.3294L111.739 55.4531V56.9348L82.517 96.3294H81.4218Z" fill="#EE3669"/>
<path d="M80.3224 96.3294L111.739 53.9757V55.4532L81.4218 96.3294H80.3224Z" fill="#EE356A"/>
<path d="M79.2272 96.3294L111.739 52.494V53.9757L80.3224 96.3294H79.2272Z" fill="#EE356C"/>
<path d="M78.1279 96.3294L111.739 51.0166V52.4941L79.2273 96.3294H78.1279Z" fill="#EE346D"/>
<path d="M77.0284 96.3294L111.739 49.5349V51.0166L78.1278 96.3294H77.0284Z" fill="#EE336E"/>
<path d="M75.9333 96.3295L111.739 48.0575V49.535L77.0285 96.3295H75.9333Z" fill="#ED326F"/>
<path d="M74.8339 96.3294L111.739 46.5758V48.0575L75.9333 96.3294H74.8339Z" fill="#ED3270"/>
<path d="M73.7387 96.3294L111.378 45.5824H111.739V46.5758L74.8339 96.3294H73.7387Z" fill="#ED3171"/>
<path d="M72.6393 96.3294L110.283 45.5824H111.378L73.7387 96.3294H72.6393Z" fill="#ED3072"/>
<path d="M71.5399 96.3294L109.183 45.5824H110.283L72.6393 96.3294H71.5399Z" fill="#ED3073"/>
<path d="M70.4447 96.3294L108.084 45.5824H109.183L71.5399 96.3294H70.4447Z" fill="#ED2F74"/>
<path d="M69.3453 96.3294L106.989 45.5824H108.084L70.4447 96.3294H69.3453Z" fill="#ED2E75"/>
<path d="M68.2501 96.3294L105.889 45.5824H106.989L69.3453 96.3294H68.2501Z" fill="#ED2E76"/>
<path d="M67.1508 96.3294L104.794 45.5824H105.889L68.2501 96.3294H67.1508Z" fill="#ED2D77"/>
<path d="M66.0514 96.3294L103.695 45.5824H104.794L67.1508 96.3294H66.0514Z" fill="#ED2C78"/>
<path d="M64.9562 96.3294L102.596 45.5824H103.695L66.0514 96.3294H64.9562Z" fill="#ED2C79"/>
<path d="M63.8568 96.3294L101.5 45.5824H102.596L64.9562 96.3294H63.8568Z" fill="#ED2B7A"/>
<path d="M62.7616 96.3294L100.401 45.5824H101.5L63.8568 96.3294H62.7616Z" fill="#ED2A7B"/>
<path d="M62.2916 95.4791L99.3057 45.5824H100.401L62.7616 96.3294H62.2916V95.4791Z" fill="#ED297C"/>
<path d="M62.2916 93.9975L98.2064 45.5824H99.3057L62.2916 95.4791V93.9975Z" fill="#ED297D"/>
<path d="M62.2916 92.5158L97.107 45.5824H98.2064L62.2916 93.9975V92.5158Z" fill="#ED287E"/>
<path d="M62.2916 91.0384L96.0118 45.5824H97.107L62.2916 92.5158V91.0384Z" fill="#ED277F"/>
<path d="M62.2916 89.5567L94.9124 45.5824H96.0118L62.2916 91.0384V89.5567Z" fill="#ED2780"/>
<path d="M62.2916 88.0792L93.813 45.5824H94.9124L62.2916 89.5567V88.0792Z" fill="#ED2681"/>
<path d="M62.2916 86.5976L92.7178 45.5824H93.813L62.2916 88.0792V86.5976Z" fill="#ED2582"/>
<path d="M62.2916 85.1201L91.6184 45.5824H92.7178L62.2916 86.5976V85.1201Z" fill="#ED2583"/>
<path d="M62.2916 83.6384L90.5232 45.5824H91.6184L62.2916 85.1201V83.6384Z" fill="#EC2484"/>
<path d="M62.2916 82.1568L89.4238 45.5824H90.5232L62.2916 83.6384V82.1568Z" fill="#EC2385"/>
<path d="M62.2916 80.6793L88.3245 45.5824H89.4238L62.2916 82.1568V80.6793Z" fill="#EC2386"/>
<path d="M62.2916 79.1977L87.2293 45.5824H88.3245L62.2916 80.6793V79.1977Z" fill="#EC2287"/>
<path d="M62.2916 77.7202L86.1299 45.5824H87.2293L62.2916 79.1977V77.7202Z" fill="#EC2188"/>
<path d="M62.2916 76.2385L85.0347 45.5824H86.1299L62.2916 77.7202V76.2385Z" fill="#EC2089"/>
<path d="M62.2916 74.7611L83.9353 45.5824H85.0347L62.2916 76.2385V74.7611Z" fill="#EC208A"/>
<path d="M62.2916 73.2794L82.8359 45.5824H83.9353L62.2916 74.7611V73.2794Z" fill="#EC1F8B"/>
<path d="M62.2916 71.7978L81.7407 45.5824H82.8359L62.2916 73.2794V71.7978Z" fill="#EC1E8C"/>
<path d="M62.2916 70.3203L80.6413 45.5824H81.7407L62.2916 71.7978V70.3203Z" fill="#EC1E8D"/>
</g>
</g>
<mask id="mask4_993_30" style="mask-type:luminance" maskUnits="userSpaceOnUse" x="32" y="139" width="20" height="22">
<path d="M38.8269 140.645C37.5512 141.12 36.4686 141.802 35.5791 142.694C34.6895 143.587 34.0139 144.673 33.5565 145.957C33.0991 147.236 32.8683 148.646 32.8683 150.191C32.8683 151.736 33.1033 153.18 33.5775 154.451C34.0475 155.722 34.7272 156.804 35.6084 157.696C36.4896 158.589 37.5554 159.271 38.8059 159.738C40.0563 160.205 41.4411 160.441 42.9601 160.441C44.2651 160.441 45.4693 160.293 46.5729 159.995C47.6765 159.696 48.8304 159.224 50.0263 158.576C50.4418 158.349 50.7775 158.117 51.046 157.873C51.3104 157.629 51.495 157.355 51.5915 157.052C51.688 156.749 51.7384 156.345 51.7384 155.84V152.039C51.7384 151.353 51.6167 150.839 51.3817 150.498C51.1425 150.158 50.832 149.934 50.446 149.833C50.0599 149.737 49.5899 149.686 49.0319 149.686H44.4874C43.9378 149.686 43.5056 149.829 43.1866 150.12C42.8677 150.41 42.7083 150.772 42.7083 151.214C42.7083 151.753 42.9013 152.14 43.2832 152.363C43.665 152.59 44.2273 152.7 44.9742 152.7H48.0751V155.92C47.2401 156.37 46.4135 156.72 45.5994 156.96C44.7854 157.204 43.9168 157.326 42.9894 157.326C41.0844 157.326 39.5989 156.699 38.5331 155.444C37.4673 154.19 36.9344 152.401 36.9344 150.073C36.9344 149 37.0729 148.023 37.3456 147.139C37.6184 146.255 38.0128 145.51 38.5331 144.9C39.0493 144.29 39.6745 143.827 40.4004 143.507C41.1263 143.187 41.9572 143.027 42.8803 143.027C43.8035 143.027 44.5168 143.162 45.0959 143.431C45.675 143.7 46.1365 144.037 46.4764 144.433C46.8163 144.829 47.2359 145.418 47.7311 146.192C47.9115 146.436 48.1339 146.626 48.3982 146.761C48.6626 146.895 48.9395 146.963 49.2291 146.963C49.7494 146.963 50.1984 146.786 50.5718 146.428C50.9453 146.07 51.1299 145.641 51.1299 145.136C51.1299 144.669 50.9663 144.13 50.6432 143.528C50.3201 142.922 49.8375 142.349 49.1997 141.811C48.5619 141.268 47.7311 140.821 46.703 140.464C45.6792 140.106 44.5 139.929 43.1699 139.929C41.5502 139.929 40.1025 140.165 38.8269 140.64" fill="white"/>
</mask>
<g mask="url(#mask4_993_30)">
<mask id="mask5_993_30" style="mask-type:luminance" maskUnits="userSpaceOnUse" x="23" y="130" width="39" height="40">
<path d="M39.5912 130.863L23.0771 153.128L45.0136 169.5L61.5276 147.235L39.5912 130.863Z" fill="white"/>
</mask>
<g mask="url(#mask5_993_30)">
<path d="M50.8866 169.508L61.5238 155.167V157.208L52.4014 169.508H50.8866Z" fill="#EC2386"/>
<path d="M49.3718 169.508L61.5238 153.125V155.167L50.8866 169.508H49.3718Z" fill="#EC2287"/>
<path d="M47.857 169.507L61.5238 151.083V153.125L49.3718 169.507H47.857Z" fill="#EC2188"/>
<path d="M46.3422 169.508L61.5238 149.038V151.084L47.857 169.508H46.3422Z" fill="#EC2089"/>
<path d="M44.8273 169.508L61.5238 146.996V149.038L46.3421 169.508H44.8273Z" fill="#EC208A"/>
<path d="M43.3126 169.508L61.5238 144.955V146.996L44.8274 169.508H43.3126Z" fill="#EC1F8B"/>
<path d="M41.7977 169.508L61.5238 142.913V144.955L43.3125 169.508H41.7977Z" fill="#EC1E8C"/>
<path d="M40.283 169.508L61.5238 140.872V142.913L41.7978 169.508H40.283Z" fill="#EC1E8D"/>
<path d="M38.7681 169.508L61.5238 138.83V140.872L40.2829 169.508H38.7681Z" fill="#EC1D8E"/>
<path d="M37.9331 169.507L61.5238 137.706V138.83L38.7681 169.507H37.9331Z" fill="#EC1D8E"/>
<path d="M37.0981 169.508L61.5238 136.578V137.706L37.9331 169.508H37.0981Z" fill="#EB1D8E"/>
<path d="M36.2631 169.508L61.5238 135.45V136.578L37.0981 169.508H36.2631Z" fill="#EA1D8E"/>
<path d="M35.428 169.508L61.5237 134.326V135.45L36.263 169.508H35.428Z" fill="#E91D8E"/>
<path d="M34.593 169.508L61.5238 133.198V134.326L35.428 169.508H34.593Z" fill="#E81E8E"/>
<path d="M33.7579 169.508L61.5238 132.074V133.198L34.593 169.508H33.7579Z" fill="#E71E8E"/>
<path d="M32.9229 169.508L61.5238 130.946V132.074L33.7579 169.508H32.9229Z" fill="#E61E8E"/>
<path d="M32.0879 169.508L60.7475 130.871H61.5238V130.946L32.9229 169.508H32.0879Z" fill="#E51E8E"/>
<path d="M31.2529 169.508L59.9125 130.871H60.7475L32.0879 169.508H31.2529Z" fill="#E41E8E"/>
<path d="M30.4178 169.508L59.0775 130.871H59.9125L31.2529 169.508H30.4178Z" fill="#E31E8E"/>
<path d="M29.5828 169.508L58.2424 130.871H59.0774L30.4178 169.508H29.5828Z" fill="#E21E8E"/>
<path d="M28.7477 169.508L57.4032 130.871H58.2424L29.5828 169.508H28.7477Z" fill="#E11F8E"/>
<path d="M27.9127 169.508L56.5681 130.871H57.4032L28.7478 169.508H27.9127Z" fill="#E01F8E"/>
<path d="M27.0735 169.508L55.7331 130.871H56.5681L27.9127 169.508H27.0735Z" fill="#DF1F8E"/>
<path d="M26.2385 169.508L54.8981 130.871H55.7331L27.0735 169.508H26.2385Z" fill="#DE1F8E"/>
<path d="M25.4034 169.508L54.0631 130.871H54.8981L26.2385 169.508H25.4034Z" fill="#DD1F8E"/>
<path d="M24.5684 169.508L53.228 130.871H54.0631L25.4035 169.508H24.5684Z" fill="#DC1F8E"/>
<path d="M23.7334 169.508L52.393 130.871H53.228L24.5684 169.508H23.7334Z" fill="#DB1F8E"/>
<path d="M23.0746 169.268L51.558 130.871H52.393L23.7334 169.508H23.0746V169.268Z" fill="#DA208E"/>
<path d="M23.0746 168.144L50.7229 130.871H51.558L23.0746 169.268V168.144Z" fill="#D9208E"/>
<path d="M23.0746 167.016L49.8879 130.871H50.7229L23.0746 168.144V167.016Z" fill="#D8208E"/>
<path d="M23.0746 165.892L49.0529 130.871H49.8879L23.0746 167.016V165.892Z" fill="#D7208E"/>
<path d="M23.0746 164.764L48.2178 130.871H49.0529L23.0746 165.892V164.764Z" fill="#D6208E"/>
<path d="M23.0746 163.64L47.3828 130.871H48.2178L23.0746 164.764V163.64Z" fill="#D5208F"/>
<path d="M23.0746 162.512L46.5478 130.871H47.3828L23.0746 163.64V162.512Z" fill="#D4218F"/>
<path d="M23.0746 161.384L45.7127 130.871H46.5478L23.0746 162.512V161.384Z" fill="#D3218F"/>
<path d="M23.0746 160.26L44.8735 130.871H45.7127L23.0746 161.384V160.26Z" fill="#D2218F"/>
<path d="M23.0746 159.132L44.0385 130.871H44.8735L23.0746 160.26V159.132Z" fill="#D1218F"/>
<path d="M23.0746 158.008L43.2034 130.871H44.0385L23.0746 159.132V158.008Z" fill="#D0218F"/>
<path d="M23.0746 156.88L42.3684 130.871H43.2034L23.0746 158.008V156.88Z" fill="#CF218F"/>
<path d="M23.0746 155.756L41.5334 130.871H42.3684L23.0746 156.88V155.756Z" fill="#CE218F"/>
<path d="M23.0746 154.628L40.6984 130.871H41.5334L23.0746 155.756V154.628Z" fill="#CD228F"/>
<path d="M23.0746 153.504L39.8633 130.871H40.6984L23.0746 154.628V153.504Z" fill="#CC228F"/>
<path d="M23.0746 152.376L39.0283 130.871H39.8633L23.0746 153.504V152.376Z" fill="#CB228F"/>
<path d="M23.0746 151.252L38.1933 130.871H39.0283L23.0746 152.376V151.252Z" fill="#CA228F"/>
<path d="M23.0746 150.124L37.3582 130.871H38.1933L23.0746 151.252V150.124Z" fill="#C9228F"/>
<path d="M23.0746 149L36.5232 130.871H37.3582L23.0746 150.124V149Z" fill="#C8228F"/>
<path d="M23.0746 147.872L35.6882 130.871H36.5232L23.0746 149V147.872Z" fill="#C7228F"/>
<path d="M23.0746 146.748L34.8531 130.871H35.6882L23.0746 147.872V146.748Z" fill="#C6238F"/>
<path d="M23.0746 145.62L34.0181 130.871H34.8531L23.0746 146.748V145.62Z" fill="#C5238F"/>
<path d="M23.0746 144.496L33.1831 130.871H34.0181L23.0746 145.62V144.496Z" fill="#C4238F"/>
<path d="M23.0746 143.368L32.3439 130.871H33.1831L23.0746 144.496V143.368Z" fill="#C3238F"/>
</g>
</g>
<mask id="mask6_993_30" style="mask-type:luminance" maskUnits="userSpaceOnUse" x="55" y="139" width="18" height="22">
<path d="M68.7369 140.535C68.376 140.935 68.1956 141.55 68.1956 142.37V152.203C68.1956 153.9 67.8725 155.162 67.2263 156C66.5801 156.833 65.4723 157.25 63.9072 157.25C62.7742 157.25 61.893 157.044 61.2636 156.636C60.6342 156.227 60.1978 155.646 59.9502 154.906C59.7026 154.161 59.5809 153.235 59.5809 152.123V142.37C59.5809 141.558 59.4005 140.948 59.0354 140.544C58.6704 140.139 58.1794 139.933 57.5584 139.933C56.9374 139.933 56.4842 140.135 56.1233 140.544C55.7583 140.948 55.5778 141.558 55.5778 142.37V151.909C55.5778 153.407 55.7415 154.695 56.0646 155.769C56.3877 156.846 56.8954 157.73 57.5878 158.42C58.2801 159.111 59.1739 159.62 60.2733 159.948C61.3685 160.277 62.6777 160.441 64.1967 160.441C65.4723 160.441 66.5885 160.289 67.541 159.982C68.4935 159.675 69.3286 159.186 70.0503 158.521C70.8853 157.738 71.456 156.825 71.7581 155.79C72.0602 154.754 72.2113 153.458 72.2113 151.909V142.37C72.2113 141.55 72.0225 140.939 71.6532 140.535C71.2798 140.135 70.793 139.933 70.1888 139.933C69.5845 139.933 69.1062 140.135 68.7453 140.535" fill="white"/>
</mask>
<g mask="url(#mask6_993_30)">
<mask id="mask7_993_30" style="mask-type:luminance" maskUnits="userSpaceOnUse" x="45" y="131" width="37" height="38">
<path d="M61.499 131.938L45.784 153.126L66.2795 168.423L81.9945 147.235L61.499 131.938Z" fill="white"/>
</mask>
<g mask="url(#mask7_993_30)">
<path d="M71.3721 168.43L81.9967 154.11V156.156L72.8869 168.43H71.3721Z" fill="#ED2C79"/>
<path d="M69.8615 168.43L81.9967 152.069V154.11L71.3721 168.43H69.8615Z" fill="#ED2B7A"/>
<path d="M68.3467 168.43L81.9967 150.027V152.069L69.8615 168.43H68.3467Z" fill="#ED2A7B"/>
<path d="M66.8319 168.43L81.9967 147.986V150.027L68.3467 168.43H66.8319Z" fill="#ED297C"/>
<path d="M65.3171 168.43L81.9967 145.944V147.986L66.8319 168.43H65.3171Z" fill="#ED297D"/>
<path d="M63.8022 168.43L81.9967 143.903V145.944L65.3171 168.43H63.8022Z" fill="#ED287E"/>
<path d="M62.2875 168.43L81.9967 141.861V143.903L63.8023 168.43H62.2875Z" fill="#ED277F"/>
<path d="M60.7726 168.43L81.9967 139.82V141.861L62.2874 168.43H60.7726Z" fill="#ED2780"/>
<path d="M59.2579 168.43L81.9967 137.778V139.82L60.7727 168.43H59.2579Z" fill="#ED2681"/>
<path d="M57.743 168.43L81.9967 135.737V137.778L59.2578 168.43H57.743Z" fill="#ED2582"/>
<path d="M56.2283 168.43L81.9967 133.695V135.737L57.7431 168.43H56.2283Z" fill="#ED2583"/>
<path d="M54.7134 168.43L81.7785 131.944H81.9967V133.695L56.2282 168.43H54.7134Z" fill="#EC2484"/>
<path d="M53.1986 168.43L80.2637 131.944H81.7785L54.7134 168.43H53.1986Z" fill="#EC2385"/>
<path d="M51.6838 168.43L78.7489 131.944H80.2637L53.1986 168.43H51.6838Z" fill="#EC2386"/>
<path d="M50.169 168.43L77.2341 131.944H78.7489L51.6838 168.43H50.169Z" fill="#EC2287"/>
<path d="M48.6542 168.43L75.7193 131.944H77.2341L50.169 168.43H48.6542Z" fill="#EC2188"/>
<path d="M47.1394 168.43L74.2045 131.944H75.7193L48.6542 168.43H47.1394Z" fill="#EC2089"/>
<path d="M45.7841 168.215L72.6897 131.944H74.2045L47.1394 168.43H45.7841V168.215Z" fill="#EC208A"/>
<path d="M45.7841 166.174L71.1749 131.944H72.6897L45.7841 168.215V166.174Z" fill="#EC1F8B"/>
<path d="M45.7841 164.132L69.6601 131.944H71.1749L45.7841 166.174V164.132Z" fill="#EC1E8C"/>
<path d="M45.7841 162.091L68.1453 131.944H69.6601L45.7841 164.132V162.091Z" fill="#EC1E8D"/>
<path d="M45.7841 160.049L66.6305 131.944H68.1453L45.7841 162.091V160.049Z" fill="#EC1D8E"/>
<path d="M45.7841 158.921L65.7954 131.944H66.6305L45.7841 160.049V158.921Z" fill="#EC1D8E"/>
<path d="M45.7841 157.797L64.9604 131.944H65.7954L45.7841 158.921V157.797Z" fill="#EB1D8E"/>
<path d="M45.7841 156.669L64.1254 131.944H64.9604L45.7841 157.797V156.669Z" fill="#EA1D8E"/>
<path d="M45.7841 155.545L63.2903 131.944H64.1254L45.7841 156.669V155.545Z" fill="#E91D8E"/>
<path d="M45.7841 154.417L62.4553 131.944H63.2903L45.7841 155.545V154.417Z" fill="#E81E8E"/>
<path d="M45.7841 153.294L61.6203 131.944H62.4553L45.7841 154.417V153.294Z" fill="#E71E8E"/>
<path d="M45.7841 152.165L60.7852 131.944H61.6203L45.7841 153.294V152.165Z" fill="#E61E8E"/>
<path d="M45.7841 151.042L59.9502 131.944H60.7852L45.7841 152.165V151.042Z" fill="#E51E8E"/>
<path d="M45.7841 149.913L59.1152 131.944H59.9502L45.7841 151.042V149.913Z" fill="#E41E8E"/>
<path d="M45.7841 148.79L58.276 131.944H59.1152L45.7841 149.913V148.79Z" fill="#E31E8E"/>
<path d="M45.7841 147.662L57.4409 131.944H58.276L45.7841 148.79V147.662Z" fill="#E21E8E"/>
<path d="M45.7841 146.538L56.6059 131.944H57.4409L45.7841 147.662V146.538Z" fill="#E11F8E"/>
<path d="M45.7841 145.41L55.7709 131.944H56.6059L45.7841 146.538V145.41Z" fill="#E01F8E"/>
<path d="M45.7841 144.286L54.9358 131.944H55.7709L45.7841 145.41V144.286Z" fill="#DF1F8E"/>
</g>
</g>
<mask id="mask8_993_30" style="mask-type:luminance" maskUnits="userSpaceOnUse" x="74" y="140" width="18" height="21">
<path d="M77.4355 140.274C76.8229 140.274 76.3655 140.417 76.055 140.699C75.7445 140.981 75.5892 141.356 75.5892 141.815C75.5892 142.274 75.7445 142.614 76.055 142.884C76.3655 143.153 76.8271 143.288 77.4355 143.288H86.1593L76.0047 155.478C75.841 155.667 75.6522 155.891 75.4382 156.147C75.2242 156.404 75.0521 156.619 74.9346 156.783C74.813 156.951 74.7164 157.128 74.6451 157.317C74.5738 157.507 74.536 157.713 74.536 157.94C74.536 158.597 74.7584 159.123 75.199 159.515C75.6396 159.906 76.2942 160.104 77.167 160.104H90.0072C90.6282 160.104 91.0898 159.965 91.3961 159.683C91.7024 159.405 91.8535 159.026 91.8535 158.547C91.8535 158.067 91.7024 157.73 91.3961 157.473C91.0898 157.216 90.6282 157.086 90.0072 157.086H79.542L89.0337 145.75C89.7722 144.883 90.2631 144.26 90.5023 143.869C90.7457 143.482 90.8674 142.964 90.8674 142.311C90.8674 140.952 90.1414 140.27 88.6812 140.27H77.4355V140.274Z" fill="white"/>
</mask>
<g mask="url(#mask8_993_30)">
<mask id="mask9_993_30" style="mask-type:luminance" maskUnits="userSpaceOnUse" x="65" y="131" width="37" height="38">
<path d="M80.71 131.948L65.0727 153.031L85.6861 168.416L101.323 147.333L80.71 131.948Z" fill="white"/>
</mask>
<g mask="url(#mask9_993_30)">
<path d="M91.0688 168.422L101.32 154.603V156.648L92.5836 168.422H91.0688Z" fill="#EE356C"/>
<path d="M89.554 168.422L101.32 152.561V154.603L91.0688 168.422H89.554Z" fill="#EE346D"/>
<path d="M88.0392 168.422L101.32 150.52V152.561L89.554 168.422H88.0392Z" fill="#EE336E"/>
<path d="M86.5244 168.422L101.32 148.478V150.52L88.0392 168.422H86.5244Z" fill="#ED326F"/>
<path d="M85.0096 168.422L101.32 146.437V148.478L86.5244 168.422H85.0096Z" fill="#ED3270"/>
<path d="M83.4948 168.422L101.32 144.395V146.437L85.0096 168.422H83.4948Z" fill="#ED3171"/>
<path d="M81.9841 168.422L101.32 142.354V144.395L83.4947 168.422H81.9841Z" fill="#ED3072"/>
<path d="M80.4694 168.422L101.32 140.312V142.354L81.9842 168.422H80.4694Z" fill="#ED3073"/>
<path d="M78.9545 168.422L101.32 138.271V140.312L80.4693 168.422H78.9545Z" fill="#ED2F74"/>
<path d="M77.4397 168.422L101.32 136.229V138.27L78.9545 168.422H77.4397Z" fill="#ED2E75"/>
<path d="M75.9249 168.422L101.32 134.188V136.229L77.4397 168.422H75.9249Z" fill="#ED2E76"/>
<path d="M74.4101 168.422L101.32 132.142V134.188L75.9249 168.422H74.4101Z" fill="#ED2D77"/>
<path d="M72.8953 168.422L99.9478 131.952H101.32V132.142L74.4101 168.422H72.8953Z" fill="#ED2C78"/>
<path d="M71.3805 168.422L98.433 131.952H99.9478L72.8953 168.422H71.3805Z" fill="#ED2C79"/>
<path d="M69.8657 168.422L96.9182 131.952H98.433L71.3805 168.422H69.8657Z" fill="#ED2B7A"/>
<path d="M68.3509 168.422L95.4034 131.952H96.9182L69.8657 168.422H68.3509Z" fill="#ED2A7B"/>
<path d="M66.8361 168.422L93.8885 131.952H95.4034L68.3509 168.422H66.8361Z" fill="#ED297C"/>
<path d="M65.3213 168.422L92.3738 131.952H93.8886L66.8361 168.422H65.3213Z" fill="#ED297D"/>
<path d="M65.0695 166.721L90.859 131.952H92.3738L65.3213 168.422H65.0695V166.721Z" fill="#ED287E"/>
<path d="M65.0695 164.68L89.3442 131.952H90.859L65.0695 166.721V164.68Z" fill="#ED277F"/>
<path d="M65.0695 162.638L87.8294 131.952H89.3442L65.0695 164.68V162.638Z" fill="#ED2780"/>
<path d="M65.0695 160.596L86.3146 131.952H87.8294L65.0695 162.638V160.596Z" fill="#ED2681"/>
<path d="M65.0695 158.555L84.7997 131.952H86.3146L65.0695 160.597V158.555Z" fill="#ED2582"/>
<path d="M65.0695 156.514L83.2849 131.952H84.7997L65.0695 158.555V156.514Z" fill="#ED2583"/>
<path d="M65.0695 154.472L81.7701 131.952H83.2849L65.0695 156.514V154.472Z" fill="#EC2484"/>
<path d="M65.0695 152.431L80.2553 131.952H81.7701L65.0695 154.472V152.431Z" fill="#EC2385"/>
<path d="M65.0695 150.389L78.7405 131.952H80.2553L65.0695 152.431V150.389Z" fill="#EC2386"/>
<path d="M65.0695 148.348L77.2257 131.952H78.7405L65.0695 150.389V148.348Z" fill="#EC2287"/>
<path d="M65.0695 146.302L75.7109 131.952H77.2257L65.0695 148.348V146.302Z" fill="#EC2188"/>
<path d="M65.0695 144.26L74.1961 131.952H75.7109L65.0695 146.302V144.26Z" fill="#EC2089"/>
</g>
</g>
<mask id="mask10_993_30" style="mask-type:luminance" maskUnits="userSpaceOnUse" x="92" y="140" width="18" height="21">
<path d="M94.4802 140.274C93.8256 140.274 93.3221 140.421 92.978 140.72C92.6339 141.019 92.4577 141.423 92.4577 141.937C92.4577 142.45 92.6255 142.833 92.957 143.132C93.2885 143.435 93.7963 143.587 94.4802 143.587H98.8484V157.995C98.8484 158.816 99.033 159.431 99.4065 159.835C99.78 160.239 100.263 160.445 100.858 160.445C101.454 160.445 101.92 160.243 102.289 159.843C102.659 159.443 102.843 158.829 102.843 157.995V143.587H107.211C107.895 143.587 108.407 143.435 108.747 143.132C109.087 142.829 109.259 142.434 109.259 141.937C109.259 141.44 109.091 141.04 108.751 140.733C108.416 140.426 107.899 140.274 107.207 140.274H94.476H94.4802Z" fill="white"/>
</mask>
<g mask="url(#mask10_993_30)">
<mask id="mask11_993_30" style="mask-type:luminance" maskUnits="userSpaceOnUse" x="82" y="132" width="37" height="37">
<path d="M98.4463 132.19L82.829 153.246L103.274 168.505L118.891 147.449L98.4463 132.19Z" fill="white"/>
</mask>
<g mask="url(#mask11_993_30)">
<path d="M109.175 168.514L118.893 155.419V157.461L110.69 168.514H109.175Z" fill="#EE3D5F"/>
<path d="M107.66 168.514L118.893 153.378V155.419L109.175 168.514H107.66Z" fill="#EE3C60"/>
<path d="M106.15 168.514L118.893 151.336V153.378L107.66 168.514H106.15Z" fill="#EE3B61"/>
<path d="M104.635 168.514L118.893 149.29V151.336L106.15 168.514H104.635Z" fill="#EE3B62"/>
<path d="M103.12 168.514L118.893 147.249V149.291L104.635 168.514H103.12Z" fill="#EE3A63"/>
<path d="M101.605 168.514L118.893 145.208V147.249L103.12 168.514H101.605Z" fill="#EE3964"/>
<path d="M100.09 168.514L118.893 143.166V145.208L101.605 168.514H100.09Z" fill="#EE3965"/>
<path d="M98.5757 168.514L118.893 141.125V143.166L100.09 168.514H98.5757Z" fill="#EE3866"/>
<path d="M97.0609 168.514L118.893 139.083V141.124L98.5757 168.514H97.0609Z" fill="#EE3767"/>
<path d="M95.5461 168.514L118.893 137.042V139.083L97.0609 168.514H95.5461Z" fill="#EE3768"/>
<path d="M94.0312 168.514L118.893 135V137.042L95.5461 168.514H94.0312Z" fill="#EE3669"/>
<path d="M92.5165 168.514L118.893 132.958V135L94.0313 168.514H92.5165Z" fill="#EE356A"/>
<path d="M91.0016 168.514L117.941 132.201H118.893V132.958L92.5165 168.514H91.0016Z" fill="#EE356C"/>
<path d="M89.4868 168.514L116.426 132.201H117.941L91.0016 168.514H89.4868Z" fill="#EE346D"/>
<path d="M87.972 168.514L114.911 132.201H116.426L89.4869 168.514H87.972Z" fill="#EE336E"/>
<path d="M86.4572 168.514L113.396 132.201H114.911L87.972 168.514H86.4572Z" fill="#ED326F"/>
<path d="M84.9424 168.514L111.882 132.201H113.396L86.4572 168.514H84.9424Z" fill="#ED3270"/>
<path d="M83.4276 168.514L110.367 132.201H111.882L84.9424 168.514H83.4276Z" fill="#ED3171"/>
<path d="M82.8276 167.281L108.852 132.201H110.367L83.4276 168.514H82.8276V167.281Z" fill="#ED3072"/>
<path d="M82.8276 165.239L107.337 132.201H108.852L82.8276 167.281V165.239Z" fill="#ED3073"/>
<path d="M82.8276 163.198L105.822 132.201H107.337L82.8276 165.239V163.198Z" fill="#ED2F74"/>
<path d="M82.8276 161.156L104.308 132.201H105.822L82.8276 163.198V161.156Z" fill="#ED2E75"/>
<path d="M82.8276 159.115L102.793 132.201H104.308L82.8276 161.156V159.115Z" fill="#ED2E76"/>
<path d="M82.8276 157.073L101.278 132.201H102.793L82.8276 159.115V157.073Z" fill="#ED2D77"/>
<path d="M82.8276 155.032L99.7632 132.201H101.278L82.8276 157.073V155.032Z" fill="#ED2C78"/>
<path d="M82.8276 152.986L98.2484 132.201H99.7632L82.8276 155.032V152.986Z" fill="#ED2C79"/>
<path d="M82.8276 150.945L96.7336 132.201H98.2484L82.8276 152.986V150.945Z" fill="#ED2B7A"/>
<path d="M82.8276 148.903L95.2188 132.201H96.7336L82.8276 150.945V148.903Z" fill="#ED2A7B"/>
<path d="M82.8276 146.862L93.704 132.201H95.2188L82.8276 148.903V146.862Z" fill="#ED297C"/>
<path d="M82.8276 144.82L92.1892 132.201H93.704L82.8276 146.862V144.82Z" fill="#ED297D"/>
</g>
</g>
<mask id="mask12_993_30" style="mask-type:luminance" maskUnits="userSpaceOnUse" x="110" y="139" width="17" height="22">
<path d="M123.543 140.11C123.316 140.228 123.115 140.396 122.93 140.615C122.745 140.834 122.578 141.074 122.427 141.326C122.275 141.579 122.087 141.891 121.86 142.261L118.125 148.28L114.429 142.261C113.862 141.331 113.438 140.712 113.153 140.4C112.868 140.089 112.452 139.933 111.907 139.933C111.361 139.933 110.946 140.102 110.593 140.434C110.237 140.767 110.06 141.162 110.06 141.625C110.06 141.907 110.149 142.236 110.325 142.615C110.501 142.993 110.799 143.52 111.223 144.197L116.053 151.707V157.995C116.053 158.824 116.237 159.439 116.606 159.843C116.976 160.243 117.458 160.445 118.05 160.445C118.642 160.445 119.116 160.243 119.493 159.835C119.871 159.431 120.06 158.816 120.06 157.995V151.707L125.007 144.092C125.423 143.469 125.712 142.985 125.884 142.631C126.056 142.278 126.14 141.928 126.14 141.575C126.14 141.141 125.972 140.762 125.637 140.43C125.301 140.102 124.877 139.937 124.374 139.937C124.05 139.937 123.773 139.996 123.551 140.114" fill="white"/>
</mask>
<g mask="url(#mask12_993_30)">
<mask id="mask13_993_30" style="mask-type:luminance" maskUnits="userSpaceOnUse" x="100" y="132" width="36" height="37">
<path d="M115.786 132.199L100.266 153.123L120.405 168.154L135.924 147.229L115.786 132.199Z" fill="white"/>
</mask>
<g mask="url(#mask13_993_30)">
<path d="M126.098 168.165L135.921 154.918V156.96L127.613 168.165H126.098Z" fill="#EF4454"/>
<path d="M124.583 168.165L135.921 152.877V154.918L126.098 168.165H124.583Z" fill="#EF4455"/>
<path d="M123.069 168.165L135.921 150.835V152.877L124.583 168.165H123.069Z" fill="#EF4356"/>
<path d="M121.554 168.165L135.921 148.794V150.835L123.069 168.165H121.554Z" fill="#EF4257"/>
<path d="M120.039 168.165L135.921 146.752V148.794L121.554 168.165H120.039Z" fill="#EF4258"/>
<path d="M118.524 168.165L135.921 144.711V146.752L120.039 168.165H118.524Z" fill="#EE4159"/>
<path d="M117.009 168.165L135.921 142.669V144.711L118.524 168.165H117.009Z" fill="#EE405A"/>
<path d="M115.495 168.165L135.921 140.624V142.669L117.009 168.165H115.495Z" fill="#EE405B"/>
<path d="M113.98 168.165L135.921 138.582V140.624L115.494 168.165H113.98Z" fill="#EE3F5C"/>
<path d="M112.465 168.165L135.921 136.541V138.582L113.98 168.165H112.465Z" fill="#EE3E5D"/>
<path d="M110.95 168.165L135.921 134.499V136.541L112.465 168.165H110.95Z" fill="#EE3E5E"/>
<path d="M109.435 168.165L135.921 132.458V134.499L110.95 168.165H109.435Z" fill="#EE3D5F"/>
<path d="M107.92 168.165L134.591 132.214H135.921V132.458L109.435 168.165H107.92Z" fill="#EE3C60"/>
<path d="M106.406 168.165L133.076 132.214H134.591L107.921 168.165H106.406Z" fill="#EE3B61"/>
<path d="M104.891 168.165L131.562 132.214H133.076L106.406 168.165H104.891Z" fill="#EE3B62"/>
<path d="M103.376 168.165L130.047 132.214H131.561L104.891 168.165H103.376Z" fill="#EE3A63"/>
<path d="M101.865 168.165L128.532 132.214H130.047L103.376 168.165H101.865Z" fill="#EE3964"/>
<path d="M100.351 168.165L127.017 132.214H128.532L101.865 168.165H100.351Z" fill="#EE3965"/>
<path d="M100.267 166.237L125.502 132.214H127.017L100.351 168.165H100.267V166.237Z" fill="#EE3866"/>
<path d="M100.267 164.191L123.987 132.214H125.502L100.267 166.237V164.191Z" fill="#EE3767"/>
<path d="M100.267 162.15L122.473 132.214H123.987L100.267 164.191V162.15Z" fill="#EE3768"/>
<path d="M100.267 160.108L120.958 132.214H122.473L100.267 162.15V160.108Z" fill="#EE3669"/>
<path d="M100.267 158.067L119.447 132.214H120.958L100.267 160.108V158.067Z" fill="#EE356A"/>
<path d="M100.267 156.025L117.932 132.214H119.447L100.267 158.067V156.025Z" fill="#EE356C"/>
<path d="M100.267 153.984L116.418 132.214H117.932L100.267 156.025V153.984Z" fill="#EE346D"/>
<path d="M100.267 151.942L114.903 132.214H116.418L100.267 153.984V151.942Z" fill="#EE336E"/>
<path d="M100.267 149.901L113.388 132.214H114.903L100.267 151.942V149.901Z" fill="#ED326F"/>
<path d="M100.267 147.859L111.873 132.214H113.388L100.267 149.901V147.859Z" fill="#ED3270"/>
<path d="M100.267 145.818L110.358 132.214H111.873L100.267 147.859V145.818Z" fill="#ED3171"/>
<path d="M100.267 143.776L108.844 132.214H110.358L100.267 145.818V143.776Z" fill="#ED3072"/>
</g>
</g>
<path d="M63.2148 166.59C63.9239 166.59 64.4568 166.767 64.8219 167.112C65.187 167.458 65.3716 167.967 65.3716 168.628C65.3716 168.981 65.2877 169.297 65.124 169.575C64.9562 169.853 64.717 170.072 64.3897 170.236C64.0666 170.4 63.6721 170.484 63.2022 170.492L63.2148 170.063C63.4707 170.063 63.7435 170.097 64.0414 170.168C64.3393 170.24 64.6163 170.358 64.8848 170.526C65.1534 170.694 65.3674 170.926 65.5352 171.216C65.7031 171.507 65.787 171.865 65.787 172.298C65.787 172.77 65.7115 173.161 65.5562 173.473C65.401 173.784 65.1953 174.032 64.9394 174.213C64.6792 174.394 64.4023 174.521 64.1044 174.588C63.8064 174.655 63.5085 174.693 63.2148 174.693H60.2649C60.097 174.693 59.9544 174.639 59.8453 174.525C59.732 174.415 59.6774 174.272 59.6774 174.104V167.188C59.6774 167.02 59.732 166.877 59.8453 166.767C59.9586 166.658 60.097 166.599 60.2649 166.599H63.2148V166.59ZM63.0427 167.735H60.7852L60.9237 167.542V170.029L60.7978 169.903H63.0805C63.3574 169.895 63.6008 169.802 63.8148 169.617C64.0246 169.436 64.1295 169.167 64.1295 168.813C64.1295 168.459 64.0288 168.19 63.8358 168.009C63.6428 167.828 63.3784 167.735 63.0469 167.735H63.0427ZM63.135 171.044H60.8398L60.9195 170.951V173.679L60.8272 173.578H63.1896C63.5966 173.578 63.9239 173.473 64.1715 173.258C64.4191 173.047 64.5407 172.723 64.5407 172.294C64.5407 171.932 64.4694 171.663 64.3225 171.482C64.1757 171.305 63.9953 171.187 63.7812 171.132C63.5672 171.073 63.3491 171.044 63.135 171.044Z" fill="#666667"/>
<path d="M69.9034 174.803C69.2656 174.803 68.7117 174.668 68.2418 174.403C67.776 174.138 67.4109 173.772 67.1508 173.304C66.8948 172.837 66.7647 172.302 66.7647 171.701C66.7647 171.023 66.899 170.442 67.1717 169.962C67.4445 169.478 67.8012 169.108 68.2376 168.851C68.6781 168.594 69.1397 168.464 69.6349 168.464C70.0083 168.464 70.3692 168.539 70.7091 168.691C71.0448 168.842 71.3469 169.049 71.6154 169.318C71.884 169.587 72.0896 169.895 72.2449 170.257C72.3959 170.615 72.4798 171.006 72.4882 171.431C72.4798 171.587 72.4211 171.713 72.3036 171.814C72.1861 171.915 72.0518 171.966 71.9008 171.966H67.4151L67.1382 170.985H71.4728L71.2546 171.195V170.905C71.2294 170.636 71.1371 170.4 70.9776 170.198C70.814 169.996 70.6168 169.84 70.386 169.722C70.151 169.604 69.9034 169.55 69.6433 169.55C69.4125 169.55 69.1901 169.583 68.9803 169.659C68.7705 169.735 68.5816 169.853 68.4138 170.013C68.2459 170.173 68.1201 170.387 68.0236 170.657C67.927 170.922 67.8809 171.25 67.8809 171.646C67.8809 172.071 67.969 172.441 68.1452 172.757C68.3215 173.073 68.5607 173.317 68.8628 173.494C69.1649 173.671 69.4922 173.755 69.8531 173.755C70.1384 173.755 70.3692 173.725 70.5496 173.666C70.7301 173.607 70.8811 173.54 71.0112 173.452C71.1371 173.367 71.2462 173.283 71.3385 173.207C71.456 173.136 71.5651 173.102 71.6742 173.102C71.8211 173.102 71.9385 173.149 72.0309 173.245C72.1232 173.342 72.1693 173.456 72.1693 173.586C72.1693 173.755 72.0854 173.91 71.9176 174.049C71.7078 174.251 71.4224 174.428 71.0574 174.58C70.6923 174.735 70.3063 174.811 69.9076 174.811L69.9034 174.803Z" fill="#666667"/>
<path d="M77.7208 166.582C77.8132 166.582 77.9097 166.607 78.0104 166.658C78.1111 166.708 78.1866 166.771 78.2412 166.851L81.1701 171.326L80.6749 171.301L83.6626 166.847C83.7843 166.67 83.9437 166.582 84.1367 166.582C84.292 166.582 84.4263 166.637 84.5438 166.75C84.6612 166.864 84.7242 167.003 84.7242 167.171V174.1C84.7242 174.268 84.6654 174.411 84.5563 174.521C84.4472 174.63 84.3004 174.689 84.1241 174.689C83.9479 174.689 83.801 174.634 83.6919 174.521C83.5828 174.411 83.5241 174.268 83.5241 174.1V168.236L83.8934 168.316L81.3589 172.193C81.3043 172.26 81.233 172.323 81.1449 172.374C81.0568 172.425 80.9686 172.45 80.8847 172.45C80.8008 172.45 80.7127 172.425 80.6246 172.374C80.5364 172.323 80.4651 172.265 80.4106 172.193L77.9642 168.375L78.2412 167.912V174.1C78.2412 174.268 78.1908 174.411 78.0859 174.521C77.981 174.634 77.8425 174.689 77.6747 174.689C77.5068 174.689 77.381 174.634 77.276 174.521C77.1711 174.411 77.1208 174.268 77.1208 174.1V167.171C77.1208 167.02 77.1795 166.881 77.3012 166.763C77.4229 166.645 77.5614 166.586 77.7208 166.586V166.582Z" fill="#666667"/>
<path d="M90.968 168.556C91.1359 168.556 91.2785 168.611 91.3834 168.725C91.4925 168.834 91.5429 168.977 91.5429 169.146V174.121C91.5429 174.799 91.417 175.35 91.1568 175.775C90.8967 176.2 90.5526 176.512 90.1204 176.705C89.6882 176.903 89.1931 177 88.6518 177C88.3748 177 88.0979 176.975 87.8209 176.924C87.544 176.874 87.3174 176.806 87.1411 176.722C86.9565 176.638 86.8264 176.529 86.7509 176.407C86.6754 176.28 86.6628 176.141 86.7173 175.994C86.7719 175.809 86.8642 175.683 86.9943 175.619C87.1244 175.556 87.2586 175.548 87.3971 175.603C87.5272 175.657 87.6992 175.729 87.9132 175.813C88.1314 175.897 88.3748 175.939 88.6518 175.939C89.0252 175.939 89.3441 175.876 89.6001 175.754C89.8602 175.628 90.0575 175.438 90.1917 175.177C90.3302 174.916 90.4015 174.576 90.4015 174.159V173.359L90.5862 173.649C90.4645 173.898 90.3008 174.104 90.0952 174.272C89.8896 174.441 89.6546 174.576 89.3861 174.664C89.1175 174.757 88.8154 174.803 88.4839 174.803C88.0601 174.803 87.6992 174.71 87.3929 174.517C87.0908 174.327 86.8558 174.066 86.6922 173.729C86.5243 173.397 86.4446 173.01 86.4446 172.58V169.146C86.4446 168.977 86.4991 168.834 86.6124 168.725C86.7257 168.615 86.8642 168.556 87.0362 168.556C87.2083 168.556 87.3342 168.611 87.4433 168.725C87.5524 168.838 87.6111 168.977 87.6111 169.146V172.269C87.6111 172.778 87.7202 173.149 87.9426 173.384C88.165 173.62 88.4965 173.738 88.9329 173.738C89.2266 173.738 89.4784 173.675 89.6924 173.553C89.9064 173.431 90.0742 173.258 90.2001 173.039C90.326 172.82 90.3848 172.564 90.3848 172.269V169.146C90.3848 168.977 90.4393 168.834 90.5484 168.725C90.6575 168.611 90.7918 168.556 90.9638 168.556H90.968Z" fill="#666667"/>
<path d="M100.241 174.803C99.6498 174.803 99.1001 174.698 98.6008 174.487C98.0973 174.277 97.6525 173.978 97.2664 173.595C96.8804 173.212 96.5825 172.77 96.3685 172.269C96.1503 171.768 96.0453 171.225 96.0453 170.64C96.0453 170.055 96.1545 169.512 96.3685 169.011C96.5825 168.51 96.8846 168.068 97.2664 167.689C97.6483 167.306 98.0931 167.011 98.6008 166.797C99.1043 166.586 99.6498 166.481 100.241 166.481C100.619 166.481 100.98 166.523 101.332 166.607C101.681 166.692 102.004 166.818 102.298 166.978C102.398 167.032 102.47 167.104 102.516 167.192C102.562 167.281 102.587 167.369 102.587 167.462C102.587 167.618 102.533 167.756 102.423 167.874C102.314 167.992 102.184 168.051 102.033 168.051C101.979 168.051 101.924 168.043 101.874 168.026C101.819 168.009 101.765 167.992 101.714 167.967C101.496 167.866 101.27 167.786 101.022 167.723C100.774 167.66 100.518 167.63 100.25 167.63C99.696 167.63 99.1966 167.765 98.7519 168.034C98.3071 168.304 97.9546 168.666 97.6944 169.116C97.4385 169.566 97.3084 170.072 97.3084 170.636C97.3084 171.2 97.4385 171.696 97.6944 172.159C97.9546 172.618 98.3029 172.98 98.7519 173.245C99.1966 173.511 99.696 173.645 100.25 173.645C100.518 173.645 100.804 173.612 101.102 173.544C101.4 173.477 101.656 173.393 101.861 173.283L101.769 173.595V171.398L101.954 171.562H100.443C100.275 171.562 100.132 171.507 100.023 171.398C99.91 171.288 99.8554 171.153 99.8554 170.981C99.8554 170.808 99.91 170.669 100.023 170.564C100.132 170.455 100.275 170.404 100.443 170.404H102.428C102.596 170.404 102.738 170.459 102.847 170.572C102.956 170.686 103.015 170.825 103.015 170.993V173.561C103.015 173.683 102.986 173.788 102.923 173.873C102.86 173.957 102.793 174.028 102.713 174.083C102.361 174.302 101.974 174.474 101.555 174.605C101.135 174.735 100.699 174.803 100.246 174.803H100.241Z" fill="#666667"/>
<path d="M108.911 168.603C109.074 168.603 109.209 168.661 109.322 168.771C109.431 168.885 109.49 169.023 109.49 169.192V172.235C109.49 173.039 109.267 173.662 108.823 174.112C108.378 174.563 107.748 174.79 106.93 174.79C106.112 174.79 105.487 174.563 105.046 174.112C104.605 173.662 104.383 173.035 104.383 172.235V169.192C104.383 169.023 104.438 168.88 104.551 168.771C104.664 168.661 104.803 168.603 104.975 168.603C105.147 168.603 105.273 168.661 105.382 168.771C105.491 168.885 105.55 169.023 105.55 169.192V172.235C105.55 172.736 105.667 173.111 105.898 173.355C106.129 173.599 106.477 173.725 106.93 173.725C107.383 173.725 107.74 173.603 107.975 173.355C108.21 173.106 108.323 172.736 108.323 172.235V169.192C108.323 169.023 108.382 168.88 108.491 168.771C108.604 168.661 108.743 168.603 108.911 168.603Z" fill="#666667"/>
<path d="M113.917 174.803C113.279 174.803 112.725 174.668 112.255 174.403C111.789 174.138 111.424 173.772 111.164 173.304C110.908 172.837 110.778 172.302 110.778 171.701C110.778 171.023 110.912 170.442 111.185 169.962C111.458 169.478 111.814 169.108 112.251 168.851C112.691 168.594 113.153 168.464 113.648 168.464C114.022 168.464 114.382 168.539 114.722 168.691C115.058 168.842 115.36 169.049 115.629 169.318C115.897 169.587 116.103 169.895 116.258 170.257C116.409 170.615 116.493 171.006 116.501 171.431C116.493 171.587 116.434 171.713 116.317 171.814C116.199 171.915 116.065 171.966 115.914 171.966H111.428L111.151 170.985H115.486L115.268 171.195V170.905C115.243 170.636 115.15 170.4 114.991 170.198C114.827 169.996 114.63 169.84 114.399 169.722C114.164 169.604 113.917 169.55 113.656 169.55C113.426 169.55 113.203 169.583 112.994 169.659C112.784 169.735 112.595 169.853 112.427 170.013C112.259 170.173 112.133 170.387 112.037 170.657C111.94 170.922 111.894 171.25 111.894 171.646C111.894 172.071 111.982 172.441 112.158 172.757C112.335 173.073 112.574 173.317 112.876 173.494C113.178 173.671 113.505 173.755 113.866 173.755C114.152 173.755 114.382 173.725 114.563 173.666C114.743 173.607 114.894 173.54 115.024 173.452C115.15 173.367 115.259 173.283 115.352 173.207C115.469 173.136 115.578 173.102 115.687 173.102C115.834 173.102 115.952 173.149 116.044 173.245C116.136 173.342 116.183 173.456 116.183 173.586C116.183 173.755 116.099 173.91 115.931 174.049C115.721 174.251 115.436 174.428 115.071 174.58C114.706 174.735 114.319 174.811 113.921 174.811L113.917 174.803Z" fill="#666667"/>
<path d="M117.446 173.742C117.378 173.633 117.345 173.506 117.353 173.367C117.362 173.224 117.441 173.102 117.597 173.005C117.706 172.934 117.819 172.904 117.937 172.917C118.054 172.93 118.167 172.989 118.276 173.098C118.49 173.338 118.73 173.523 118.998 173.666C119.263 173.805 119.581 173.877 119.959 173.877C120.114 173.868 120.27 173.843 120.433 173.801C120.597 173.759 120.735 173.683 120.849 173.569C120.966 173.46 121.021 173.292 121.021 173.077C121.021 172.883 120.958 172.732 120.836 172.618C120.71 172.509 120.551 172.412 120.354 172.336C120.152 172.26 119.934 172.189 119.695 172.126C119.447 172.054 119.204 171.978 118.956 171.894C118.709 171.81 118.486 171.701 118.281 171.566C118.075 171.431 117.916 171.254 117.79 171.04C117.664 170.825 117.605 170.56 117.605 170.24C117.605 169.878 117.706 169.566 117.903 169.301C118.104 169.04 118.369 168.834 118.7 168.691C119.032 168.544 119.384 168.472 119.762 168.472C119.993 168.472 120.232 168.502 120.479 168.556C120.723 168.615 120.962 168.708 121.193 168.83C121.424 168.956 121.625 169.116 121.793 169.314C121.868 169.415 121.915 169.533 121.927 169.672C121.94 169.811 121.877 169.941 121.734 170.055C121.642 170.131 121.533 170.164 121.403 170.156C121.273 170.147 121.163 170.101 121.079 170.021C120.933 169.836 120.748 169.693 120.513 169.592C120.282 169.491 120.022 169.44 119.728 169.44C119.581 169.44 119.43 169.457 119.275 169.499C119.12 169.541 118.986 169.613 118.877 169.718C118.767 169.827 118.717 169.983 118.717 170.194C118.717 170.387 118.78 170.539 118.91 170.657C119.036 170.775 119.204 170.867 119.409 170.947C119.615 171.027 119.842 171.094 120.089 171.158C120.328 171.221 120.563 171.292 120.798 171.376C121.033 171.461 121.243 171.57 121.432 171.705C121.621 171.839 121.772 172.012 121.894 172.223C122.015 172.433 122.074 172.702 122.074 173.026C122.074 173.405 121.965 173.729 121.747 173.995C121.528 174.26 121.252 174.462 120.916 174.601C120.58 174.74 120.228 174.811 119.858 174.811C119.422 174.811 118.981 174.731 118.549 174.575C118.117 174.416 117.748 174.142 117.45 173.746L117.446 173.742Z" fill="#666667"/>
<path d="M123.232 168.674H125.943C126.098 168.674 126.228 168.725 126.329 168.83C126.43 168.935 126.484 169.061 126.484 169.217C126.484 169.373 126.434 169.499 126.329 169.6C126.224 169.701 126.094 169.752 125.943 169.752H123.232C123.081 169.752 122.951 169.701 122.846 169.596C122.741 169.491 122.691 169.36 122.691 169.209C122.691 169.057 122.741 168.927 122.846 168.826C122.951 168.725 123.081 168.674 123.232 168.674ZM124.445 167.167C124.613 167.167 124.751 167.226 124.86 167.336C124.969 167.449 125.024 167.588 125.024 167.757V173.123C125.024 173.262 125.045 173.376 125.091 173.46C125.137 173.544 125.2 173.603 125.28 173.633C125.364 173.662 125.443 173.679 125.527 173.679C125.611 173.679 125.687 173.662 125.754 173.633C125.817 173.603 125.897 173.586 125.989 173.586C126.081 173.586 126.165 173.628 126.241 173.713C126.316 173.797 126.358 173.915 126.358 174.062C126.358 174.247 126.258 174.395 126.056 174.512C125.855 174.63 125.641 174.685 125.41 174.685C125.28 174.685 125.125 174.672 124.948 174.651C124.772 174.63 124.6 174.571 124.436 174.479C124.273 174.386 124.134 174.239 124.021 174.033C123.908 173.831 123.853 173.54 123.853 173.17V167.757C123.853 167.588 123.912 167.445 124.025 167.336C124.143 167.226 124.277 167.167 124.441 167.167H124.445Z" fill="#666667"/>
</g>
<defs>
<clipPath id="clip0_993_30">
<rect width="159" height="177" fill="white"/>
</clipPath>
</defs>
</svg>
