<?xml version="1.0" encoding="UTF-8"?><svg id="Layer_1" xmlns="http://www.w3.org/2000/svg" xmlns:xlink="http://www.w3.org/1999/xlink" viewBox="0 0 378.92 420.5"><defs><clipPath id="clippath"><path d="M109.52,156.49c0,60.38,53.81,126.81,73.13,148.73,2.82-39.15,4.55-76.12,.66-82.97-8.05-14.15-33.55-28.97-28.46-64.43,4.67-32.54,23.88-44.98,34.61-44.98s30.16,12.88,34.62,44.98c4.92,35.49-20.41,50.27-28.46,64.43-3.91,6.86-2.19,43.84,.66,82.99,19.34-21.83,73.11-88.02,73.11-148.75,0-44.14-35.8-79.92-79.94-79.92s-79.94,35.78-79.94,79.92" style="fill:none;"/></clipPath><clipPath id="clippath-1"><rect x="50.01" y="58.52" width="278.9" height="264.78" transform="translate(-76.8 228.94) rotate(-53.35)" style="fill:none;"/></clipPath><clipPath id="clippath-2"><path d="M196.32,122.18c-.14,.19-.13,.45,.05,.62,6.39,6.09,12.78,17.87,14.82,36.85,3.15,29.29-10.82,43.47-18.13,55.49h.28c8.58-12.14,28.35-25.82,24.17-55.88-2.77-20-11.95-31.77-20.59-37.18-.08-.05-.16-.07-.24-.07-.14,0-.28,.06-.37,.18" style="fill:none;"/></clipPath><clipPath id="clippath-3"><rect x="161.47" y="129.28" width="91.81" height="78.57" transform="translate(-51.66 234.31) rotate(-53.35)" style="fill:none;"/></clipPath><clipPath id="clippath-4"><path d="M92.53,334.13c-3.04,1.13-5.62,2.75-7.74,4.87-2.12,2.12-3.73,4.7-4.82,7.75-1.09,3.04-1.64,6.39-1.64,10.06s.56,7.1,1.69,10.12c1.12,3.02,2.74,5.59,4.84,7.71,2.1,2.12,4.64,3.74,7.62,4.85,2.98,1.11,6.28,1.67,9.9,1.67,3.11,0,5.98-.35,8.61-1.06,2.63-.71,5.38-1.83,8.23-3.37,.99-.54,1.79-1.09,2.43-1.67,.63-.58,1.07-1.23,1.3-1.95,.23-.72,.35-1.68,.35-2.88v-9.03c0-1.63-.29-2.85-.85-3.66-.57-.81-1.31-1.34-2.23-1.58-.92-.23-2.04-.35-3.37-.35h-10.83c-1.31,0-2.34,.34-3.1,1.03-.76,.69-1.14,1.55-1.14,2.6,0,1.28,.46,2.2,1.37,2.73,.91,.54,2.25,.8,4.03,.8h7.39v7.65c-1.99,1.07-3.96,1.9-5.9,2.47-1.94,.58-4.01,.87-6.22,.87-4.54,0-8.08-1.49-10.62-4.47-2.54-2.98-3.81-7.23-3.81-12.76,0-2.55,.33-4.87,.98-6.97,.65-2.1,1.59-3.87,2.83-5.32,1.23-1.45,2.72-2.55,4.45-3.31,1.73-.76,3.71-1.14,5.91-1.14s3.9,.32,5.28,.96c1.38,.64,2.48,1.44,3.29,2.38,.81,.94,1.81,2.34,2.99,4.18,.43,.58,.96,1.03,1.59,1.35,.63,.32,1.29,.48,1.98,.48,1.24,0,2.31-.42,3.2-1.27,.89-.85,1.33-1.87,1.33-3.07,0-1.11-.39-2.39-1.16-3.82-.77-1.44-1.92-2.8-3.44-4.08-1.52-1.29-3.5-2.35-5.95-3.2-2.44-.85-5.25-1.27-8.42-1.27-3.86,0-7.31,.56-10.35,1.69" style="fill:none;"/></clipPath><clipPath id="clippath-5"><rect x="67.84" y="324.22" width="65.93" height="65.16" transform="translate(-245.62 224.68) rotate(-53.35)" style="fill:none;"/></clipPath><clipPath id="clippath-6"><path d="M163.81,333.87c-.86,.95-1.29,2.41-1.29,4.36v23.36c0,4.03-.77,7.03-2.31,9.02-1.54,1.98-4.18,2.97-7.91,2.97-2.7,0-4.8-.49-6.3-1.46-1.5-.97-2.54-2.35-3.13-4.11-.59-1.77-.88-3.97-.88-6.61v-23.17c0-1.93-.43-3.38-1.3-4.34-.87-.96-2.04-1.45-3.52-1.45s-2.56,.48-3.42,1.45c-.87,.96-1.3,2.41-1.3,4.34v22.66c0,3.56,.39,6.62,1.16,9.17,.77,2.56,1.98,4.66,3.63,6.3,1.65,1.64,3.78,2.85,6.4,3.63,2.61,.78,5.73,1.17,9.35,1.17,3.04,0,5.7-.36,7.97-1.09,2.27-.73,4.26-1.89,5.98-3.47,1.99-1.86,3.35-4.03,4.07-6.49,.72-2.46,1.08-5.54,1.08-9.22v-22.66c0-1.95-.45-3.4-1.33-4.36-.89-.95-2.05-1.43-3.49-1.43s-2.58,.48-3.44,1.43" style="fill:none;"/></clipPath><clipPath id="clippath-7"><rect x="120.89" y="326.36" width="62.74" height="60.88" transform="translate(-224.89 265.96) rotate(-53.35)" style="fill:none;"/></clipPath><clipPath id="clippath-8"><path d="M184.54,333.25c-1.46,0-2.55,.34-3.29,1.01-.74,.67-1.11,1.56-1.11,2.65s.37,1.9,1.11,2.54c.74,.64,1.84,.96,3.29,.96h20.79l-24.2,28.96c-.39,.45-.84,.98-1.35,1.59-.51,.61-.92,1.12-1.2,1.51-.29,.4-.52,.82-.69,1.27-.17,.45-.26,.94-.26,1.48,0,1.56,.53,2.81,1.58,3.74,1.05,.93,2.61,1.4,4.69,1.4h30.6c1.48,0,2.58-.33,3.31-1,.73-.66,1.09-1.56,1.09-2.7s-.36-1.94-1.09-2.55c-.73-.61-1.83-.92-3.31-.92h-24.94l22.62-26.93c1.76-2.06,2.93-3.54,3.5-4.47,.58-.92,.87-2.15,.87-3.7,0-3.23-1.73-4.85-5.21-4.85h-26.8Z" style="fill:none;"/></clipPath><clipPath id="clippath-9"><rect x="167.05" y="326.19" width="62.43" height="61.23" transform="translate(-206.34 302.87) rotate(-53.35)" style="fill:none;"/></clipPath><clipPath id="clippath-10"><path d="M225.16,333.25c-1.56,0-2.76,.35-3.58,1.06-.82,.71-1.24,1.67-1.24,2.89s.4,2.13,1.19,2.84c.79,.72,2,1.08,3.63,1.08h10.41v34.23c0,1.95,.44,3.41,1.33,4.37,.89,.96,2.04,1.45,3.46,1.45s2.53-.48,3.41-1.43c.88-.95,1.32-2.41,1.32-4.39v-34.23h10.41c1.63,0,2.85-.36,3.66-1.08,.81-.72,1.22-1.66,1.22-2.84s-.4-2.13-1.21-2.86c-.8-.73-2.03-1.09-3.68-1.09h-30.34Z" style="fill:none;"/></clipPath><clipPath id="clippath-11"><rect x="209.19" y="326.84" width="62.35" height="60.73" transform="translate(-189.7 336.8) rotate(-53.35)" style="fill:none;"/></clipPath><clipPath id="clippath-12"><path d="M294.42,332.86c-.54,.28-1.02,.68-1.46,1.2-.44,.52-.84,1.09-1.2,1.69-.36,.6-.81,1.34-1.35,2.22l-8.9,14.3-8.81-14.3c-1.35-2.21-2.36-3.68-3.04-4.42-.68-.74-1.67-1.11-2.97-1.11s-2.29,.4-3.13,1.19c-.85,.79-1.27,1.73-1.27,2.83,0,.67,.21,1.45,.63,2.35,.42,.9,1.13,2.15,2.14,3.76l11.51,17.84v14.94c0,1.97,.44,3.43,1.32,4.39,.88,.95,2.03,1.43,3.44,1.43s2.54-.48,3.44-1.45c.9-.96,1.35-2.42,1.35-4.37v-14.94l11.79-18.09c.99-1.48,1.68-2.63,2.09-3.47,.41-.84,.61-1.67,.61-2.51,0-1.03-.4-1.93-1.2-2.72-.8-.78-1.81-1.17-3.01-1.17-.77,0-1.43,.14-1.96,.42" style="fill:none;"/></clipPath><clipPath id="clippath-13"><rect x="250.46" y="326.89" width="61.96" height="59.82" transform="translate(-172.82 369.59) rotate(-53.35)" style="fill:none;"/></clipPath></defs><g><g style="clip-path:url(#clippath);"><g style="clip-path:url(#clippath-1);"><polygon points="377.83 381.82 378.92 380.36 378.92 381.82 377.83 381.82" style="fill:#f9af2b;"/><polygon points="375.88 381.82 378.92 377.74 378.92 380.36 377.83 381.82 375.88 381.82" style="fill:#f9ae2c;"/><polygon points="373.94 381.82 378.92 375.12 378.92 377.74 375.88 381.82 373.94 381.82" style="fill:#f9ad2c;"/><polygon points="371.99 381.82 378.92 372.51 378.92 375.12 373.94 381.82 371.99 381.82" style="fill:#f9ac2c;"/><polygon points="370.04 381.82 378.92 369.89 378.92 372.51 371.99 381.82 370.04 381.82" style="fill:#f8ab2c;"/><polygon points="368.09 381.82 378.92 367.27 378.92 369.89 370.04 381.82 368.09 381.82" style="fill:#f8aa2c;"/><polygon points="366.15 381.82 378.92 364.65 378.92 367.27 368.09 381.82 366.15 381.82" style="fill:#f8a92c;"/><polygon points="364.2 381.82 378.92 362.04 378.92 364.65 366.15 381.82 364.2 381.82" style="fill:#f8a82c;"/><polygon points="362.25 381.82 378.92 359.42 378.92 362.04 364.2 381.82 362.25 381.82" style="fill:#f8a72d;"/><polygon points="360.3 381.82 378.92 356.8 378.92 359.42 362.25 381.82 360.3 381.82" style="fill:#f8a62d;"/><polygon points="358.36 381.82 378.92 354.18 378.92 356.8 360.3 381.82 358.36 381.82" style="fill:#f8a52d;"/><polygon points="356.41 381.82 378.92 351.57 378.92 354.18 358.36 381.82 356.41 381.82" style="fill:#f8a42d;"/><polygon points="354.46 381.82 378.92 348.95 378.92 351.57 356.41 381.82 354.46 381.82" style="fill:#f8a32d;"/><polygon points="352.51 381.82 378.92 346.33 378.92 348.95 354.46 381.82 352.51 381.82" style="fill:#f8a22d;"/><polygon points="350.57 381.82 378.92 343.71 378.92 346.33 352.51 381.82 350.57 381.82" style="fill:#f7a12e;"/><polygon points="348.62 381.82 378.92 341.1 378.92 343.71 350.57 381.82 348.62 381.82" style="fill:#f7a02e;"/><polygon points="346.67 381.82 378.92 338.48 378.92 341.1 348.62 381.82 346.67 381.82" style="fill:#f79e2e;"/><polygon points="344.72 381.82 378.92 335.86 378.92 338.48 346.67 381.82 344.72 381.82" style="fill:#f79d2e;"/><polygon points="342.77 381.82 378.92 333.25 378.92 335.86 344.72 381.82 342.77 381.82" style="fill:#f79c2e;"/><polygon points="340.83 381.82 378.92 330.63 378.92 333.25 342.77 381.82 340.83 381.82" style="fill:#f79b2e;"/><polygon points="338.88 381.82 378.92 328.01 378.92 330.63 340.83 381.82 338.88 381.82" style="fill:#f79a2f;"/><polygon points="336.93 381.82 378.92 325.39 378.92 328.01 338.88 381.82 336.93 381.82" style="fill:#f7992f;"/><polygon points="334.98 381.82 378.92 322.78 378.92 325.39 336.93 381.82 334.98 381.82" style="fill:#f7982f;"/><polygon points="333.04 381.82 378.92 320.16 378.92 322.78 334.98 381.82 333.04 381.82" style="fill:#f7972f;"/><polygon points="331.09 381.82 378.92 317.54 378.92 320.16 333.04 381.82 331.09 381.82" style="fill:#f6962f;"/><polygon points="329.14 381.82 378.92 314.92 378.92 317.54 331.09 381.82 329.14 381.82" style="fill:#f6952f;"/><polygon points="327.19 381.82 378.92 312.31 378.92 314.92 329.14 381.82 327.19 381.82" style="fill:#f6942f;"/><polygon points="325.25 381.82 378.92 309.69 378.92 312.31 327.19 381.82 325.25 381.82" style="fill:#f69330;"/><polygon points="323.3 381.82 378.92 307.07 378.92 309.69 325.25 381.82 323.3 381.82" style="fill:#f69230;"/><polygon points="321.35 381.82 378.92 304.45 378.92 307.07 323.3 381.82 321.35 381.82" style="fill:#f69130;"/><polygon points="319.4 381.82 378.92 301.84 378.92 304.45 321.35 381.82 319.4 381.82" style="fill:#f69030;"/><polygon points="317.46 381.82 378.92 299.22 378.92 301.84 319.4 381.82 317.46 381.82" style="fill:#f68f30;"/><polygon points="315.51 381.82 378.92 296.6 378.92 299.22 317.46 381.82 315.51 381.82" style="fill:#f68e30;"/><polygon points="313.56 381.82 378.92 293.99 378.92 296.6 315.51 381.82 313.56 381.82" style="fill:#f68d31;"/><polygon points="311.61 381.82 378.92 291.37 378.92 293.99 313.56 381.82 311.61 381.82" style="fill:#f58c31;"/><polygon points="309.67 381.82 378.92 288.75 378.92 291.37 311.61 381.82 309.67 381.82" style="fill:#f58b31;"/><polygon points="307.72 381.82 378.92 286.13 378.92 288.75 309.67 381.82 307.72 381.82" style="fill:#f58a31;"/><polygon points="305.77 381.82 378.92 283.52 378.92 286.13 307.72 381.82 305.77 381.82" style="fill:#f58931;"/><polygon points="303.82 381.82 378.92 280.9 378.92 283.52 305.77 381.82 303.82 381.82" style="fill:#f58831;"/><polygon points="301.88 381.82 378.92 278.28 378.92 280.9 303.82 381.82 301.88 381.82" style="fill:#f58731;"/><polygon points="299.93 381.82 378.92 275.66 378.92 278.28 301.88 381.82 299.93 381.82" style="fill:#f58632;"/><polygon points="297.98 381.82 378.92 273.05 378.92 275.66 299.93 381.82 297.98 381.82" style="fill:#f58532;"/><polygon points="296.03 381.82 378.92 270.43 378.92 273.05 297.98 381.82 296.03 381.82" style="fill:#f58432;"/><polygon points="294.09 381.82 378.92 267.81 378.92 270.43 296.03 381.82 294.09 381.82" style="fill:#f48332;"/><polygon points="292.14 381.82 378.92 265.19 378.92 267.81 294.09 381.82 292.14 381.82" style="fill:#f48232;"/><polygon points="290.19 381.82 378.92 262.58 378.92 265.19 292.14 381.82 290.19 381.82" style="fill:#f48132;"/><polygon points="288.24 381.82 378.92 259.96 378.92 262.58 290.19 381.82 288.24 381.82" style="fill:#f48033;"/><polygon points="286.3 381.82 378.92 257.34 378.92 259.96 288.24 381.82 286.3 381.82" style="fill:#f47f33;"/><polygon points="284.35 381.82 378.92 254.73 378.92 257.34 286.3 381.82 284.35 381.82" style="fill:#f47e33;"/><polygon points="282.4 381.82 378.92 252.11 378.92 254.73 284.35 381.82 282.4 381.82" style="fill:#f47d33;"/><polygon points="280.45 381.82 378.92 249.49 378.92 252.11 282.4 381.82 280.45 381.82" style="fill:#f47c33;"/><polygon points="278.51 381.82 378.92 246.87 378.92 249.49 280.45 381.82 278.51 381.82" style="fill:#f47b33;"/><polygon points="276.56 381.82 378.92 244.26 378.92 246.87 278.51 381.82 276.56 381.82" style="fill:#f47a34;"/><polygon points="274.61 381.82 378.92 241.64 378.92 244.26 276.56 381.82 274.61 381.82" style="fill:#f37934;"/><polygon points="272.66 381.82 378.92 239.02 378.92 241.64 274.61 381.82 272.66 381.82" style="fill:#f37834;"/><polygon points="270.72 381.82 378.92 236.4 378.92 239.02 272.66 381.82 270.72 381.82" style="fill:#f37734;"/><polygon points="268.77 381.82 378.92 233.79 378.92 236.4 270.72 381.82 268.77 381.82" style="fill:#f37634;"/><polygon points="266.82 381.82 378.92 231.17 378.92 233.79 268.77 381.82 266.82 381.82" style="fill:#f37534;"/><polygon points="264.87 381.82 378.92 228.55 378.92 231.17 266.82 381.82 264.87 381.82" style="fill:#f37434;"/><polygon points="262.93 381.82 378.92 225.94 378.92 228.55 264.87 381.82 262.93 381.82" style="fill:#f37335;"/><polygon points="260.98 381.82 378.92 223.32 378.92 225.94 262.93 381.82 260.98 381.82" style="fill:#f37235;"/><polygon points="259.03 381.82 378.92 220.7 378.92 223.32 260.98 381.82 259.03 381.82" style="fill:#f37135;"/><polygon points="257.08 381.82 378.92 218.08 378.92 220.7 259.03 381.82 257.08 381.82" style="fill:#f37035;"/><polygon points="255.14 381.82 378.92 215.47 378.92 218.08 257.08 381.82 255.14 381.82" style="fill:#f26f35;"/><polygon points="253.19 381.82 378.92 212.85 378.92 215.47 255.14 381.82 253.19 381.82" style="fill:#f26e35;"/><polygon points="251.24 381.82 378.92 210.23 378.92 212.85 253.19 381.82 251.24 381.82" style="fill:#f26d36;"/><polygon points="249.29 381.82 378.92 207.61 378.92 210.23 251.24 381.82 249.29 381.82" style="fill:#f26c36;"/><polygon points="247.35 381.82 378.92 205 378.92 207.61 249.29 381.82 247.35 381.82" style="fill:#f26b36;"/><polygon points="245.4 381.82 378.92 202.38 378.92 205 247.35 381.82 245.4 381.82" style="fill:#f26a36;"/><polygon points="243.45 381.82 378.92 199.76 378.92 202.38 245.4 381.82 243.45 381.82" style="fill:#f26936;"/><polygon points="241.5 381.82 378.92 197.14 378.92 199.76 243.45 381.82 241.5 381.82" style="fill:#f26836;"/><polygon points="239.56 381.82 378.92 194.53 378.92 197.14 241.5 381.82 239.56 381.82" style="fill:#f26736;"/><polygon points="237.61 381.82 378.92 191.91 378.92 194.53 239.56 381.82 237.61 381.82" style="fill:#f26637;"/><polygon points="235.66 381.82 378.92 189.29 378.92 191.91 237.61 381.82 235.66 381.82" style="fill:#f16537;"/><polygon points="233.71 381.82 378.92 186.68 378.92 189.29 235.66 381.82 233.71 381.82" style="fill:#f16437;"/><polygon points="231.77 381.82 378.92 184.06 378.92 186.68 233.71 381.82 231.77 381.82" style="fill:#f16337;"/><polygon points="229.82 381.82 378.92 181.44 378.92 184.06 231.77 381.82 229.82 381.82" style="fill:#f16237;"/><polygon points="227.87 381.82 378.92 178.82 378.92 181.44 229.82 381.82 227.87 381.82" style="fill:#f16137;"/><polygon points="225.92 381.82 378.92 176.21 378.92 178.82 227.87 381.82 225.92 381.82" style="fill:#f16038;"/><polygon points="223.98 381.82 378.92 173.59 378.92 176.21 225.92 381.82 223.98 381.82" style="fill:#f15f38;"/><polygon points="222.03 381.82 378.92 170.97 378.92 173.59 223.98 381.82 222.03 381.82" style="fill:#f15e38;"/><polygon points="220.08 381.82 378.92 168.35 378.92 170.97 222.03 381.82 220.08 381.82" style="fill:#f15d38;"/><polygon points="218.13 381.82 378.92 165.74 378.92 168.35 220.08 381.82 218.13 381.82" style="fill:#f15c38;"/><polygon points="216.19 381.82 378.92 163.12 378.92 165.74 218.13 381.82 216.19 381.82" style="fill:#f05b38;"/><polygon points="214.24 381.82 378.92 160.5 378.92 163.12 216.19 381.82 214.24 381.82" style="fill:#f05a39;"/><polygon points="212.29 381.82 378.92 157.88 378.92 160.5 214.24 381.82 212.29 381.82" style="fill:#f05939;"/><polygon points="210.34 381.82 378.92 155.27 378.92 157.88 212.29 381.82 210.34 381.82" style="fill:#f05839;"/><polygon points="208.4 381.82 378.92 152.65 378.92 155.27 210.34 381.82 208.4 381.82" style="fill:#f05739;"/><polygon points="205.78 381.82 378.92 149.13 378.92 152.65 208.4 381.82 205.78 381.82" style="fill:#f05739;"/><polygon points="203.16 381.82 378.92 145.62 378.92 149.13 205.78 381.82 203.16 381.82" style="fill:#f0563a;"/><polygon points="200.55 381.82 378.92 142.1 378.92 145.62 203.16 381.82 200.55 381.82" style="fill:#f0563b;"/><polygon points="197.93 381.82 378.92 138.59 378.92 142.1 200.55 381.82 197.93 381.82" style="fill:#f0553c;"/><polygon points="195.32 381.82 378.92 135.07 378.92 138.59 197.93 381.82 195.32 381.82" style="fill:#f0543d;"/><polygon points="192.7 381.82 378.92 131.56 378.92 135.07 195.32 381.82 192.7 381.82" style="fill:#f0543e;"/><polygon points="190.08 381.82 378.92 128.04 378.92 131.56 192.7 381.82 190.08 381.82" style="fill:#f0533f;"/><polygon points="187.47 381.82 378.92 124.53 378.92 128.04 190.08 381.82 187.47 381.82" style="fill:#f05240;"/><polygon points="184.85 381.82 378.92 121.01 378.92 124.53 187.47 381.82 184.85 381.82" style="fill:#f05241;"/><polygon points="182.24 381.82 378.92 117.49 378.92 121.01 184.85 381.82 182.24 381.82" style="fill:#f05142;"/><polygon points="179.62 381.82 378.92 113.98 378.92 117.49 182.24 381.82 179.62 381.82" style="fill:#f05043;"/><polygon points="177 381.82 378.92 110.46 378.92 113.98 179.62 381.82 177 381.82" style="fill:#ef4f44;"/><polygon points="174.39 381.82 378.92 106.95 378.92 110.46 177 381.82 174.39 381.82" style="fill:#ef4f45;"/><polygon points="171.77 381.82 378.92 103.43 378.92 106.95 174.39 381.82 171.77 381.82" style="fill:#ef4e46;"/><polygon points="169.16 381.82 378.92 99.92 378.92 103.43 171.77 381.82 169.16 381.82" style="fill:#ef4d47;"/><polygon points="166.54 381.82 378.92 96.4 378.92 99.92 169.16 381.82 166.54 381.82" style="fill:#ef4d48;"/><polygon points="163.92 381.82 378.92 92.89 378.92 96.4 166.54 381.82 163.92 381.82" style="fill:#ef4c49;"/><polygon points="161.31 381.82 378.92 89.37 378.92 92.89 163.92 381.82 161.31 381.82" style="fill:#ef4b4a;"/><polygon points="158.69 381.82 378.92 85.85 378.92 89.37 161.31 381.82 158.69 381.82" style="fill:#ef4b4b;"/><polygon points="156.08 381.82 378.92 82.34 378.92 85.85 158.69 381.82 156.08 381.82" style="fill:#ef4a4c;"/><polygon points="153.46 381.82 378.92 78.82 378.92 82.34 156.08 381.82 153.46 381.82" style="fill:#ef494d;"/><polygon points="150.85 381.82 378.92 75.31 378.92 78.82 153.46 381.82 150.85 381.82" style="fill:#ef494e;"/><polygon points="148.23 381.82 378.92 71.79 378.92 75.31 150.85 381.82 148.23 381.82" style="fill:#ef484f;"/><polygon points="145.61 381.82 378.92 68.28 378.92 71.79 148.23 381.82 145.61 381.82" style="fill:#ef4750;"/><polygon points="143 381.82 378.92 64.76 378.92 68.28 145.61 381.82 143 381.82" style="fill:#ef4651;"/><polygon points="140.38 381.82 378.92 61.25 378.92 64.76 143 381.82 140.38 381.82" style="fill:#ef4652;"/><polygon points="137.77 381.82 378.92 57.73 378.92 61.25 140.38 381.82 137.77 381.82" style="fill:#ef4553;"/><polygon points="135.15 381.82 378.92 54.21 378.92 57.73 137.77 381.82 135.15 381.82" style="fill:#ef4454;"/><polygon points="132.53 381.82 378.92 50.7 378.92 54.21 135.15 381.82 132.53 381.82" style="fill:#ef4455;"/><polygon points="129.92 381.82 378.92 47.18 378.92 50.7 132.53 381.82 129.92 381.82" style="fill:#ef4356;"/><polygon points="127.3 381.82 378.92 43.67 378.92 47.18 129.92 381.82 127.3 381.82" style="fill:#ef4257;"/><polygon points="124.69 381.82 378.92 40.15 378.92 43.67 127.3 381.82 124.69 381.82" style="fill:#ef4258;"/><polygon points="122.07 381.82 378.92 36.64 378.92 40.15 124.69 381.82 122.07 381.82" style="fill:#ee4159;"/><polygon points="119.45 381.82 378.92 33.12 378.92 36.64 122.07 381.82 119.45 381.82" style="fill:#ee405a;"/><polygon points="116.84 381.82 378.92 29.61 378.92 33.12 119.45 381.82 116.84 381.82" style="fill:#ee405b;"/><polygon points="114.22 381.82 378.92 26.09 378.92 29.61 116.84 381.82 114.22 381.82" style="fill:#ee3f5c;"/><polygon points="111.61 381.82 378.92 22.57 378.92 26.09 114.22 381.82 111.61 381.82" style="fill:#ee3e5d;"/><polygon points="108.99 381.82 378.92 19.06 378.92 22.57 111.61 381.82 108.99 381.82" style="fill:#ee3e5e;"/><polygon points="106.37 381.82 378.92 15.54 378.92 19.06 108.99 381.82 106.37 381.82" style="fill:#ee3d5f;"/><polygon points="103.76 381.82 378.92 12.03 378.92 15.54 106.37 381.82 103.76 381.82" style="fill:#ee3c60;"/><polygon points="101.14 381.82 378.92 8.51 378.92 12.03 103.76 381.82 101.14 381.82" style="fill:#ee3b61;"/><polygon points="98.53 381.82 378.92 5 378.92 8.51 101.14 381.82 98.53 381.82" style="fill:#ee3b62;"/><polygon points="95.91 381.82 378.92 1.48 378.92 5 98.53 381.82 95.91 381.82" style="fill:#ee3a63;"/><polygon points="93.3 381.82 377.4 0 378.92 0 378.92 1.48 95.91 381.82 93.3 381.82" style="fill:#ee3964;"/><polygon points="90.68 381.82 374.79 0 377.4 0 93.3 381.82 90.68 381.82" style="fill:#ee3965;"/><polygon points="88.06 381.82 372.17 0 374.79 0 90.68 381.82 88.06 381.82" style="fill:#ee3866;"/><polygon points="85.45 381.82 369.55 0 372.17 0 88.06 381.82 85.45 381.82" style="fill:#ee3767;"/><polygon points="82.83 381.82 366.94 0 369.55 0 85.45 381.82 82.83 381.82" style="fill:#ee3768;"/><polygon points="80.22 381.82 364.32 0 366.94 0 82.83 381.82 80.22 381.82" style="fill:#ee3669;"/><polygon points="77.6 381.82 361.71 0 364.32 0 80.22 381.82 77.6 381.82" style="fill:#ee356a;"/><polygon points="74.98 381.82 359.09 0 361.71 0 77.6 381.82 74.98 381.82" style="fill:#ee356c;"/><polygon points="72.37 381.82 356.47 0 359.09 0 74.98 381.82 72.37 381.82" style="fill:#ee346d;"/><polygon points="69.75 381.82 353.86 0 356.47 0 72.37 381.82 69.75 381.82" style="fill:#ee336e;"/><polygon points="67.14 381.82 351.24 0 353.86 0 69.75 381.82 67.14 381.82" style="fill:#ed326f;"/><polygon points="64.52 381.82 348.63 0 351.24 0 67.14 381.82 64.52 381.82" style="fill:#ed3270;"/><polygon points="61.9 381.82 346.01 0 348.63 0 64.52 381.82 61.9 381.82" style="fill:#ed3171;"/><polygon points="59.29 381.82 343.39 0 346.01 0 61.9 381.82 59.29 381.82" style="fill:#ed3072;"/><polygon points="56.67 381.82 340.78 0 343.39 0 59.29 381.82 56.67 381.82" style="fill:#ed3073;"/><polygon points="54.06 381.82 338.16 0 340.78 0 56.67 381.82 54.06 381.82" style="fill:#ed2f74;"/><polygon points="51.44 381.82 335.55 0 338.16 0 54.06 381.82 51.44 381.82" style="fill:#ed2e75;"/><polygon points="48.82 381.82 332.93 0 335.55 0 51.44 381.82 48.82 381.82" style="fill:#ed2e76;"/><polygon points="46.21 381.82 330.32 0 332.93 0 48.82 381.82 46.21 381.82" style="fill:#ed2d77;"/><polygon points="43.59 381.82 327.7 0 330.32 0 46.21 381.82 43.59 381.82" style="fill:#ed2c78;"/><polygon points="40.98 381.82 325.08 0 327.7 0 43.59 381.82 40.98 381.82" style="fill:#ed2c79;"/><polygon points="38.36 381.82 322.47 0 325.08 0 40.98 381.82 38.36 381.82" style="fill:#ed2b7a;"/><polygon points="35.75 381.82 319.85 0 322.47 0 38.36 381.82 35.75 381.82" style="fill:#ed2a7b;"/><polygon points="33.13 381.82 317.24 0 319.85 0 35.75 381.82 33.13 381.82" style="fill:#ed297c;"/><polygon points="30.51 381.82 314.62 0 317.24 0 33.13 381.82 30.51 381.82" style="fill:#ed297d;"/><polygon points="27.9 381.82 312 0 314.62 0 30.51 381.82 27.9 381.82" style="fill:#ed287e;"/><polygon points="25.28 381.82 309.39 0 312 0 27.9 381.82 25.28 381.82" style="fill:#ed277f;"/><polygon points="22.67 381.82 306.77 0 309.39 0 25.28 381.82 22.67 381.82" style="fill:#ed2780;"/><polygon points="20.05 381.82 304.16 0 306.77 0 22.67 381.82 20.05 381.82" style="fill:#ed2681;"/><polygon points="17.43 381.82 301.54 0 304.16 0 20.05 381.82 17.43 381.82" style="fill:#ed2582;"/><polygon points="14.82 381.82 298.92 0 301.54 0 17.43 381.82 14.82 381.82" style="fill:#ed2583;"/><polygon points="12.2 381.82 296.31 0 298.92 0 14.82 381.82 12.2 381.82" style="fill:#ec2484;"/><polygon points="9.59 381.82 293.69 0 296.31 0 12.2 381.82 9.59 381.82" style="fill:#ec2385;"/><polygon points="6.97 381.82 291.08 0 293.69 0 9.59 381.82 6.97 381.82" style="fill:#ec2386;"/><polygon points="4.35 381.82 288.46 0 291.08 0 6.97 381.82 4.35 381.82" style="fill:#ec2287;"/><polygon points="1.74 381.82 285.84 0 288.46 0 4.35 381.82 1.74 381.82" style="fill:#ec2188;"/><polygon points="0 380.64 283.23 0 285.84 0 1.74 381.82 0 381.82 0 380.64" style="fill:#ec2089;"/><polygon points="0 377.12 280.61 0 283.23 0 0 380.64 0 377.12" style="fill:#ec208a;"/><polygon points="0 373.6 278 0 280.61 0 0 377.12 0 373.6" style="fill:#ec1f8b;"/><polygon points="0 370.09 275.38 0 278 0 0 373.6 0 370.09" style="fill:#ec1e8c;"/><polygon points="0 366.57 272.77 0 275.38 0 0 370.09 0 366.57" style="fill:#ec1e8d;"/><polygon points="0 363.06 270.15 0 272.77 0 0 366.57 0 363.06" style="fill:#ec1d8e;"/><polygon points="0 361.12 268.71 0 270.15 0 0 363.06 0 361.12" style="fill:#ec1d8e;"/><polygon points="0 359.18 267.26 0 268.71 0 0 361.12 0 359.18" style="fill:#eb1d8e;"/><polygon points="0 357.24 265.82 0 267.26 0 0 359.18 0 357.24" style="fill:#ea1d8e;"/><polygon points="0 355.3 264.38 0 265.82 0 0 357.24 0 355.3" style="fill:#e91d8e;"/><polygon points="0 353.36 262.94 0 264.38 0 0 355.3 0 353.36" style="fill:#e81e8e;"/><polygon points="0 351.42 261.49 0 262.94 0 0 353.36 0 351.42" style="fill:#e71e8e;"/><polygon points="0 349.49 260.05 0 261.49 0 0 351.42 0 349.49" style="fill:#e61e8e;"/><polygon points="0 347.55 258.61 0 260.05 0 0 349.49 0 347.55" style="fill:#e51e8e;"/><polygon points="0 345.61 257.17 0 258.61 0 0 347.55 0 345.61" style="fill:#e41e8e;"/><polygon points="0 343.67 255.72 0 257.17 0 0 345.61 0 343.67" style="fill:#e31e8e;"/><polygon points="0 341.73 254.28 0 255.72 0 0 343.67 0 341.73" style="fill:#e21e8e;"/><polygon points="0 339.79 252.84 0 254.28 0 0 341.73 0 339.79" style="fill:#e11f8e;"/><polygon points="0 337.85 251.39 0 252.84 0 0 339.79 0 337.85" style="fill:#e01f8e;"/><polygon points="0 335.91 249.95 0 251.39 0 0 337.85 0 335.91" style="fill:#df1f8e;"/><polygon points="0 333.98 248.51 0 249.95 0 0 335.91 0 333.98" style="fill:#de1f8e;"/><polygon points="0 332.04 247.07 0 248.51 0 0 333.98 0 332.04" style="fill:#dd1f8e;"/><polygon points="0 330.1 245.62 0 247.07 0 0 332.04 0 330.1" style="fill:#dc1f8e;"/><polygon points="0 328.16 244.18 0 245.62 0 0 330.1 0 328.16" style="fill:#db1f8e;"/><polygon points="0 326.22 242.74 0 244.18 0 0 328.16 0 326.22" style="fill:#da208e;"/><polygon points="0 324.28 241.3 0 242.74 0 0 326.22 0 324.28" style="fill:#d9208e;"/><polygon points="0 322.34 239.85 0 241.3 0 0 324.28 0 322.34" style="fill:#d8208e;"/><polygon points="0 320.4 238.41 0 239.85 0 0 322.34 0 320.4" style="fill:#d7208e;"/><polygon points="0 318.46 236.97 0 238.41 0 0 320.4 0 318.46" style="fill:#d6208e;"/><polygon points="0 316.53 235.52 0 236.97 0 0 318.46 0 316.53" style="fill:#d5208f;"/><polygon points="0 314.59 234.08 0 235.52 0 0 316.53 0 314.59" style="fill:#d4218f;"/><polygon points="0 312.65 232.64 0 234.08 0 0 314.59 0 312.65" style="fill:#d3218f;"/><polygon points="0 310.71 231.2 0 232.64 0 0 312.65 0 310.71" style="fill:#d2218f;"/><polygon points="0 308.77 229.75 0 231.2 0 0 310.71 0 308.77" style="fill:#d1218f;"/><polygon points="0 306.83 228.31 0 229.75 0 0 308.77 0 306.83" style="fill:#d0218f;"/><polygon points="0 304.89 226.87 0 228.31 0 0 306.83 0 304.89" style="fill:#cf218f;"/><polygon points="0 302.95 225.43 0 226.87 0 0 304.89 0 302.95" style="fill:#ce218f;"/><polygon points="0 301.02 223.98 0 225.43 0 0 302.95 0 301.02" style="fill:#cd228f;"/><polygon points="0 299.08 222.54 0 223.98 0 0 301.02 0 299.08" style="fill:#cc228f;"/><polygon points="0 297.14 221.1 0 222.54 0 0 299.08 0 297.14" style="fill:#cb228f;"/><polygon points="0 295.2 219.66 0 221.1 0 0 297.14 0 295.2" style="fill:#ca228f;"/><polygon points="0 293.26 218.21 0 219.66 0 0 295.2 0 293.26" style="fill:#c9228f;"/><polygon points="0 291.32 216.77 0 218.21 0 0 293.26 0 291.32" style="fill:#c8228f;"/><polygon points="0 289.38 215.33 0 216.77 0 0 291.32 0 289.38" style="fill:#c7228f;"/><polygon points="0 287.44 213.88 0 215.33 0 0 289.38 0 287.44" style="fill:#c6238f;"/><polygon points="0 285.5 212.44 0 213.88 0 0 287.44 0 285.5" style="fill:#c5238f;"/><polygon points="0 283.57 211 0 212.44 0 0 285.5 0 283.57" style="fill:#c4238f;"/><polygon points="0 281.63 209.56 0 211 0 0 283.57 0 281.63" style="fill:#c3238f;"/><polygon points="0 279.69 208.11 0 209.56 0 0 281.63 0 279.69" style="fill:#c2238f;"/><polygon points="0 277.75 206.67 0 208.11 0 0 279.69 0 277.75" style="fill:#c1238f;"/><polygon points="0 275.81 205.23 0 206.67 0 0 277.75 0 275.81" style="fill:#c0238f;"/><polygon points="0 273.87 203.79 0 205.23 0 0 275.81 0 273.87" style="fill:#bf248f;"/><polygon points="0 271.93 202.34 0 203.79 0 0 273.87 0 271.93" style="fill:#be248f;"/><polygon points="0 269.99 200.9 0 202.34 0 0 271.93 0 269.99" style="fill:#bd248f;"/><polygon points="0 268.06 199.46 0 200.9 0 0 269.99 0 268.06" style="fill:#bc248f;"/><polygon points="0 266.12 198.02 0 199.46 0 0 268.06 0 266.12" style="fill:#bb248f;"/><polygon points="0 264.18 196.57 0 198.02 0 0 266.12 0 264.18" style="fill:#ba248f;"/><polygon points="0 262.24 195.13 0 196.57 0 0 264.18 0 262.24" style="fill:#b9248f;"/><polygon points="0 260.3 193.69 0 195.13 0 0 262.24 0 260.3" style="fill:#b8258f;"/><polygon points="0 258.36 192.24 0 193.69 0 0 260.3 0 258.36" style="fill:#b7258f;"/><polygon points="0 256.42 190.8 0 192.24 0 0 258.36 0 256.42" style="fill:#b6258f;"/><polygon points="0 254.48 189.36 0 190.8 0 0 256.42 0 254.48" style="fill:#b5258f;"/><polygon points="0 252.54 187.92 0 189.36 0 0 254.48 0 252.54" style="fill:#b4258f;"/><polygon points="0 250.61 186.47 0 187.92 0 0 252.54 0 250.61" style="fill:#b3258f;"/><polygon points="0 248.67 185.03 0 186.47 0 0 250.61 0 248.67" style="fill:#b2268f;"/><polygon points="0 246.73 183.59 0 185.03 0 0 248.67 0 246.73" style="fill:#b1268f;"/><polygon points="0 244.79 182.15 0 183.59 0 0 246.73 0 244.79" style="fill:#b0268f;"/><polygon points="0 242.85 180.7 0 182.15 0 0 244.79 0 242.85" style="fill:#af268f;"/><polygon points="0 240.91 179.26 0 180.7 0 0 242.85 0 240.91" style="fill:#ae268f;"/><polygon points="0 238.97 177.82 0 179.26 0 0 240.91 0 238.97" style="fill:#ad268f;"/><polygon points="0 237.03 176.38 0 177.82 0 0 238.97 0 237.03" style="fill:#ac268f;"/><polygon points="0 235.09 174.93 0 176.38 0 0 237.03 0 235.09" style="fill:#ab278f;"/><polygon points="0 233.16 173.49 0 174.93 0 0 235.09 0 233.16" style="fill:#aa278f;"/><polygon points="0 231.22 172.05 0 173.49 0 0 233.16 0 231.22" style="fill:#a9278f;"/><polygon points="0 229.28 170.6 0 172.05 0 0 231.22 0 229.28" style="fill:#a8278f;"/><polygon points="0 227.34 169.16 0 170.6 0 0 229.28 0 227.34" style="fill:#a72790;"/><polygon points="0 225.4 167.72 0 169.16 0 0 227.34 0 225.4" style="fill:#a62790;"/><polygon points="0 223.46 166.28 0 167.72 0 0 225.4 0 223.46" style="fill:#a52790;"/><polygon points="0 221.52 164.83 0 166.28 0 0 223.46 0 221.52" style="fill:#a42890;"/><polygon points="0 219.58 163.39 0 164.83 0 0 221.52 0 219.58" style="fill:#a32890;"/><polygon points="0 217.65 161.95 0 163.39 0 0 219.58 0 217.65" style="fill:#a22890;"/><polygon points="0 215.71 160.51 0 161.95 0 0 217.65 0 215.71" style="fill:#a12890;"/><polygon points="0 213.77 159.06 0 160.51 0 0 215.71 0 213.77" style="fill:#a02890;"/><polygon points="0 211.83 157.62 0 159.06 0 0 213.77 0 211.83" style="fill:#9f2890;"/><polygon points="0 209.89 156.18 0 157.62 0 0 211.83 0 209.89" style="fill:#9e2890;"/><polygon points="0 207.95 154.74 0 156.18 0 0 209.89 0 207.95" style="fill:#9d2990;"/><polygon points="0 206.01 153.29 0 154.74 0 0 207.95 0 206.01" style="fill:#9c2990;"/><polygon points="0 204.07 151.85 0 153.29 0 0 206.01 0 204.07" style="fill:#9a2990;"/><polygon points="0 202.13 150.41 0 151.85 0 0 204.07 0 202.13" style="fill:#992990;"/><polygon points="0 200.2 148.96 0 150.41 0 0 202.13 0 200.2" style="fill:#982990;"/><polygon points="0 198.26 147.52 0 148.96 0 0 200.2 0 198.26" style="fill:#972990;"/><polygon points="0 196.32 146.08 0 147.52 0 0 198.26 0 196.32" style="fill:#962990;"/><polygon points="0 194.38 144.64 0 146.08 0 0 196.32 0 194.38" style="fill:#952a90;"/><polygon points="0 192.44 143.19 0 144.64 0 0 194.38 0 192.44" style="fill:#942a90;"/><polygon points="0 190.5 141.75 0 143.19 0 0 192.44 0 190.5" style="fill:#932a90;"/><polygon points="0 188.56 140.31 0 141.75 0 0 190.5 0 188.56" style="fill:#922a90;"/><polygon points="0 186.62 138.87 0 140.31 0 0 188.56 0 186.62" style="fill:#912a90;"/><polygon points="0 184.69 137.42 0 138.87 0 0 186.62 0 184.69" style="fill:#902a90;"/><polygon points="0 182.75 135.98 0 137.42 0 0 184.69 0 182.75" style="fill:#8f2b90;"/><polygon points="0 180.81 134.54 0 135.98 0 0 182.75 0 180.81" style="fill:#8e2b90;"/><polygon points="0 178.87 133.1 0 134.54 0 0 180.81 0 178.87" style="fill:#8d2b90;"/><polygon points="0 176.93 131.65 0 133.1 0 0 178.87 0 176.93" style="fill:#8c2b90;"/><polygon points="0 174.99 130.21 0 131.65 0 0 176.93 0 174.99" style="fill:#8b2b90;"/><polygon points="0 173.05 128.77 0 130.21 0 0 174.99 0 173.05" style="fill:#8a2b90;"/><polygon points="0 171.11 127.32 0 128.77 0 0 173.05 0 171.11" style="fill:#892b90;"/><polygon points="0 169.17 125.88 0 127.32 0 0 171.11 0 169.17" style="fill:#882c90;"/><polygon points="0 167.24 124.44 0 125.88 0 0 169.17 0 167.24" style="fill:#872c90;"/><polygon points="0 165.3 123 0 124.44 0 0 167.24 0 165.3" style="fill:#862c90;"/><polygon points="0 163.36 121.55 0 123 0 0 165.3 0 163.36" style="fill:#852c90;"/><polygon points="0 161.42 120.11 0 121.55 0 0 163.36 0 161.42" style="fill:#842c90;"/><polygon points="0 159.48 118.67 0 120.11 0 0 161.42 0 159.48" style="fill:#832c90;"/><polygon points="0 157.54 117.23 0 118.67 0 0 159.48 0 157.54" style="fill:#822c90;"/><polygon points="0 155.6 115.78 0 117.23 0 0 157.54 0 155.6" style="fill:#812d90;"/><polygon points="0 153.66 114.34 0 115.78 0 0 155.6 0 153.66" style="fill:#802d90;"/><polygon points="0 151.72 112.9 0 114.34 0 0 153.66 0 151.72" style="fill:#7f2d90;"/><polygon points="0 149.79 111.45 0 112.9 0 0 151.72 0 149.79" style="fill:#7e2d90;"/><polygon points="0 147.85 110.01 0 111.45 0 0 149.79 0 147.85" style="fill:#7d2d90;"/><polygon points="0 145.91 108.57 0 110.01 0 0 147.85 0 145.91" style="fill:#7c2d90;"/><polygon points="0 143.97 107.13 0 108.57 0 0 145.91 0 143.97" style="fill:#7b2d90;"/><polygon points="0 142.03 105.68 0 107.13 0 0 143.97 0 142.03" style="fill:#7a2e90;"/><polygon points="0 140.09 104.24 0 105.68 0 0 142.03 0 140.09" style="fill:#792e91;"/><polygon points="0 138.15 102.8 0 104.24 0 0 140.09 0 138.15" style="fill:#782e91;"/><polygon points="0 136.21 101.36 0 102.8 0 0 138.15 0 136.21" style="fill:#772e91;"/><polygon points="0 134.28 99.91 0 101.36 0 0 136.21 0 134.28" style="fill:#762e91;"/><polygon points="0 132.34 98.47 0 99.91 0 0 134.28 0 132.34" style="fill:#752e91;"/><polygon points="0 130.4 97.03 0 98.47 0 0 132.34 0 130.4" style="fill:#742e91;"/><polygon points="0 128.46 95.59 0 97.03 0 0 130.4 0 128.46" style="fill:#732f91;"/><polygon points="0 126.52 94.14 0 95.59 0 0 128.46 0 126.52" style="fill:#722f91;"/><polygon points="0 124.58 92.7 0 94.14 0 0 126.52 0 124.58" style="fill:#712f91;"/><polygon points="0 122.64 91.26 0 92.7 0 0 124.58 0 122.64" style="fill:#702f91;"/><polygon points="0 120.7 89.81 0 91.26 0 0 122.64 0 120.7" style="fill:#6f2f91;"/><polygon points="0 118.76 88.37 0 89.81 0 0 120.7 0 118.76" style="fill:#6e2f91;"/><polygon points="0 116.83 86.93 0 88.37 0 0 118.76 0 116.83" style="fill:#6d3091;"/><polygon points="0 114.89 85.49 0 86.93 0 0 116.83 0 114.89" style="fill:#6c3091;"/><polygon points="0 112.95 84.04 0 85.49 0 0 114.89 0 112.95" style="fill:#6b3091;"/><polygon points="0 111.01 82.6 0 84.04 0 0 112.95 0 111.01" style="fill:#6a3091;"/><polygon points="0 109.07 81.16 0 82.6 0 0 111.01 0 109.07" style="fill:#693091;"/><polygon points="0 107.13 79.72 0 81.16 0 0 109.07 0 107.13" style="fill:#683091;"/><polygon points="0 105.19 78.27 0 79.72 0 0 107.13 0 105.19" style="fill:#673091;"/><polygon points="0 103.25 76.83 0 78.27 0 0 105.19 0 103.25" style="fill:#663191;"/><polygon points="0 101.32 75.39 0 76.83 0 0 103.25 0 101.32" style="fill:#653191;"/><polygon points="0 99.38 73.95 0 75.39 0 0 101.32 0 99.38" style="fill:#643191;"/><polygon points="0 97.44 72.5 0 73.95 0 0 99.38 0 97.44" style="fill:#633191;"/><polygon points="0 93.83 69.82 0 72.5 0 0 97.44 0 93.83" style="fill:#633191;"/><polygon points="0 90.22 67.13 0 69.82 0 0 93.83 0 90.22" style="fill:#623292;"/><polygon points="0 86.61 64.45 0 67.13 0 0 90.22 0 86.61" style="fill:#613392;"/><polygon points="0 83 61.76 0 64.45 0 0 86.61 0 83" style="fill:#603493;"/><polygon points="0 79.39 59.08 0 61.76 0 0 83 0 79.39" style="fill:#603593;"/><polygon points="0 75.78 56.39 0 59.08 0 0 79.39 0 75.78" style="fill:#5f3694;"/><polygon points="0 72.17 53.7 0 56.39 0 0 75.78 0 72.17" style="fill:#5e3794;"/><polygon points="0 68.57 51.02 0 53.7 0 0 72.17 0 68.57" style="fill:#5d3895;"/><polygon points="0 64.96 48.33 0 51.02 0 0 68.57 0 64.96" style="fill:#5c3996;"/><polygon points="0 61.35 45.65 0 48.33 0 0 64.96 0 61.35" style="fill:#5b3a96;"/><polygon points="0 57.74 42.96 0 45.65 0 0 61.35 0 57.74" style="fill:#5b3b97;"/><polygon points="0 54.13 40.28 0 42.96 0 0 57.74 0 54.13" style="fill:#5a3c97;"/><polygon points="0 50.52 37.59 0 40.28 0 0 54.13 0 50.52" style="fill:#593d98;"/><polygon points="0 46.91 34.91 0 37.59 0 0 50.52 0 46.91" style="fill:#583e98;"/><polygon points="0 43.3 32.22 0 34.91 0 0 46.91 0 43.3" style="fill:#573f99;"/><polygon points="0 39.69 29.54 0 32.22 0 0 43.3 0 39.69" style="fill:#56409a;"/><polygon points="0 36.08 26.85 0 29.54 0 0 39.69 0 36.08" style="fill:#56419a;"/><polygon points="0 32.48 24.16 0 26.85 0 0 36.08 0 32.48" style="fill:#55429b;"/><polygon points="0 28.87 21.48 0 24.16 0 0 32.48 0 28.87" style="fill:#54439b;"/><polygon points="0 25.26 18.79 0 21.48 0 0 28.87 0 25.26" style="fill:#53449c;"/><polygon points="0 21.65 16.11 0 18.79 0 0 25.26 0 21.65" style="fill:#52459d;"/><polygon points="0 18.04 13.42 0 16.11 0 0 21.65 0 18.04" style="fill:#51469d;"/><polygon points="0 14.43 10.74 0 13.42 0 0 18.04 0 14.43" style="fill:#50479e;"/><polygon points="0 10.82 8.05 0 10.74 0 0 14.43 0 10.82" style="fill:#50489e;"/><polygon points="0 7.21 5.37 0 8.05 0 0 10.82 0 7.21" style="fill:#4f499f;"/><polygon points="0 3.6 2.68 0 5.37 0 0 7.21 0 3.6" style="fill:#4e4b9f;"/><polygon points="2.68 0 0 3.6 0 0 2.68 0" style="fill:#4d4ca0;"/></g></g><g style="clip-path:url(#clippath-2);"><g style="clip-path:url(#clippath-3);"><polygon points="264.67 228.85 266.29 226.67 266.29 228.85 264.67 228.85" style="fill:#ef494e;"/><polygon points="262.06 228.85 266.29 223.15 266.29 226.67 264.67 228.85 262.06 228.85" style="fill:#ef484f;"/><polygon points="259.44 228.85 266.29 219.64 266.29 223.15 262.06 228.85 259.44 228.85" style="fill:#ef4750;"/><polygon points="256.82 228.85 266.29 216.12 266.29 219.64 259.44 228.85 256.82 228.85" style="fill:#ef4651;"/><polygon points="254.21 228.85 266.29 212.61 266.29 216.12 256.82 228.85 254.21 228.85" style="fill:#ef4652;"/><polygon points="251.59 228.85 266.29 209.09 266.29 212.61 254.21 228.85 251.59 228.85" style="fill:#ef4553;"/><polygon points="248.97 228.85 266.29 205.57 266.29 209.09 251.59 228.85 248.97 228.85" style="fill:#ef4454;"/><polygon points="246.36 228.85 266.29 202.06 266.29 205.57 248.97 228.85 246.36 228.85" style="fill:#ef4455;"/><polygon points="243.74 228.85 266.29 198.54 266.29 202.06 246.36 228.85 243.74 228.85" style="fill:#ef4356;"/><polygon points="241.13 228.85 266.29 195.03 266.29 198.54 243.74 228.85 241.13 228.85" style="fill:#ef4257;"/><polygon points="238.51 228.85 266.29 191.51 266.29 195.03 241.13 228.85 238.51 228.85" style="fill:#ef4258;"/><polygon points="235.89 228.85 266.29 188 266.29 191.51 238.51 228.85 235.89 228.85" style="fill:#ee4159;"/><polygon points="233.28 228.85 266.29 184.48 266.29 188 235.89 228.85 233.28 228.85" style="fill:#ee405a;"/><polygon points="230.66 228.85 266.29 180.96 266.29 184.48 233.28 228.85 230.66 228.85" style="fill:#ee405b;"/><polygon points="228.05 228.85 266.29 177.45 266.29 180.96 230.66 228.85 228.05 228.85" style="fill:#ee3f5c;"/><polygon points="225.43 228.85 266.29 173.93 266.29 177.45 228.05 228.85 225.43 228.85" style="fill:#ee3e5d;"/><polygon points="222.81 228.85 266.29 170.42 266.29 173.93 225.43 228.85 222.81 228.85" style="fill:#ee3e5e;"/><polygon points="220.2 228.85 266.29 166.9 266.29 170.42 222.81 228.85 220.2 228.85" style="fill:#ee3d5f;"/><polygon points="217.58 228.85 266.29 163.39 266.29 166.9 220.2 228.85 217.58 228.85" style="fill:#ee3c60;"/><polygon points="214.97 228.85 266.29 159.87 266.29 163.39 217.58 228.85 214.97 228.85" style="fill:#ee3b61;"/><polygon points="212.35 228.85 266.29 156.35 266.29 159.87 214.97 228.85 212.35 228.85" style="fill:#ee3b62;"/><polygon points="209.73 228.85 266.29 152.84 266.29 156.35 212.35 228.85 209.73 228.85" style="fill:#ee3a63;"/><polygon points="207.12 228.85 266.29 149.32 266.29 152.84 209.73 228.85 207.12 228.85" style="fill:#ee3964;"/><polygon points="204.5 228.85 266.29 145.81 266.29 149.32 207.12 228.85 204.5 228.85" style="fill:#ee3965;"/><polygon points="201.89 228.85 266.29 142.29 266.29 145.81 204.5 228.85 201.89 228.85" style="fill:#ee3866;"/><polygon points="199.27 228.85 266.29 138.78 266.29 142.29 201.89 228.85 199.27 228.85" style="fill:#ee3767;"/><polygon points="196.65 228.85 266.29 135.26 266.29 138.78 199.27 228.85 196.65 228.85" style="fill:#ee3768;"/><polygon points="194.04 228.85 266.29 131.74 266.29 135.26 196.65 228.85 194.04 228.85" style="fill:#ee3669;"/><polygon points="191.42 228.85 266.29 128.23 266.29 131.74 194.04 228.85 191.42 228.85" style="fill:#ee356a;"/><polygon points="188.81 228.85 266.29 124.71 266.29 128.23 191.42 228.85 188.81 228.85" style="fill:#ee356c;"/><polygon points="186.19 228.85 266.29 121.2 266.29 124.71 188.81 228.85 186.19 228.85" style="fill:#ee346d;"/><polygon points="183.57 228.85 266.29 117.68 266.29 121.2 186.19 228.85 183.57 228.85" style="fill:#ee336e;"/><polygon points="180.96 228.85 266.29 114.17 266.29 117.68 183.57 228.85 180.96 228.85" style="fill:#ed326f;"/><polygon points="178.34 228.85 266.29 110.65 266.29 114.17 180.96 228.85 178.34 228.85" style="fill:#ed3270;"/><polygon points="175.73 228.85 265.43 108.29 266.29 108.29 266.29 110.65 178.34 228.85 175.73 228.85" style="fill:#ed3171;"/><polygon points="173.11 228.85 262.82 108.29 265.43 108.29 175.73 228.85 173.11 228.85" style="fill:#ed3072;"/><polygon points="170.49 228.85 260.2 108.29 262.82 108.29 173.11 228.85 170.49 228.85" style="fill:#ed3073;"/><polygon points="167.88 228.85 257.58 108.29 260.2 108.29 170.49 228.85 167.88 228.85" style="fill:#ed2f74;"/><polygon points="165.26 228.85 254.97 108.29 257.58 108.29 167.88 228.85 165.26 228.85" style="fill:#ed2e75;"/><polygon points="162.65 228.85 252.35 108.29 254.97 108.29 165.26 228.85 162.65 228.85" style="fill:#ed2e76;"/><polygon points="160.03 228.85 249.74 108.29 252.35 108.29 162.65 228.85 160.03 228.85" style="fill:#ed2d77;"/><polygon points="157.41 228.85 247.12 108.29 249.74 108.29 160.03 228.85 157.41 228.85" style="fill:#ed2c78;"/><polygon points="154.8 228.85 244.5 108.29 247.12 108.29 157.41 228.85 154.8 228.85" style="fill:#ed2c79;"/><polygon points="152.18 228.85 241.89 108.29 244.5 108.29 154.8 228.85 152.18 228.85" style="fill:#ed2b7a;"/><polygon points="149.57 228.85 239.27 108.29 241.89 108.29 152.18 228.85 149.57 228.85" style="fill:#ed2a7b;"/><polygon points="148.45 226.83 236.66 108.29 239.27 108.29 149.57 228.85 148.45 228.85 148.45 226.83" style="fill:#ed297c;"/><polygon points="148.45 223.31 234.04 108.29 236.66 108.29 148.45 226.83 148.45 223.31" style="fill:#ed297d;"/><polygon points="148.45 219.79 231.42 108.29 234.04 108.29 148.45 223.31 148.45 219.79" style="fill:#ed287e;"/><polygon points="148.45 216.28 228.81 108.29 231.42 108.29 148.45 219.79 148.45 216.28" style="fill:#ed277f;"/><polygon points="148.45 212.76 226.19 108.29 228.81 108.29 148.45 216.28 148.45 212.76" style="fill:#ed2780;"/><polygon points="148.45 209.25 223.57 108.29 226.19 108.29 148.45 212.76 148.45 209.25" style="fill:#ed2681;"/><polygon points="148.45 205.73 220.96 108.29 223.57 108.29 148.45 209.25 148.45 205.73" style="fill:#ed2582;"/><polygon points="148.45 202.22 218.34 108.29 220.96 108.29 148.45 205.73 148.45 202.22" style="fill:#ed2583;"/><polygon points="148.45 198.7 215.73 108.29 218.34 108.29 148.45 202.22 148.45 198.7" style="fill:#ec2484;"/><polygon points="148.45 195.18 213.11 108.29 215.73 108.29 148.45 198.7 148.45 195.18" style="fill:#ec2385;"/><polygon points="148.45 191.67 210.49 108.29 213.11 108.29 148.45 195.18 148.45 191.67" style="fill:#ec2386;"/><polygon points="148.45 188.15 207.88 108.29 210.49 108.29 148.45 191.67 148.45 188.15" style="fill:#ec2287;"/><polygon points="148.45 184.64 205.26 108.29 207.88 108.29 148.45 188.15 148.45 184.64" style="fill:#ec2188;"/><polygon points="148.45 181.12 202.65 108.29 205.26 108.29 148.45 184.64 148.45 181.12" style="fill:#ec2089;"/><polygon points="148.45 177.61 200.03 108.29 202.65 108.29 148.45 181.12 148.45 177.61" style="fill:#ec208a;"/><polygon points="148.45 174.09 197.41 108.29 200.03 108.29 148.45 177.61 148.45 174.09" style="fill:#ec1f8b;"/><polygon points="148.45 170.57 194.8 108.29 197.41 108.29 148.45 174.09 148.45 170.57" style="fill:#ec1e8c;"/><polygon points="148.45 167.06 192.18 108.29 194.8 108.29 148.45 170.57 148.45 167.06" style="fill:#ec1e8d;"/><polygon points="148.45 163.54 189.57 108.29 192.18 108.29 148.45 167.06 148.45 163.54" style="fill:#ec1d8e;"/><polygon points="148.45 161.6 188.12 108.29 189.57 108.29 148.45 163.54 148.45 161.6" style="fill:#ec1d8e;"/><polygon points="148.45 159.66 186.68 108.29 188.12 108.29 148.45 161.6 148.45 159.66" style="fill:#eb1d8e;"/><polygon points="148.45 157.73 185.24 108.29 186.68 108.29 148.45 159.66 148.45 157.73" style="fill:#ea1d8e;"/><polygon points="148.45 155.79 183.8 108.29 185.24 108.29 148.45 157.73 148.45 155.79" style="fill:#e91d8e;"/><polygon points="148.45 153.85 182.35 108.29 183.8 108.29 148.45 155.79 148.45 153.85" style="fill:#e81e8e;"/><polygon points="148.45 151.91 180.91 108.29 182.35 108.29 148.45 153.85 148.45 151.91" style="fill:#e71e8e;"/><polygon points="148.45 149.97 179.47 108.29 180.91 108.29 148.45 151.91 148.45 149.97" style="fill:#e61e8e;"/><polygon points="148.45 148.03 178.02 108.29 179.47 108.29 148.45 149.97 148.45 148.03" style="fill:#e51e8e;"/><polygon points="148.45 146.09 176.58 108.29 178.02 108.29 148.45 148.03 148.45 146.09" style="fill:#e41e8e;"/><polygon points="148.45 144.15 175.14 108.29 176.58 108.29 148.45 146.09 148.45 144.15" style="fill:#e31e8e;"/><polygon points="148.45 142.21 173.7 108.29 175.14 108.29 148.45 144.15 148.45 142.21" style="fill:#e21e8e;"/><polygon points="148.45 140.28 172.25 108.29 173.7 108.29 148.45 142.21 148.45 140.28" style="fill:#e11f8e;"/><polygon points="148.45 138.34 170.81 108.29 172.25 108.29 148.45 140.28 148.45 138.34" style="fill:#e01f8e;"/><polygon points="148.45 136.4 169.37 108.29 170.81 108.29 148.45 138.34 148.45 136.4" style="fill:#df1f8e;"/><polygon points="148.45 134.46 167.93 108.29 169.37 108.29 148.45 136.4 148.45 134.46" style="fill:#de1f8e;"/><polygon points="148.45 132.52 166.48 108.29 167.93 108.29 148.45 134.46 148.45 132.52" style="fill:#dd1f8e;"/><polygon points="148.45 130.58 165.04 108.29 166.48 108.29 148.45 132.52 148.45 130.58" style="fill:#dc1f8e;"/><polygon points="148.45 128.64 163.6 108.29 165.04 108.29 148.45 130.58 148.45 128.64" style="fill:#db1f8e;"/><polygon points="148.45 126.7 162.15 108.29 163.6 108.29 148.45 128.64 148.45 126.7" style="fill:#da208e;"/><polygon points="148.45 124.76 160.71 108.29 162.15 108.29 148.45 126.7 148.45 124.76" style="fill:#d9208e;"/><polygon points="148.45 122.82 159.27 108.29 160.71 108.29 148.45 124.76 148.45 122.82" style="fill:#d8208e;"/><polygon points="148.45 120.89 157.83 108.29 159.27 108.29 148.45 122.82 148.45 120.89" style="fill:#d7208e;"/><polygon points="148.45 118.95 156.38 108.29 157.83 108.29 148.45 120.89 148.45 118.95" style="fill:#d6208e;"/><polygon points="148.45 117.01 154.94 108.29 156.38 108.29 148.45 118.95 148.45 117.01" style="fill:#d5208f;"/><polygon points="148.45 115.07 153.5 108.29 154.94 108.29 148.45 117.01 148.45 115.07" style="fill:#d4218f;"/><polygon points="148.45 113.13 152.05 108.29 153.5 108.29 148.45 115.07 148.45 113.13" style="fill:#d3218f;"/><polygon points="148.45 111.19 150.61 108.29 152.05 108.29 148.45 113.13 148.45 111.19" style="fill:#d2218f;"/><polygon points="148.45 109.25 149.17 108.29 150.61 108.29 148.45 111.19 148.45 109.25" style="fill:#d1218f;"/><polygon points="149.17 108.29 148.45 109.25 148.45 108.29 149.17 108.29" style="fill:#d0218f;"/></g></g></g><g><g style="clip-path:url(#clippath-4);"><g style="clip-path:url(#clippath-5);"><polygon points="146.54 402.7 146.62 402.58 146.62 402.7 146.54 402.7" style="fill:#ed277f;"/><polygon points="142.93 402.7 146.62 397.73 146.62 402.58 146.54 402.7 142.93 402.7" style="fill:#ed2780;"/><polygon points="139.32 402.7 146.62 392.88 146.62 397.73 142.93 402.7 139.32 402.7" style="fill:#ed2681;"/><polygon points="135.71 402.7 146.62 388.03 146.62 392.88 139.32 402.7 135.71 402.7" style="fill:#ed2582;"/><polygon points="132.1 402.7 146.62 383.18 146.62 388.03 135.71 402.7 132.1 402.7" style="fill:#ed2583;"/><polygon points="128.49 402.7 146.62 378.33 146.62 383.18 132.1 402.7 128.49 402.7" style="fill:#ec2484;"/><polygon points="124.88 402.7 146.62 373.48 146.62 378.33 128.49 402.7 124.88 402.7" style="fill:#ec2385;"/><polygon points="121.27 402.7 146.62 368.63 146.62 373.48 124.88 402.7 121.27 402.7" style="fill:#ec2386;"/><polygon points="117.66 402.7 146.62 363.78 146.62 368.63 121.27 402.7 117.66 402.7" style="fill:#ec2287;"/><polygon points="114.05 402.7 146.62 358.93 146.62 363.78 117.66 402.7 114.05 402.7" style="fill:#ec2188;"/><polygon points="110.44 402.7 146.62 354.07 146.62 358.93 114.05 402.7 110.44 402.7" style="fill:#ec2089;"/><polygon points="106.83 402.7 146.62 349.22 146.62 354.07 110.44 402.7 106.83 402.7" style="fill:#ec208a;"/><polygon points="103.22 402.7 146.62 344.37 146.62 349.22 106.83 402.7 103.22 402.7" style="fill:#ec1f8b;"/><polygon points="99.61 402.7 146.62 339.52 146.62 344.37 103.22 402.7 99.61 402.7" style="fill:#ec1e8c;"/><polygon points="96 402.7 146.62 334.67 146.62 339.52 99.61 402.7 96 402.7" style="fill:#ec1e8d;"/><polygon points="92.39 402.7 146.62 329.82 146.62 334.67 96 402.7 92.39 402.7" style="fill:#ec1d8e;"/><polygon points="90.4 402.7 146.62 327.15 146.62 329.82 92.39 402.7 90.4 402.7" style="fill:#ec1d8e;"/><polygon points="88.41 402.7 146.62 324.47 146.62 327.15 90.4 402.7 88.41 402.7" style="fill:#eb1d8e;"/><polygon points="86.42 402.7 146.62 321.79 146.62 324.47 88.41 402.7 86.42 402.7" style="fill:#ea1d8e;"/><polygon points="84.43 402.7 146.62 319.12 146.62 321.79 86.42 402.7 84.43 402.7" style="fill:#e91d8e;"/><polygon points="82.44 402.7 146.62 316.44 146.62 319.12 84.43 402.7 82.44 402.7" style="fill:#e81e8e;"/><polygon points="80.45 402.7 146.62 313.77 146.62 316.44 82.44 402.7 80.45 402.7" style="fill:#e71e8e;"/><polygon points="78.46 402.7 146.62 311.09 146.62 313.77 80.45 402.7 78.46 402.7" style="fill:#e61e8e;"/><polygon points="76.47 402.7 144.77 310.91 146.62 310.91 146.62 311.09 78.46 402.7 76.47 402.7" style="fill:#e51e8e;"/><polygon points="74.48 402.7 142.78 310.91 144.77 310.91 76.47 402.7 74.48 402.7" style="fill:#e41e8e;"/><polygon points="72.49 402.7 140.79 310.91 142.78 310.91 74.48 402.7 72.49 402.7" style="fill:#e31e8e;"/><polygon points="70.5 402.7 138.8 310.91 140.79 310.91 72.49 402.7 70.5 402.7" style="fill:#e21e8e;"/><polygon points="68.51 402.7 136.8 310.91 138.8 310.91 70.5 402.7 68.51 402.7" style="fill:#e11f8e;"/><polygon points="66.52 402.7 134.81 310.91 136.8 310.91 68.51 402.7 66.52 402.7" style="fill:#e01f8e;"/><polygon points="64.52 402.7 132.82 310.91 134.81 310.91 66.52 402.7 64.52 402.7" style="fill:#df1f8e;"/><polygon points="62.53 402.7 130.83 310.91 132.82 310.91 64.52 402.7 62.53 402.7" style="fill:#de1f8e;"/><polygon points="60.54 402.7 128.84 310.91 130.83 310.91 62.53 402.7 60.54 402.7" style="fill:#dd1f8e;"/><polygon points="58.55 402.7 126.85 310.91 128.84 310.91 60.54 402.7 58.55 402.7" style="fill:#dc1f8e;"/><polygon points="56.56 402.7 124.86 310.91 126.85 310.91 58.55 402.7 56.56 402.7" style="fill:#db1f8e;"/><polygon points="54.99 402.13 122.87 310.91 124.86 310.91 56.56 402.7 54.99 402.7 54.99 402.13" style="fill:#da208e;"/><polygon points="54.99 399.46 120.88 310.91 122.87 310.91 54.99 402.13 54.99 399.46" style="fill:#d9208e;"/><polygon points="54.99 396.78 118.89 310.91 120.88 310.91 54.99 399.46 54.99 396.78" style="fill:#d8208e;"/><polygon points="54.99 394.11 116.9 310.91 118.89 310.91 54.99 396.78 54.99 394.11" style="fill:#d7208e;"/><polygon points="54.99 391.43 114.91 310.91 116.9 310.91 54.99 394.11 54.99 391.43" style="fill:#d6208e;"/><polygon points="54.99 388.76 112.92 310.91 114.91 310.91 54.99 391.43 54.99 388.76" style="fill:#d5208f;"/><polygon points="54.99 386.08 110.93 310.91 112.92 310.91 54.99 388.76 54.99 386.08" style="fill:#d4218f;"/><polygon points="54.99 383.4 108.94 310.91 110.93 310.91 54.99 386.08 54.99 383.4" style="fill:#d3218f;"/><polygon points="54.99 380.73 106.94 310.91 108.94 310.91 54.99 383.4 54.99 380.73" style="fill:#d2218f;"/><polygon points="54.99 378.05 104.95 310.91 106.94 310.91 54.99 380.73 54.99 378.05" style="fill:#d1218f;"/><polygon points="54.99 375.38 102.96 310.91 104.95 310.91 54.99 378.05 54.99 375.38" style="fill:#d0218f;"/><polygon points="54.99 372.7 100.97 310.91 102.96 310.91 54.99 375.38 54.99 372.7" style="fill:#cf218f;"/><polygon points="54.99 370.03 98.98 310.91 100.97 310.91 54.99 372.7 54.99 370.03" style="fill:#ce218f;"/><polygon points="54.99 367.35 96.99 310.91 98.98 310.91 54.99 370.03 54.99 367.35" style="fill:#cd228f;"/><polygon points="54.99 364.68 95 310.91 96.99 310.91 54.99 367.35 54.99 364.68" style="fill:#cc228f;"/><polygon points="54.99 362 93.01 310.91 95 310.91 54.99 364.68 54.99 362" style="fill:#cb228f;"/><polygon points="54.99 359.33 91.02 310.91 93.01 310.91 54.99 362 54.99 359.33" style="fill:#ca228f;"/><polygon points="54.99 356.65 89.03 310.91 91.02 310.91 54.99 359.33 54.99 356.65" style="fill:#c9228f;"/><polygon points="54.99 353.98 87.04 310.91 89.03 310.91 54.99 356.65 54.99 353.98" style="fill:#c8228f;"/><polygon points="54.99 351.3 85.05 310.91 87.04 310.91 54.99 353.98 54.99 351.3" style="fill:#c7228f;"/><polygon points="54.99 348.63 83.06 310.91 85.05 310.91 54.99 351.3 54.99 348.63" style="fill:#c6238f;"/><polygon points="54.99 345.95 81.07 310.91 83.06 310.91 54.99 348.63 54.99 345.95" style="fill:#c5238f;"/><polygon points="54.99 343.28 79.08 310.91 81.07 310.91 54.99 345.95 54.99 343.28" style="fill:#c4238f;"/><polygon points="54.99 340.6 77.08 310.91 79.08 310.91 54.99 343.28 54.99 340.6" style="fill:#c3238f;"/><polygon points="54.99 337.93 75.09 310.91 77.08 310.91 54.99 340.6 54.99 337.93" style="fill:#c2238f;"/><polygon points="54.99 335.25 73.1 310.91 75.09 310.91 54.99 337.93 54.99 335.25" style="fill:#c1238f;"/><polygon points="54.99 332.57 71.11 310.91 73.1 310.91 54.99 335.25 54.99 332.57" style="fill:#c0238f;"/><polygon points="54.99 329.9 69.12 310.91 71.11 310.91 54.99 332.57 54.99 329.9" style="fill:#bf248f;"/><polygon points="54.99 327.22 67.13 310.91 69.12 310.91 54.99 329.9 54.99 327.22" style="fill:#be248f;"/><polygon points="54.99 324.55 65.14 310.91 67.13 310.91 54.99 327.22 54.99 324.55" style="fill:#bd248f;"/><polygon points="54.99 321.87 63.15 310.91 65.14 310.91 54.99 324.55 54.99 321.87" style="fill:#bc248f;"/><polygon points="54.99 319.2 61.16 310.91 63.15 310.91 54.99 321.87 54.99 319.2" style="fill:#bb248f;"/><polygon points="54.99 316.52 59.17 310.91 61.16 310.91 54.99 319.2 54.99 316.52" style="fill:#ba248f;"/><polygon points="54.99 313.85 57.18 310.91 59.17 310.91 54.99 316.52 54.99 313.85" style="fill:#b9248f;"/><polygon points="54.99 311.17 55.19 310.91 57.18 310.91 54.99 313.85 54.99 311.17" style="fill:#b8258f;"/><polygon points="55.19 310.91 54.99 311.17 54.99 310.91 55.19 310.91" style="fill:#b7258f;"/></g></g><g style="clip-path:url(#clippath-6);"><g style="clip-path:url(#clippath-7);"><polygon points="195.36 400.14 195.41 400.08 195.41 400.14 195.36 400.14" style="fill:#ed3072;"/><polygon points="191.75 400.14 195.41 395.23 195.41 400.08 195.36 400.14 191.75 400.14" style="fill:#ed3073;"/><polygon points="188.14 400.14 195.41 390.38 195.41 395.23 191.75 400.14 188.14 400.14" style="fill:#ed2f74;"/><polygon points="184.53 400.14 195.41 385.53 195.41 390.38 188.14 400.14 184.53 400.14" style="fill:#ed2e75;"/><polygon points="180.92 400.14 195.41 380.68 195.41 385.53 184.53 400.14 180.92 400.14" style="fill:#ed2e76;"/><polygon points="177.31 400.14 195.41 375.83 195.41 380.68 180.92 400.14 177.31 400.14" style="fill:#ed2d77;"/><polygon points="173.7 400.14 195.41 370.98 195.41 375.83 177.31 400.14 173.7 400.14" style="fill:#ed2c78;"/><polygon points="170.09 400.14 195.41 366.12 195.41 370.98 173.7 400.14 170.09 400.14" style="fill:#ed2c79;"/><polygon points="166.49 400.14 195.41 361.27 195.41 366.12 170.09 400.14 166.49 400.14" style="fill:#ed2b7a;"/><polygon points="162.88 400.14 195.41 356.42 195.41 361.27 166.49 400.14 162.88 400.14" style="fill:#ed2a7b;"/><polygon points="159.27 400.14 195.41 351.57 195.41 356.42 162.88 400.14 159.27 400.14" style="fill:#ed297c;"/><polygon points="155.66 400.14 195.41 346.72 195.41 351.57 159.27 400.14 155.66 400.14" style="fill:#ed297d;"/><polygon points="152.05 400.14 195.41 341.87 195.41 346.72 155.66 400.14 152.05 400.14" style="fill:#ed287e;"/><polygon points="148.44 400.14 195.41 337.02 195.41 341.87 152.05 400.14 148.44 400.14" style="fill:#ed277f;"/><polygon points="144.83 400.14 195.41 332.17 195.41 337.02 148.44 400.14 144.83 400.14" style="fill:#ed2780;"/><polygon points="141.22 400.14 195.41 327.32 195.41 332.17 144.83 400.14 141.22 400.14" style="fill:#ed2681;"/><polygon points="137.61 400.14 195.41 322.47 195.41 327.32 141.22 400.14 137.61 400.14" style="fill:#ed2582;"/><polygon points="134 400.14 195.41 317.62 195.41 322.47 137.61 400.14 134 400.14" style="fill:#ed2583;"/><polygon points="130.39 400.14 194.89 313.46 195.41 313.46 195.41 317.62 134 400.14 130.39 400.14" style="fill:#ec2484;"/><polygon points="126.78 400.14 191.28 313.46 194.89 313.46 130.39 400.14 126.78 400.14" style="fill:#ec2385;"/><polygon points="123.17 400.14 187.67 313.46 191.28 313.46 126.78 400.14 123.17 400.14" style="fill:#ec2386;"/><polygon points="119.56 400.14 184.06 313.46 187.67 313.46 123.17 400.14 119.56 400.14" style="fill:#ec2287;"/><polygon points="115.95 400.14 180.45 313.46 184.06 313.46 119.56 400.14 115.95 400.14" style="fill:#ec2188;"/><polygon points="112.34 400.14 176.84 313.46 180.45 313.46 115.95 400.14 112.34 400.14" style="fill:#ec2089;"/><polygon points="109.11 399.63 173.23 313.46 176.84 313.46 112.34 400.14 109.11 400.14 109.11 399.63" style="fill:#ec208a;"/><polygon points="109.11 394.78 169.62 313.46 173.23 313.46 109.11 399.63 109.11 394.78" style="fill:#ec1f8b;"/><polygon points="109.11 389.93 166.01 313.46 169.62 313.46 109.11 394.78 109.11 389.93" style="fill:#ec1e8c;"/><polygon points="109.11 385.08 162.4 313.46 166.01 313.46 109.11 389.93 109.11 385.08" style="fill:#ec1e8d;"/><polygon points="109.11 380.23 158.79 313.46 162.4 313.46 109.11 385.08 109.11 380.23" style="fill:#ec1d8e;"/><polygon points="109.11 377.55 156.8 313.46 158.79 313.46 109.11 380.23 109.11 377.55" style="fill:#ec1d8e;"/><polygon points="109.11 374.88 154.81 313.46 156.8 313.46 109.11 377.55 109.11 374.88" style="fill:#eb1d8e;"/><polygon points="109.11 372.2 152.82 313.46 154.81 313.46 109.11 374.88 109.11 372.2" style="fill:#ea1d8e;"/><polygon points="109.11 369.53 150.83 313.46 152.82 313.46 109.11 372.2 109.11 369.53" style="fill:#e91d8e;"/><polygon points="109.11 366.85 148.84 313.46 150.83 313.46 109.11 369.53 109.11 366.85" style="fill:#e81e8e;"/><polygon points="109.11 364.18 146.85 313.46 148.84 313.46 109.11 366.85 109.11 364.18" style="fill:#e71e8e;"/><polygon points="109.11 361.5 144.86 313.46 146.85 313.46 109.11 364.18 109.11 361.5" style="fill:#e61e8e;"/><polygon points="109.11 358.83 142.87 313.46 144.86 313.46 109.11 361.5 109.11 358.83" style="fill:#e51e8e;"/><polygon points="109.11 356.15 140.88 313.46 142.87 313.46 109.11 358.83 109.11 356.15" style="fill:#e41e8e;"/><polygon points="109.11 353.48 138.88 313.46 140.88 313.46 109.11 356.15 109.11 353.48" style="fill:#e31e8e;"/><polygon points="109.11 350.8 136.89 313.46 138.88 313.46 109.11 353.48 109.11 350.8" style="fill:#e21e8e;"/><polygon points="109.11 348.13 134.9 313.46 136.89 313.46 109.11 350.8 109.11 348.13" style="fill:#e11f8e;"/><polygon points="109.11 345.45 132.91 313.46 134.9 313.46 109.11 348.13 109.11 345.45" style="fill:#e01f8e;"/><polygon points="109.11 342.78 130.92 313.46 132.91 313.46 109.11 345.45 109.11 342.78" style="fill:#df1f8e;"/><polygon points="109.11 340.1 128.93 313.46 130.92 313.46 109.11 342.78 109.11 340.1" style="fill:#de1f8e;"/><polygon points="109.11 337.42 126.94 313.46 128.93 313.46 109.11 340.1 109.11 337.42" style="fill:#dd1f8e;"/><polygon points="109.11 334.75 124.95 313.46 126.94 313.46 109.11 337.42 109.11 334.75" style="fill:#dc1f8e;"/><polygon points="109.11 332.07 122.96 313.46 124.95 313.46 109.11 334.75 109.11 332.07" style="fill:#db1f8e;"/><polygon points="109.11 329.4 120.97 313.46 122.96 313.46 109.11 332.07 109.11 329.4" style="fill:#da208e;"/><polygon points="109.11 326.72 118.98 313.46 120.97 313.46 109.11 329.4 109.11 326.72" style="fill:#d9208e;"/><polygon points="109.11 324.05 116.99 313.46 118.98 313.46 109.11 326.72 109.11 324.05" style="fill:#d8208e;"/><polygon points="109.11 321.37 115 313.46 116.99 313.46 109.11 324.05 109.11 321.37" style="fill:#d7208e;"/><polygon points="109.11 318.7 113.01 313.46 115 313.46 109.11 321.37 109.11 318.7" style="fill:#d6208e;"/><polygon points="109.11 316.02 111.02 313.46 113.01 313.46 109.11 318.7 109.11 316.02" style="fill:#d5208f;"/><polygon points="111.02 313.46 109.11 316.02 109.11 313.46 111.02 313.46" style="fill:#d4218f;"/></g></g><g style="clip-path:url(#clippath-8);"><g style="clip-path:url(#clippath-9);"><polygon points="238.69 400.12 241.46 396.4 241.46 400.12 238.69 400.12" style="fill:#ee3965;"/><polygon points="235.08 400.12 241.46 391.55 241.46 396.4 238.69 400.12 235.08 400.12" style="fill:#ee3866;"/><polygon points="231.47 400.12 241.46 386.7 241.46 391.55 235.08 400.12 231.47 400.12" style="fill:#ee3767;"/><polygon points="227.86 400.12 241.46 381.85 241.46 386.7 231.47 400.12 227.86 400.12" style="fill:#ee3768;"/><polygon points="224.25 400.12 241.46 377 241.46 381.85 227.86 400.12 224.25 400.12" style="fill:#ee3669;"/><polygon points="220.64 400.12 241.46 372.15 241.46 377 224.25 400.12 220.64 400.12" style="fill:#ee356a;"/><polygon points="217.03 400.12 241.46 367.29 241.46 372.15 220.64 400.12 217.03 400.12" style="fill:#ee356c;"/><polygon points="213.42 400.12 241.46 362.44 241.46 367.29 217.03 400.12 213.42 400.12" style="fill:#ee346d;"/><polygon points="209.81 400.12 241.46 357.59 241.46 362.44 213.42 400.12 209.81 400.12" style="fill:#ee336e;"/><polygon points="206.2 400.12 241.46 352.74 241.46 357.59 209.81 400.12 206.2 400.12" style="fill:#ed326f;"/><polygon points="202.59 400.12 241.46 347.89 241.46 352.74 206.2 400.12 202.59 400.12" style="fill:#ed3270;"/><polygon points="198.98 400.12 241.46 343.04 241.46 347.89 202.59 400.12 198.98 400.12" style="fill:#ed3171;"/><polygon points="195.38 400.12 241.46 338.19 241.46 343.04 198.98 400.12 195.38 400.12" style="fill:#ed3072;"/><polygon points="191.77 400.12 241.46 333.34 241.46 338.19 195.38 400.12 191.77 400.12" style="fill:#ed3073;"/><polygon points="188.16 400.12 241.46 328.49 241.46 333.34 191.77 400.12 188.16 400.12" style="fill:#ed2f74;"/><polygon points="184.55 400.12 241.46 323.64 241.46 328.49 188.16 400.12 184.55 400.12" style="fill:#ed2e75;"/><polygon points="180.94 400.12 241.46 318.79 241.46 323.64 184.55 400.12 180.94 400.12" style="fill:#ed2e76;"/><polygon points="177.33 400.12 241.46 313.93 241.46 318.79 180.94 400.12 177.33 400.12" style="fill:#ed2d77;"/><polygon points="173.72 400.12 238.19 313.48 241.46 313.48 241.46 313.93 177.33 400.12 173.72 400.12" style="fill:#ed2c78;"/><polygon points="170.11 400.12 234.58 313.48 238.19 313.48 173.72 400.12 170.11 400.12" style="fill:#ed2c79;"/><polygon points="166.5 400.12 230.97 313.48 234.58 313.48 170.11 400.12 166.5 400.12" style="fill:#ed2b7a;"/><polygon points="162.89 400.12 227.36 313.48 230.97 313.48 166.5 400.12 162.89 400.12" style="fill:#ed2a7b;"/><polygon points="159.28 400.12 223.75 313.48 227.36 313.48 162.89 400.12 159.28 400.12" style="fill:#ed297c;"/><polygon points="155.67 400.12 220.14 313.48 223.75 313.48 159.28 400.12 155.67 400.12" style="fill:#ed297d;"/><polygon points="155.07 396.08 216.53 313.48 220.14 313.48 155.67 400.12 155.07 400.12 155.07 396.08" style="fill:#ed287e;"/><polygon points="155.07 391.23 212.92 313.48 216.53 313.48 155.07 396.08 155.07 391.23" style="fill:#ed277f;"/><polygon points="155.07 386.38 209.31 313.48 212.92 313.48 155.07 391.23 155.07 386.38" style="fill:#ed2780;"/><polygon points="155.07 381.53 205.7 313.48 209.31 313.48 155.07 386.38 155.07 381.53" style="fill:#ed2681;"/><polygon points="155.07 376.68 202.09 313.48 205.7 313.48 155.07 381.53 155.07 376.68" style="fill:#ed2582;"/><polygon points="155.07 371.83 198.48 313.48 202.09 313.48 155.07 376.68 155.07 371.83" style="fill:#ed2583;"/><polygon points="155.07 366.98 194.87 313.48 198.48 313.48 155.07 371.83 155.07 366.98" style="fill:#ec2484;"/><polygon points="155.07 362.13 191.26 313.48 194.87 313.48 155.07 366.98 155.07 362.13" style="fill:#ec2385;"/><polygon points="155.07 357.28 187.65 313.48 191.26 313.48 155.07 362.13 155.07 357.28" style="fill:#ec2386;"/><polygon points="155.07 352.43 184.04 313.48 187.65 313.48 155.07 357.28 155.07 352.43" style="fill:#ec2287;"/><polygon points="155.07 347.57 180.43 313.48 184.04 313.48 155.07 352.43 155.07 347.57" style="fill:#ec2188;"/><polygon points="155.07 342.72 176.82 313.48 180.43 313.48 155.07 347.57 155.07 342.72" style="fill:#ec2089;"/><polygon points="155.07 337.87 173.22 313.48 176.82 313.48 155.07 342.72 155.07 337.87" style="fill:#ec208a;"/><polygon points="155.07 333.02 169.61 313.48 173.22 313.48 155.07 337.87 155.07 333.02" style="fill:#ec1f8b;"/><polygon points="155.07 328.17 166 313.48 169.61 313.48 155.07 333.02 155.07 328.17" style="fill:#ec1e8c;"/><polygon points="155.07 323.32 162.39 313.48 166 313.48 155.07 328.17 155.07 323.32" style="fill:#ec1e8d;"/><polygon points="155.07 318.47 158.78 313.48 162.39 313.48 155.07 323.32 155.07 318.47" style="fill:#ec1d8e;"/><polygon points="155.07 315.79 156.79 313.48 158.78 313.48 155.07 318.47 155.07 315.79" style="fill:#ec1d8e;"/><polygon points="156.79 313.48 155.07 315.79 155.07 313.48 156.79 313.48" style="fill:#eb1d8e;"/></g></g><g style="clip-path:url(#clippath-10);"><g style="clip-path:url(#clippath-11);"><polygon points="281.84 400.34 283.34 398.33 283.34 400.34 281.84 400.34" style="fill:#ee4159;"/><polygon points="278.23 400.34 283.34 393.48 283.34 398.33 281.84 400.34 278.23 400.34" style="fill:#ee405a;"/><polygon points="274.62 400.34 283.34 388.63 283.34 393.48 278.23 400.34 274.62 400.34" style="fill:#ee405b;"/><polygon points="271.01 400.34 283.34 383.78 283.34 388.63 274.62 400.34 271.01 400.34" style="fill:#ee3f5c;"/><polygon points="267.4 400.34 283.34 378.93 283.34 383.78 271.01 400.34 267.4 400.34" style="fill:#ee3e5d;"/><polygon points="263.79 400.34 283.34 374.08 283.34 378.93 267.4 400.34 263.79 400.34" style="fill:#ee3e5e;"/><polygon points="260.18 400.34 283.34 369.23 283.34 374.08 263.79 400.34 260.18 400.34" style="fill:#ee3d5f;"/><polygon points="256.57 400.34 283.34 364.38 283.34 369.23 260.18 400.34 256.57 400.34" style="fill:#ee3c60;"/><polygon points="252.97 400.34 283.34 359.53 283.34 364.38 256.57 400.34 252.97 400.34" style="fill:#ee3b61;"/><polygon points="249.36 400.34 283.34 354.67 283.34 359.53 252.97 400.34 249.36 400.34" style="fill:#ee3b62;"/><polygon points="245.75 400.34 283.34 349.82 283.34 354.67 249.36 400.34 245.75 400.34" style="fill:#ee3a63;"/><polygon points="242.14 400.34 283.34 344.97 283.34 349.82 245.75 400.34 242.14 400.34" style="fill:#ee3964;"/><polygon points="238.53 400.34 283.34 340.12 283.34 344.97 242.14 400.34 238.53 400.34" style="fill:#ee3965;"/><polygon points="234.92 400.34 283.34 335.27 283.34 340.12 238.53 400.34 234.92 400.34" style="fill:#ee3866;"/><polygon points="231.31 400.34 283.34 330.42 283.34 335.27 234.92 400.34 231.31 400.34" style="fill:#ee3767;"/><polygon points="227.7 400.34 283.34 325.57 283.34 330.42 231.31 400.34 227.7 400.34" style="fill:#ee3768;"/><polygon points="224.09 400.34 283.34 320.72 283.34 325.57 227.7 400.34 224.09 400.34" style="fill:#ee3669;"/><polygon points="220.48 400.34 283.34 315.87 283.34 320.72 224.09 400.34 220.48 400.34" style="fill:#ee356a;"/><polygon points="216.87 400.34 281.07 314.07 283.34 314.07 283.34 315.87 220.48 400.34 216.87 400.34" style="fill:#ee356c;"/><polygon points="213.26 400.34 277.46 314.07 281.07 314.07 216.87 400.34 213.26 400.34" style="fill:#ee346d;"/><polygon points="209.65 400.34 273.85 314.07 277.46 314.07 213.26 400.34 209.65 400.34" style="fill:#ee336e;"/><polygon points="206.04 400.34 270.24 314.07 273.85 314.07 209.65 400.34 206.04 400.34" style="fill:#ed326f;"/><polygon points="202.43 400.34 266.63 314.07 270.24 314.07 206.04 400.34 202.43 400.34" style="fill:#ed3270;"/><polygon points="198.82 400.34 263.02 314.07 266.63 314.07 202.43 400.34 198.82 400.34" style="fill:#ed3171;"/><polygon points="197.39 397.41 259.41 314.07 263.02 314.07 198.82 400.34 197.39 400.34 197.39 397.41" style="fill:#ed3072;"/><polygon points="197.39 392.56 255.8 314.07 259.41 314.07 197.39 397.41 197.39 392.56" style="fill:#ed3073;"/><polygon points="197.39 387.71 252.19 314.07 255.8 314.07 197.39 392.56 197.39 387.71" style="fill:#ed2f74;"/><polygon points="197.39 382.86 248.58 314.07 252.19 314.07 197.39 387.71 197.39 382.86" style="fill:#ed2e75;"/><polygon points="197.39 378.01 244.97 314.07 248.58 314.07 197.39 382.86 197.39 378.01" style="fill:#ed2e76;"/><polygon points="197.39 373.16 241.36 314.07 244.97 314.07 197.39 378.01 197.39 373.16" style="fill:#ed2d77;"/><polygon points="197.39 368.31 237.75 314.07 241.36 314.07 197.39 373.16 197.39 368.31" style="fill:#ed2c78;"/><polygon points="197.39 363.45 234.14 314.07 237.75 314.07 197.39 368.31 197.39 363.45" style="fill:#ed2c79;"/><polygon points="197.39 358.6 230.53 314.07 234.14 314.07 197.39 363.45 197.39 358.6" style="fill:#ed2b7a;"/><polygon points="197.39 353.75 226.92 314.07 230.53 314.07 197.39 358.6 197.39 353.75" style="fill:#ed2a7b;"/><polygon points="197.39 348.9 223.31 314.07 226.92 314.07 197.39 353.75 197.39 348.9" style="fill:#ed297c;"/><polygon points="197.39 344.05 219.7 314.07 223.31 314.07 197.39 348.9 197.39 344.05" style="fill:#ed297d;"/><polygon points="197.39 339.2 216.09 314.07 219.7 314.07 197.39 344.05 197.39 339.2" style="fill:#ed287e;"/><polygon points="197.39 334.35 212.49 314.07 216.09 314.07 197.39 339.2 197.39 334.35" style="fill:#ed277f;"/><polygon points="197.39 329.5 208.88 314.07 212.49 314.07 197.39 334.35 197.39 329.5" style="fill:#ed2780;"/><polygon points="197.39 324.65 205.27 314.07 208.88 314.07 197.39 329.5 197.39 324.65" style="fill:#ed2681;"/><polygon points="197.39 319.8 201.66 314.07 205.27 314.07 197.39 324.65 197.39 319.8" style="fill:#ed2582;"/><polygon points="197.39 314.95 198.05 314.07 201.66 314.07 197.39 319.8 197.39 314.95" style="fill:#ed2583;"/><polygon points="198.05 314.07 197.39 314.95 197.39 314.07 198.05 314.07" style="fill:#ec2484;"/></g></g><g style="clip-path:url(#clippath-12);"><g style="clip-path:url(#clippath-13);"><polygon points="322.16 399.51 323.92 397.15 323.92 399.51 322.16 399.51" style="fill:#ef494e;"/><polygon points="318.56 399.51 323.92 392.3 323.92 397.15 322.16 399.51 318.56 399.51" style="fill:#ef484f;"/><polygon points="314.95 399.51 323.92 387.44 323.92 392.3 318.56 399.51 314.95 399.51" style="fill:#ef4750;"/><polygon points="311.34 399.51 323.92 382.59 323.92 387.44 314.95 399.51 311.34 399.51" style="fill:#ef4651;"/><polygon points="307.73 399.51 323.92 377.74 323.92 382.59 311.34 399.51 307.73 399.51" style="fill:#ef4652;"/><polygon points="304.12 399.51 323.92 372.89 323.92 377.74 307.73 399.51 304.12 399.51" style="fill:#ef4553;"/><polygon points="300.51 399.51 323.92 368.04 323.92 372.89 304.12 399.51 300.51 399.51" style="fill:#ef4454;"/><polygon points="296.9 399.51 323.92 363.19 323.92 368.04 300.51 399.51 296.9 399.51" style="fill:#ef4455;"/><polygon points="293.29 399.51 323.92 358.34 323.92 363.19 296.9 399.51 293.29 399.51" style="fill:#ef4356;"/><polygon points="289.68 399.51 323.92 353.49 323.92 358.34 293.29 399.51 289.68 399.51" style="fill:#ef4257;"/><polygon points="286.07 399.51 323.92 348.64 323.92 353.49 289.68 399.51 286.07 399.51" style="fill:#ef4258;"/><polygon points="282.46 399.51 323.92 343.79 323.92 348.64 286.07 399.51 282.46 399.51" style="fill:#ee4159;"/><polygon points="278.85 399.51 323.92 338.94 323.92 343.79 282.46 399.51 278.85 399.51" style="fill:#ee405a;"/><polygon points="275.24 399.51 323.92 334.08 323.92 338.94 278.85 399.51 275.24 399.51" style="fill:#ee405b;"/><polygon points="271.63 399.51 323.92 329.23 323.92 334.08 275.24 399.51 271.63 399.51" style="fill:#ee3f5c;"/><polygon points="268.02 399.51 323.92 324.38 323.92 329.23 271.63 399.51 268.02 399.51" style="fill:#ee3e5d;"/><polygon points="264.41 399.51 323.92 319.53 323.92 324.38 268.02 399.51 264.41 399.51" style="fill:#ee3e5e;"/><polygon points="260.8 399.51 323.92 314.68 323.92 319.53 264.41 399.51 260.8 399.51" style="fill:#ee3d5f;"/><polygon points="257.19 399.51 320.75 314.1 323.92 314.1 323.92 314.68 260.8 399.51 257.19 399.51" style="fill:#ee3c60;"/><polygon points="253.58 399.51 317.14 314.1 320.75 314.1 257.19 399.51 253.58 399.51" style="fill:#ee3b61;"/><polygon points="249.97 399.51 313.53 314.1 317.14 314.1 253.58 399.51 249.97 399.51" style="fill:#ee3b62;"/><polygon points="246.36 399.51 309.92 314.1 313.53 314.1 249.97 399.51 246.36 399.51" style="fill:#ee3a63;"/><polygon points="242.76 399.51 306.31 314.1 309.92 314.1 246.36 399.51 242.76 399.51" style="fill:#ee3964;"/><polygon points="239.15 399.51 302.7 314.1 306.31 314.1 242.76 399.51 239.15 399.51" style="fill:#ee3965;"/><polygon points="238.95 394.93 299.09 314.1 302.7 314.1 239.15 399.51 238.95 399.51 238.95 394.93" style="fill:#ee3866;"/><polygon points="238.95 390.07 295.48 314.1 299.09 314.1 238.95 394.93 238.95 390.07" style="fill:#ee3767;"/><polygon points="238.95 385.22 291.87 314.1 295.48 314.1 238.95 390.07 238.95 385.22" style="fill:#ee3768;"/><polygon points="238.95 380.37 288.26 314.1 291.87 314.1 238.95 385.22 238.95 380.37" style="fill:#ee3669;"/><polygon points="238.95 375.52 284.66 314.1 288.26 314.1 238.95 380.37 238.95 375.52" style="fill:#ee356a;"/><polygon points="238.95 370.67 281.05 314.1 284.66 314.1 238.95 375.52 238.95 370.67" style="fill:#ee356c;"/><polygon points="238.95 365.82 277.44 314.1 281.05 314.1 238.95 370.67 238.95 365.82" style="fill:#ee346d;"/><polygon points="238.95 360.97 273.83 314.1 277.44 314.1 238.95 365.82 238.95 360.97" style="fill:#ee336e;"/><polygon points="238.95 356.12 270.22 314.1 273.83 314.1 238.95 360.97 238.95 356.12" style="fill:#ed326f;"/><polygon points="238.95 351.27 266.61 314.1 270.22 314.1 238.95 356.12 238.95 351.27" style="fill:#ed3270;"/><polygon points="238.95 346.42 263 314.1 266.61 314.1 238.95 351.27 238.95 346.42" style="fill:#ed3171;"/><polygon points="238.95 341.57 259.39 314.1 263 314.1 238.95 346.42 238.95 341.57" style="fill:#ed3072;"/><polygon points="238.95 336.71 255.78 314.1 259.39 314.1 238.95 341.57 238.95 336.71" style="fill:#ed3073;"/><polygon points="238.95 331.86 252.17 314.1 255.78 314.1 238.95 336.71 238.95 331.86" style="fill:#ed2f74;"/><polygon points="238.95 327.01 248.56 314.1 252.17 314.1 238.95 331.86 238.95 327.01" style="fill:#ed2e75;"/><polygon points="238.95 322.16 244.95 314.1 248.56 314.1 238.95 327.01 238.95 322.16" style="fill:#ed2e76;"/><polygon points="238.95 317.31 241.34 314.1 244.95 314.1 238.95 322.16 238.95 317.31" style="fill:#ed2d77;"/><polygon points="241.34 314.1 238.95 317.31 238.95 314.1 241.34 314.1" style="fill:#ed2c78;"/></g></g></g><g><path d="M150.65,395.77c1.69,0,2.96,.42,3.83,1.24s1.31,2.03,1.31,3.6c0,.84-.2,1.59-.59,2.25-.4,.66-.97,1.18-1.75,1.57-.77,.39-1.71,.59-2.83,.61l.03-1.02c.61,0,1.26,.08,1.97,.25s1.37,.45,2.01,.85c.64,.4,1.15,.95,1.55,1.64s.6,1.54,.6,2.57c0,1.12-.18,2.05-.55,2.79-.37,.74-.86,1.33-1.47,1.76-.62,.43-1.28,.73-1.99,.89s-1.42,.25-2.12,.25h-7.03c-.4,0-.74-.13-1-.4-.27-.26-.4-.6-.4-1v-16.43c0-.4,.13-.74,.4-1s.6-.4,1-.4h7.03Zm-.41,2.72h-5.38l.33-.46v5.91l-.3-.3h5.44c.66-.02,1.24-.24,1.75-.68,.5-.43,.75-1.07,.75-1.91s-.24-1.48-.7-1.91-1.09-.65-1.88-.65Zm.22,7.86h-5.47l.19-.22v6.48l-.22-.24h5.63c.97,0,1.75-.25,2.34-.76,.59-.5,.88-1.27,.88-2.29,0-.86-.17-1.5-.52-1.93-.35-.42-.78-.7-1.29-.83-.51-.14-1.03-.21-1.54-.21Z" style="fill:#666667;"/><path d="M166.59,415.28c-1.52,0-2.84-.32-3.96-.95-1.11-.63-1.98-1.5-2.6-2.61-.61-1.11-.92-2.38-.92-3.81,0-1.61,.32-2.99,.97-4.13,.65-1.15,1.5-2.03,2.54-2.64,1.05-.61,2.15-.92,3.33-.92,.89,0,1.75,.18,2.56,.54,.8,.36,1.52,.85,2.16,1.49s1.13,1.37,1.5,2.23c.36,.85,.56,1.78,.58,2.79-.02,.37-.16,.67-.44,.91s-.6,.36-.96,.36h-10.69l-.66-2.33h10.33l-.52,.5v-.69c-.06-.64-.28-1.2-.66-1.68-.39-.48-.86-.85-1.41-1.13-.56-.28-1.15-.41-1.77-.41-.55,0-1.08,.08-1.58,.26s-.95,.46-1.35,.84-.7,.89-.93,1.53c-.23,.63-.34,1.41-.34,2.35,0,1.01,.21,1.89,.63,2.64,.42,.75,.99,1.33,1.71,1.75s1.5,.62,2.36,.62c.68,0,1.23-.07,1.66-.21,.43-.14,.79-.3,1.1-.51,.3-.2,.56-.4,.78-.58,.28-.17,.54-.25,.8-.25,.35,0,.63,.11,.85,.34,.22,.23,.33,.5,.33,.81,0,.4-.2,.77-.6,1.1-.5,.48-1.18,.9-2.05,1.26-.87,.37-1.79,.55-2.74,.55Z" style="fill:#666667;"/><path d="M185.22,395.75c.22,0,.45,.06,.69,.18,.24,.12,.42,.27,.55,.46l6.98,10.63-1.18-.06,7.12-10.58c.29-.42,.67-.63,1.13-.63,.37,0,.69,.13,.97,.4,.28,.27,.43,.6,.43,1v16.46c0,.4-.14,.74-.4,1s-.61,.4-1.03,.4-.77-.13-1.03-.4c-.26-.26-.4-.6-.4-1v-13.93l.88,.19-6.04,9.21c-.13,.16-.3,.31-.51,.43-.21,.12-.42,.18-.62,.18s-.41-.06-.62-.18-.38-.26-.51-.43l-5.83-9.07,.66-1.1v14.7c0,.4-.12,.74-.37,1-.25,.27-.58,.4-.98,.4s-.7-.13-.95-.4c-.25-.26-.37-.6-.37-1v-16.46c0-.36,.14-.69,.43-.97s.62-.42,1-.42Z" style="fill:#666667;"/><path d="M216.79,400.44c.4,0,.74,.13,.99,.4,.26,.26,.38,.6,.38,1v11.82c0,1.61-.3,2.92-.92,3.93-.62,1.01-1.44,1.75-2.47,2.21-1.03,.47-2.21,.7-3.5,.7-.66,0-1.32-.06-1.98-.18s-1.2-.28-1.62-.48c-.44-.2-.75-.46-.93-.75-.18-.3-.21-.63-.08-.98,.13-.44,.35-.74,.66-.89s.63-.17,.96-.04c.31,.13,.72,.3,1.23,.5,.52,.2,1.1,.3,1.76,.3,.89,0,1.65-.15,2.26-.44,.62-.3,1.09-.75,1.41-1.37,.33-.62,.5-1.43,.5-2.42v-1.9l.44,.69c-.29,.59-.68,1.08-1.17,1.48-.49,.4-1.05,.72-1.69,.93-.64,.22-1.36,.33-2.15,.33-1.01,0-1.87-.22-2.6-.68-.72-.45-1.28-1.07-1.67-1.87-.4-.79-.59-1.71-.59-2.73v-8.16c0-.4,.13-.74,.4-1s.6-.4,1.01-.4,.71,.13,.97,.4,.4,.6,.4,1v7.42c0,1.21,.26,2.09,.79,2.65s1.32,.84,2.36,.84c.7,0,1.3-.15,1.81-.44,.51-.29,.91-.7,1.21-1.22,.3-.52,.44-1.13,.44-1.83v-7.42c0-.4,.13-.74,.39-1,.26-.27,.58-.4,.99-.4Z" style="fill:#666667;"/><path d="M238.89,415.28c-1.41,0-2.72-.25-3.91-.75-1.2-.5-2.26-1.21-3.18-2.12s-1.63-1.96-2.14-3.15c-.52-1.19-.77-2.48-.77-3.87s.26-2.68,.77-3.87c.51-1.19,1.23-2.24,2.14-3.14,.91-.91,1.97-1.61,3.18-2.12,1.2-.5,2.5-.75,3.91-.75,.9,0,1.76,.1,2.6,.3,.83,.2,1.6,.5,2.3,.88,.24,.13,.41,.3,.52,.51,.11,.21,.17,.42,.17,.64,0,.37-.13,.7-.39,.98s-.57,.42-.93,.42c-.13,0-.26-.02-.38-.06-.13-.04-.26-.08-.38-.14-.52-.24-1.06-.43-1.65-.58-.59-.15-1.2-.22-1.84-.22-1.32,0-2.51,.32-3.57,.96-1.06,.64-1.9,1.5-2.52,2.57-.61,1.07-.92,2.27-.92,3.61s.31,2.52,.92,3.62c.62,1.09,1.45,1.95,2.52,2.58,1.06,.63,2.25,.95,3.57,.95,.64,0,1.32-.08,2.03-.24s1.32-.36,1.81-.62l-.22,.74v-5.22l.44,.39h-3.6c-.4,0-.74-.13-1-.39-.27-.26-.4-.58-.4-.99s.13-.74,.4-.99c.26-.26,.6-.38,1-.38h4.73c.4,0,.74,.13,1,.4s.4,.6,.4,1v6.1c0,.29-.07,.54-.22,.74-.15,.2-.31,.37-.5,.5-.84,.52-1.76,.93-2.76,1.24s-2.04,.47-3.12,.47Z" style="fill:#666667;"/><path d="M259.55,400.55c.39,0,.71,.14,.98,.4,.26,.27,.4,.6,.4,1v7.23c0,1.91-.53,3.39-1.59,4.46-1.06,1.07-2.56,1.61-4.51,1.61s-3.44-.54-4.49-1.61c-1.05-1.07-1.58-2.56-1.58-4.46v-7.23c0-.4,.13-.74,.4-1,.27-.26,.6-.4,1.01-.4s.71,.14,.97,.4c.26,.27,.4,.6,.4,1v7.23c0,1.19,.28,2.08,.83,2.66s1.38,.88,2.46,.88,1.93-.29,2.49-.88c.56-.59,.83-1.47,.83-2.66v-7.23c0-.4,.14-.74,.4-1,.27-.26,.6-.4,1-.4Z" style="fill:#666667;"/><path d="M271.48,415.28c-1.52,0-2.84-.32-3.96-.95-1.11-.63-1.98-1.5-2.6-2.61-.61-1.11-.92-2.38-.92-3.81,0-1.61,.32-2.99,.97-4.13,.65-1.15,1.5-2.03,2.54-2.64,1.05-.61,2.15-.92,3.33-.92,.89,0,1.75,.18,2.56,.54,.8,.36,1.52,.85,2.16,1.49s1.13,1.37,1.5,2.23c.36,.85,.56,1.78,.58,2.79-.02,.37-.16,.67-.44,.91s-.6,.36-.96,.36h-10.69l-.66-2.33h10.33l-.52,.5v-.69c-.06-.64-.28-1.2-.66-1.68-.39-.48-.86-.85-1.41-1.13-.56-.28-1.15-.41-1.77-.41-.55,0-1.08,.08-1.58,.26s-.95,.46-1.35,.84-.7,.89-.93,1.53c-.23,.63-.34,1.41-.34,2.35,0,1.01,.21,1.89,.63,2.64,.42,.75,.99,1.33,1.71,1.75s1.5,.62,2.36,.62c.68,0,1.23-.07,1.66-.21,.43-.14,.79-.3,1.1-.51,.3-.2,.56-.4,.78-.58,.28-.17,.54-.25,.8-.25,.35,0,.63,.11,.85,.34,.22,.23,.33,.5,.33,.81,0,.4-.2,.77-.6,1.1-.5,.48-1.18,.9-2.05,1.26-.87,.37-1.79,.55-2.74,.55Z" style="fill:#666667;"/><path d="M279.89,412.76c-.16-.26-.24-.56-.22-.89,.02-.34,.21-.63,.58-.86,.26-.17,.53-.24,.81-.21s.55,.17,.81,.43c.51,.57,1.08,1.01,1.72,1.35,.63,.33,1.39,.5,2.29,.5,.37-.02,.74-.08,1.13-.18s.72-.28,.99-.55c.28-.26,.41-.66,.41-1.17,0-.46-.15-.82-.44-1.09-.3-.26-.68-.49-1.15-.67-.48-.18-1-.35-1.57-.5-.59-.17-1.17-.35-1.76-.55-.59-.2-1.12-.46-1.61-.78s-.87-.74-1.17-1.25c-.3-.51-.44-1.14-.44-1.9,0-.86,.24-1.6,.71-2.23,.48-.62,1.11-1.11,1.9-1.45,.79-.35,1.63-.52,2.53-.52,.55,0,1.12,.07,1.71,.2,.58,.14,1.15,.36,1.7,.65,.55,.3,1.03,.68,1.43,1.15,.18,.24,.29,.52,.32,.85,.03,.33-.12,.64-.46,.91-.22,.18-.48,.26-.79,.24s-.57-.13-.77-.32c-.35-.44-.79-.78-1.35-1.02-.55-.24-1.17-.36-1.87-.36-.35,0-.71,.04-1.08,.14s-.69,.27-.95,.52c-.26,.26-.38,.63-.38,1.13,0,.46,.15,.82,.46,1.1,.3,.28,.7,.5,1.19,.69s1.03,.35,1.62,.5c.57,.15,1.13,.32,1.69,.52,.56,.2,1.06,.46,1.51,.78,.45,.32,.81,.73,1.1,1.23s.43,1.14,.43,1.91c0,.9-.26,1.67-.78,2.3s-1.18,1.11-1.98,1.44c-.8,.33-1.64,.5-2.52,.5-1.04,0-2.09-.19-3.12-.56-1.03-.38-1.91-1.03-2.62-1.97Z" style="fill:#666667;"/><path d="M293.68,400.72h6.46c.37,0,.68,.12,.92,.37s.37,.55,.37,.92-.12,.67-.37,.91c-.25,.24-.56,.36-.92,.36h-6.46c-.36,0-.67-.12-.92-.37s-.37-.56-.37-.92,.12-.67,.37-.91c.25-.24,.56-.36,.92-.36Zm2.89-3.58c.4,0,.73,.14,.99,.4,.26,.27,.39,.6,.39,1v12.75c0,.33,.05,.6,.16,.8,.11,.2,.26,.34,.45,.41,.2,.07,.39,.11,.59,.11s.38-.04,.54-.11c.15-.07,.34-.11,.56-.11s.42,.1,.6,.3c.18,.2,.28,.48,.28,.83,0,.44-.24,.79-.72,1.07s-.99,.41-1.54,.41c-.31,0-.68-.03-1.1-.08-.42-.05-.83-.19-1.22-.41-.39-.22-.72-.57-.99-1.06-.27-.48-.4-1.17-.4-2.05v-12.86c0-.4,.14-.74,.41-1,.28-.26,.6-.4,.99-.4Z" style="fill:#666667;"/></g></svg>