<svg width="44" height="39" viewBox="0 0 44 39" fill="none" xmlns="http://www.w3.org/2000/svg">
<path d="M17.4456 38.9806V32.8558C17.4456 32.6463 17.3782 32.4743 17.2436 32.3397C17.109 32.205 16.937 32.1377 16.7275 32.1377H0.416779V29.4904H16.7275C17.6452 29.4904 18.4355 29.8219 19.0984 30.4849C19.7614 31.1478 20.0929 31.9381 20.0929 32.8558V38.9806H17.4456ZM23.9071 38.9806V32.8558C23.9071 31.9381 24.2386 31.1478 24.9016 30.4849C25.5645 29.8219 26.3548 29.4904 27.2725 29.4904H43.5832V32.1377H27.2725C27.063 32.1377 26.891 32.205 26.7564 32.3397C26.6217 32.4743 26.5544 32.6463 26.5544 32.8558V38.9806H23.9071ZM8.15709 25.407C6.4956 25.407 5.08183 24.824 3.91579 23.6579C2.74974 22.4919 2.16672 21.0781 2.16672 19.4166V10.6219H41.8333V19.4166C41.8333 21.0781 41.2502 22.4919 40.0842 23.6579C38.9182 24.824 37.5044 25.407 35.8429 25.407H8.15709ZM8.15709 22.7596H35.8429C36.789 22.7596 37.5826 22.439 38.2239 21.7977C38.8652 21.1564 39.1859 20.3627 39.1859 19.4166V13.2693H4.81412V19.4166C4.81412 20.3627 5.13478 21.1564 5.7761 21.7977C6.41737 22.439 7.21104 22.7596 8.15709 22.7596ZM2.16672 7.39104V4.7437H16.0096V2.65723C16.0096 2.17672 16.1699 1.77615 16.4906 1.45551C16.8113 1.13487 17.2118 0.974548 17.6923 0.974548H26.3077C26.7882 0.974548 27.1887 1.13487 27.5094 1.45551C27.83 1.77615 27.9904 2.17672 27.9904 2.65723V4.7437H41.8333V7.39104H2.16672Z" fill="#776CBC"/>
</svg>
