<svg width="48" height="48" viewBox="0 0 48 48" fill="none" xmlns="http://www.w3.org/2000/svg">
<path d="M41.8306 38.2231L39.8037 36.177L41.973 14.3847H22.823L22.5499 12.1155H32.3384V3.3847H34.6075V12.1155H44.5575L41.8306 38.2231ZM41.073 45.3538L1.51147 5.79231L3.14222 4.16161L42.7037 43.7231L41.073 45.3538ZM3.44232 38.5654V36.2962H31.9576V38.5654H3.44232ZM4.69232 45C4.34359 45 4.04809 44.8756 3.80582 44.6269C3.56349 44.3782 3.44232 44.0859 3.44232 43.75V42.7308H31.9576V43.75C31.9576 44.0859 31.8396 44.3782 31.6037 44.6269C31.3679 44.8756 31.0692 44.9999 30.7076 44.9999H4.69232V45ZM21.7307 22.7693V25.0385C21.1025 24.918 20.4557 24.836 19.7903 24.7924C19.125 24.7488 18.4282 24.727 17.7 24.727C14.282 24.727 11.6365 25.2436 9.76342 26.277C7.89036 27.3103 6.68202 28.6064 6.13842 30.1654H29.146L31.4152 32.4346H3.47312C3.47312 29.8423 4.58144 27.5315 6.79807 25.502C9.01474 23.4725 12.6487 22.4578 17.7 22.4578C18.4153 22.4578 19.1089 22.4847 19.7807 22.5386C20.4525 22.5924 21.1025 22.6693 21.7307 22.7693Z" fill="#575757"/>
</svg>
