<svg width="26" height="44" viewBox="0 0 26 44" fill="none" xmlns="http://www.w3.org/2000/svg">
<path d="M21.6667 43.3333C24.05 43.3333 26 41.3833 26 39L25.9783 32.11C25.9783 30.9617 25.5233 29.8783 24.7217 29.055L17.3333 21.6667L24.7217 14.235C25.5233 13.4333 25.9783 12.3283 25.9783 11.18L26 4.33333C26 1.95 24.05 0 21.6667 0H4.33333C1.95 0 0 1.95 0 4.33333V11.18C0 12.3283 0.455 13.4333 1.25667 14.2567L8.66667 21.6667L1.27833 29.0333C0.455 29.8567 0 30.9617 0 32.11V39C0 41.3833 1.95 43.3333 4.33333 43.3333H21.6667ZM4.33333 11.0283V6.5C4.33333 5.30833 5.30833 4.33333 6.5 4.33333H19.5C20.6917 4.33333 21.6667 5.30833 21.6667 6.5V11.0283C21.6667 11.6133 21.4283 12.155 21.0383 12.5667L13 20.5833L4.96167 12.545C4.57167 12.155 4.33333 11.5917 4.33333 11.0283Z" fill="#A8569D"/>
</svg>
