<svg width="52" height="44" viewBox="0 0 52 44" fill="none" xmlns="http://www.w3.org/2000/svg">
<path d="M39.5916 20.3142C36.4597 24.1585 34.3494 28.3567 33.174 33.0253C32.3892 36.1394 32.1549 39.3079 32.1995 42.5073C32.2107 43.3242 31.8622 43.8267 31.2411 43.9641C30.4302 44.1448 29.7222 43.5928 29.6937 42.7288C29.5301 37.7855 30.2008 32.9746 31.9986 28.3419C33.5621 24.3132 35.7926 20.6979 38.6927 17.4923C38.8973 17.2658 39.1254 17.1259 38.777 16.7608C34.9421 12.7593 30.3732 10.076 24.9116 8.96333C23.5762 8.69104 22.2272 8.55118 20.8684 8.46949C20.4245 8.44226 20.3166 8.55613 20.3191 8.99056C20.3352 11.6652 20.3612 14.3423 20.3117 17.0158C20.2112 22.3948 18.2944 27.0671 14.7037 31.0648C14.5934 31.1874 14.4781 31.3049 14.3702 31.4287C14.3491 31.4535 14.3541 31.5017 14.3355 31.6007C15.2022 31.6007 16.0577 31.5933 16.9132 31.6032C17.8964 31.6144 18.3452 32.0624 18.3477 33.0451C18.3539 36.2149 18.3539 39.3834 18.3477 42.5531C18.3465 43.5346 17.8939 43.9913 16.9107 43.9925C11.7578 43.9987 6.60369 43.9987 1.4508 43.9925C0.462629 43.9925 0.00883822 43.5371 0.00635848 42.5605C0.000159151 39.3908 0.000159151 36.2223 0.00635848 33.0526C0.00759835 32.0414 0.45643 31.6032 1.4942 31.602C4.77117 31.597 8.04937 31.5995 11.3263 31.5995C11.5483 31.5995 11.7702 31.5995 12.0455 31.5995C11.6983 30.7975 11.9859 30.2418 12.5191 29.6811C16.0267 25.9977 17.76 21.5866 17.8108 16.5157C17.8356 14.0057 17.8009 11.4944 17.8282 8.98437C17.8332 8.49796 17.6757 8.36181 17.2318 8.42741C17.0905 8.44845 16.9405 8.45093 16.8004 8.42741C16.3974 8.3581 16.2461 8.52766 16.137 8.9163C15.2989 11.888 13.3498 13.6938 10.3097 14.2607C6.58881 14.955 2.78738 12.289 2.11537 8.55861C1.40121 4.59427 3.93302 0.823023 7.77536 0.127439C11.6239 -0.569382 15.1377 1.64238 16.1296 5.4161C16.2449 5.85301 16.4396 5.92727 16.8437 5.92727C19.0879 5.92603 21.3333 5.86167 23.5713 6.16986C29.0143 6.91866 33.8225 9.07101 38.0231 12.5947C39.3039 13.669 40.4434 14.8906 41.6386 16.0528C42.0316 16.4353 42.1122 16.8858 42.1011 17.3995C42.0267 21.0172 42.3875 24.5805 43.4215 28.0647C44.9416 33.1862 47.5738 37.6518 51.2872 41.4899C51.5439 41.756 51.834 41.9986 51.9468 42.3687C52.1142 42.9157 51.8762 43.5234 51.3889 43.8168C50.8855 44.12 50.2767 44.0495 49.8081 43.589C48.4244 42.2301 47.1771 40.751 46.055 39.1705C42.1445 33.6702 40.033 27.5374 39.6238 20.813C39.6164 20.693 39.6089 20.5729 39.5928 20.3142H39.5916ZM9.17269 41.4825C11.2123 41.4825 13.2531 41.4701 15.2927 41.4924C15.7192 41.4973 15.8519 41.3934 15.8469 40.9515C15.8233 38.8536 15.8246 36.7545 15.8469 34.6566C15.8519 34.2247 15.7365 34.1071 15.3001 34.1083C11.2197 34.1256 7.13931 34.1244 3.05891 34.1083C2.63364 34.1071 2.49973 34.2073 2.50469 34.6492C2.52825 36.7471 2.52701 38.8462 2.50469 40.9441C2.49973 41.3748 2.61504 41.4973 3.05147 41.4924C5.09105 41.4689 7.13187 41.4825 9.17145 41.4825H9.17269ZM13.8519 7.18972C13.8631 4.64254 11.7467 2.51619 9.19005 2.50505C6.63841 2.49391 4.50955 4.60541 4.49716 7.15754C4.48476 9.70347 6.60245 11.8311 9.15781 11.8434C11.7082 11.8558 13.8396 9.7406 13.8519 7.18972Z" fill="#BE8488"/>
</svg>
