<svg width="38" height="42" viewBox="0 0 38 42" fill="none" xmlns="http://www.w3.org/2000/svg">
<path d="M4.11561 41.8815C3.82566 41.7043 3.48388 41.684 3.17221 41.567C1.34776 40.8835 0.0583792 39.1459 0.0247616 37.1953C-0.0109572 35.1237 0.0100538 33.0513 0.00935347 30.9796C0.00795274 25.4313 0.0128553 19.883 0.000248692 14.3346C-0.000451676 13.9767 0.0793902 13.8773 0.44008 13.8941C1.14745 13.9263 1.85762 13.9137 2.5664 13.8983C2.80942 13.8927 2.89697 13.9459 2.88787 14.2093C2.86615 14.8354 2.88086 15.4629 2.88086 16.0905C2.88086 22.9478 2.90117 29.8044 2.86475 36.6617C2.85705 38.1471 3.82216 39.0317 5.2397 39.0275C14.2373 39.0002 23.2349 39.0142 32.2326 39.0128C33.391 39.0128 34.188 38.4441 34.4163 37.4356C34.473 37.1869 34.4688 36.9215 34.4688 36.6638C34.4716 29.2203 34.4737 21.7774 34.4618 14.3339C34.4618 13.9711 34.548 13.8787 34.9052 13.8941C35.6125 13.9249 36.3227 13.9144 37.0315 13.8969C37.2801 13.8906 37.3523 13.9508 37.3495 14.2086C37.3348 15.5309 37.3425 16.8532 37.3425 18.1755C37.3425 24.3779 37.3439 30.5811 37.3418 36.7835C37.3411 39.127 36.0538 40.9682 33.9513 41.642C33.6634 41.7344 33.3672 41.8017 33.0751 41.8808H4.11561V41.8815Z" fill="#7C7D38"/>
<path d="M18.6777 11.7096C12.5971 11.7096 6.51585 11.7054 0.435255 11.7194C0.0626597 11.7201 -0.0157815 11.6179 0.00242806 11.2705C0.0549556 10.2795 -0.0970242 9.27586 0.136899 8.29605C0.675481 6.04366 2.58889 4.57079 5.00656 4.52947C5.38826 4.52316 5.77206 4.50636 6.15096 4.53507C6.45352 4.55818 6.50534 4.44262 6.50044 4.16948C6.48853 3.53144 6.45141 2.88991 6.63981 2.26308C7.07124 0.823822 8.40964 -0.13218 9.79917 0.0148967C11.3337 0.178082 12.4928 1.3505 12.6083 2.8815C12.6434 3.34234 12.6322 3.80809 12.6252 4.27103C12.6224 4.46153 12.6728 4.53367 12.8745 4.53157C13.7605 4.52246 14.6471 4.52106 15.5331 4.53157C15.7705 4.53437 15.7887 4.42091 15.7929 4.23111C15.8069 3.52654 15.7348 2.81917 15.9617 2.1244C16.3938 0.804211 17.7694 -0.134282 19.105 0.0169978C20.5974 0.186487 21.7439 1.33789 21.8819 2.77785C21.9274 3.2548 21.9309 3.73035 21.9204 4.2066C21.9148 4.44402 21.9604 4.54067 22.2286 4.53437C23.0732 4.51546 23.9193 4.51476 24.7639 4.53437C25.0336 4.54067 25.0714 4.44402 25.07 4.2087C25.0651 3.55666 25.0189 2.90181 25.2108 2.26168C25.6422 0.823121 26.9813 -0.132881 28.3708 0.0155971C29.9053 0.179483 31.0581 1.3526 31.1814 2.8829C31.201 3.12733 31.1982 3.37316 31.1989 3.61829C31.2003 4.22714 31.4996 4.5318 32.0968 4.53227C32.781 4.53227 33.4548 4.5876 34.1068 4.82292C35.9985 5.50368 37.2795 7.2525 37.3341 9.26465C37.353 9.95942 37.3201 10.6563 37.3523 11.3503C37.3678 11.6809 37.2445 11.7159 36.9608 11.7159C30.8662 11.7082 24.7716 11.7103 18.677 11.7103L18.6777 11.7096ZM20.1996 5.95682H20.1975C20.1975 5.03093 20.1975 4.10504 20.1961 3.17916C20.1961 3.11192 20.18 3.04399 20.1716 2.97675C20.1037 2.41436 19.8151 2.00814 19.2843 1.80784C18.4298 1.48497 17.5445 2.123 17.5249 3.10632C17.4976 4.45383 17.5137 5.80204 17.5137 7.15024C17.5137 7.74906 17.499 8.34927 17.5319 8.94669C17.5684 9.60994 18.081 10.1338 18.7121 10.2116C19.3144 10.2858 19.9174 9.87888 20.1149 9.25765C20.1898 9.02233 20.2003 8.7765 20.1996 8.53067C20.1982 7.67272 20.1996 6.81477 20.1996 5.95682ZM10.9044 5.99184H10.9079C10.9079 5.07926 10.9121 4.16668 10.9065 3.2548C10.9009 2.36673 10.3216 1.71399 9.55614 1.72099C8.80675 1.728 8.22405 2.36743 8.21914 3.23449C8.20864 5.05895 8.21564 6.8841 8.21704 8.70856C8.21704 8.81712 8.22825 8.92638 8.24856 9.03283C8.38793 9.76402 8.97134 10.2592 9.63739 10.2165C10.323 10.173 10.8826 9.59173 10.8995 8.85074C10.9205 7.89824 10.9044 6.94434 10.9044 5.99114V5.99184ZM29.4753 5.97853H29.4781C29.4781 5.05264 29.4851 4.12606 29.476 3.20017C29.4676 2.36533 28.894 1.7336 28.1544 1.72099C27.4337 1.70909 26.8083 2.3107 26.7971 3.12383C26.7719 5.01622 26.7775 6.90932 26.795 8.80241C26.8006 9.40473 27.0899 9.88238 27.6628 10.1219C28.5158 10.4784 29.4438 9.82495 29.4697 8.83743C29.4949 7.88493 29.4753 6.93103 29.4753 5.97783V5.97853Z" fill="#7C7D38"/>
<path d="M29.2729 21.5086C28.4836 21.5086 27.6935 21.5009 26.9042 21.5135C26.6801 21.517 26.6038 21.4637 26.6059 21.2256C26.6171 19.8508 26.6157 18.476 26.6066 17.1011C26.6052 16.8784 26.6542 16.7958 26.8958 16.7979C28.4612 16.8084 30.0265 16.807 31.5918 16.7993C31.8159 16.7979 31.9014 16.8532 31.8993 17.0934C31.8895 18.4683 31.8895 19.8431 31.8993 21.2179C31.9007 21.4504 31.832 21.5184 31.6002 21.5142C30.8242 21.5002 30.0482 21.5093 29.2729 21.5093V21.5086Z" fill="#7C7D38"/>
<path d="M8.07144 27.776C7.32275 27.776 6.57406 27.7655 5.82536 27.7816C5.55572 27.7872 5.44506 27.7332 5.44857 27.4293C5.46538 26.0818 5.46187 24.7343 5.44997 23.3868C5.44787 23.1367 5.5144 23.0646 5.76863 23.0667C7.32065 23.0786 8.87266 23.0772 10.424 23.0674C10.6607 23.066 10.7518 23.1045 10.7489 23.3721C10.7335 24.7329 10.7321 26.0944 10.7497 27.4559C10.7532 27.7473 10.6446 27.7851 10.3988 27.7809C9.62276 27.7683 8.84675 27.776 8.07074 27.776H8.07144Z" fill="#7C7D38"/>
<path d="M29.2316 27.7761C28.4555 27.7761 27.6802 27.7684 26.9042 27.781C26.6759 27.7845 26.6038 27.7229 26.6059 27.4869C26.6171 26.1128 26.6164 24.7379 26.6059 23.3638C26.6045 23.1376 26.6612 23.0655 26.8965 23.0669C28.4619 23.0774 30.0265 23.0795 31.5918 23.0655C31.8621 23.0634 31.9007 23.1635 31.8993 23.396C31.8902 24.7435 31.8881 26.0904 31.9007 27.4379C31.9035 27.7061 31.8299 27.7887 31.5582 27.7824C30.7829 27.7649 30.0069 27.7761 29.2309 27.7761H29.2316Z" fill="#7C7D38"/>
<path d="M15.1283 21.5085C14.3656 21.5085 13.6022 21.5001 12.8395 21.5134C12.6049 21.5176 12.5075 21.4798 12.5103 21.2087C12.5257 19.8465 12.5229 18.4836 12.5117 17.1214C12.5096 16.8734 12.5726 16.795 12.8297 16.7964C14.3831 16.8083 15.9365 16.8062 17.4892 16.7978C17.7133 16.7964 17.7946 16.8489 17.7925 17.0899C17.7813 18.4661 17.782 19.8423 17.7925 21.2178C17.7939 21.4482 17.7316 21.5169 17.499 21.5127C16.709 21.4987 15.9183 21.5071 15.1283 21.5071V21.5085Z" fill="#7C7D38"/>
<path d="M22.1537 21.5085C21.391 21.5085 20.6276 21.5008 19.8649 21.5134C19.6436 21.5169 19.5617 21.4679 19.5638 21.227C19.575 19.8515 19.5743 18.4753 19.5645 17.099C19.5631 16.8714 19.6212 16.7965 19.8579 16.7979C21.4246 16.8077 22.9914 16.8063 24.5581 16.7993C24.7661 16.7986 24.8431 16.8532 24.8417 17.0731C24.8333 18.4626 24.8326 19.8522 24.8417 21.2417C24.8431 21.4595 24.7752 21.5162 24.5644 21.5134C23.7611 21.5022 22.957 21.5085 22.153 21.5085H22.1537Z" fill="#7C7D38"/>
<path d="M15.1872 23.0716C15.9639 23.0716 16.7399 23.0793 17.5166 23.0667C17.7302 23.0632 17.7939 23.1221 17.7925 23.3385C17.7834 24.728 17.7834 26.1168 17.7925 27.5064C17.7939 27.7249 17.7218 27.7802 17.5124 27.7795C15.9457 27.7718 14.3796 27.7711 12.8129 27.7795C12.5804 27.7809 12.5111 27.7123 12.5125 27.4798C12.5223 26.1042 12.523 24.7287 12.5118 23.3525C12.5097 23.1088 12.5986 23.0632 12.8171 23.066C13.6071 23.0772 14.3971 23.0702 15.1872 23.0702V23.0716Z" fill="#7C7D38"/>
<path d="M22.2188 23.0718C22.9949 23.0718 23.7716 23.0802 24.5476 23.0662C24.7815 23.062 24.8445 23.1328 24.8431 23.3632C24.8326 24.7247 24.8333 26.0869 24.8431 27.4484C24.8445 27.6844 24.8025 27.7832 24.5336 27.7811C22.9808 27.7678 21.4281 27.7685 19.8761 27.7811C19.6135 27.7832 19.5623 27.6977 19.5644 27.4554C19.5757 26.0939 19.5785 24.7317 19.563 23.3702C19.5602 23.0991 19.6562 23.062 19.8908 23.0662C20.6668 23.0795 21.4435 23.0711 22.2195 23.0711L22.2188 23.0718Z" fill="#7C7D38"/>
<path d="M8.09588 29.3538C8.87258 29.3538 9.64929 29.363 10.4253 29.3482C10.6627 29.344 10.7517 29.3854 10.7489 29.6529C10.7335 31.0151 10.7328 32.3773 10.7489 33.7396C10.7524 34.0127 10.6529 34.0414 10.4218 34.04C8.88239 34.0309 7.34298 34.0274 5.80357 34.0421C5.50872 34.0449 5.44638 33.9525 5.44919 33.6751C5.46319 32.3535 5.46319 31.0319 5.44919 29.711C5.44638 29.4302 5.51572 29.3384 5.80707 29.3461C6.56977 29.3672 7.33247 29.3531 8.09588 29.3531V29.3538Z" fill="#7C7D38"/>
<path d="M28.6236 33.6876C27.8476 33.6876 27.0709 33.6792 26.2949 33.6925C26.0673 33.6967 25.9979 33.6365 26 33.4025C26.0113 32.027 26.0099 30.6515 26.0007 29.276C25.9993 29.068 26.0491 28.9993 26.269 29.0007C27.849 29.0105 29.429 29.0112 31.0084 29C31.2605 28.9979 31.2927 29.0995 31.292 29.3117C31.285 30.6739 31.2829 32.0354 31.2934 33.3976C31.2955 33.633 31.2227 33.6967 30.9937 33.6925C30.2037 33.6799 29.4136 33.6876 28.6236 33.6876Z" fill="#7C7D38"/>
<path d="M15.1605 34.0358C14.3711 34.0358 13.5818 34.0302 12.7925 34.04C12.5908 34.0428 12.5103 34.0008 12.5124 33.7753C12.5229 32.3871 12.5236 30.999 12.5124 29.6109C12.5103 29.377 12.6048 29.3503 12.7981 29.351C14.3634 29.3566 15.9288 29.358 17.4934 29.3496C17.7154 29.3482 17.7952 29.3959 17.7931 29.6361C17.7812 31.0109 17.7812 32.385 17.7931 33.7599C17.7952 34.0085 17.7028 34.0435 17.4878 34.0407C16.7125 34.0295 15.9365 34.0365 15.1605 34.0365V34.0358Z" fill="#7C7D38"/>
<path d="M22.1523 34.0358C21.4036 34.0358 20.6549 34.026 19.9069 34.0414C19.6562 34.0463 19.5588 33.9994 19.5623 33.7164C19.5792 32.3696 19.5792 31.0221 19.5623 29.6753C19.5588 29.3937 19.6534 29.3475 19.9062 29.3489C21.4302 29.3594 22.9542 29.3608 24.4782 29.3482C24.7507 29.3461 24.8494 29.3937 24.8452 29.6956C24.827 31.0291 24.827 32.3626 24.8452 33.6961C24.8494 33.9979 24.7514 34.0498 24.4782 34.0435C23.7029 34.0253 22.9269 34.0372 22.1516 34.0372L22.1523 34.0358Z" fill="#7C7D38"/>
</svg>
