<svg width="52" height="70" viewBox="0 0 52 70" fill="none" xmlns="http://www.w3.org/2000/svg">
<path d="M43.1652 52.4402C45.6236 52.4402 47.7107 53.2924 49.4264 54.997C51.1421 56.7015 52 58.7749 52 61.2172C52 63.6594 51.1421 65.7328 49.4264 67.4373C47.7107 69.1419 45.6236 69.9941 43.1652 69.9941C41.1724 69.9941 39.374 69.3882 37.77 68.1763C36.166 66.9643 35.1544 65.3755 34.7354 63.4096H7.46926L3.85149 68.988C3.52094 69.4876 3.08909 69.8045 2.55595 69.9386C2.02287 70.0727 1.53516 69.9872 1.09281 69.6819C0.566691 69.3164 0.226789 68.8689 0.0731055 68.3393C-0.0805176 67.8097 0.0079757 67.2951 0.338586 66.7956L17.0377 41.4844C12.7541 39.9719 9.26898 37.592 6.58239 34.3449C3.89586 31.0978 2.19405 27.2933 1.47696 22.9314H47.3485C46.6548 27.2933 44.9367 31.0886 42.1943 34.3172C39.4518 37.5458 36.0063 39.9048 31.8578 41.3942L38.2414 51.3509C37.6035 51.7024 36.9901 52.0852 36.4011 52.4992C35.8121 52.9131 35.3221 53.3699 34.9309 53.8695L27.6465 42.421C27.2833 42.5413 26.8049 42.6014 26.2112 42.6014H22.7401C22.1697 42.6014 21.6843 42.5413 21.2839 42.421L10.193 59.316H34.7354C35.1544 57.2901 36.1508 55.6376 37.7246 54.3586C39.2983 53.0797 41.1119 52.4402 43.1652 52.4402ZM43.1652 65.9005C44.5061 65.9005 45.6271 65.453 46.528 64.5579C47.429 63.6629 47.8795 62.5493 47.8795 61.2172C47.8795 59.9081 47.429 58.8003 46.528 57.8937C45.6271 56.9871 44.5061 56.5338 43.1652 56.5338C41.8475 56.5338 40.7323 56.9871 39.8197 57.8937C38.9071 58.8003 38.4508 59.9081 38.4508 61.2172C38.4508 62.5493 38.9071 63.6629 39.8197 64.5579C40.7323 65.453 41.8475 65.9005 43.1652 65.9005ZM24.3569 38.5426C28.2448 38.5426 31.7729 37.4961 34.9414 35.403C38.1098 33.3099 40.4577 30.5172 41.9849 27.0249H6.84069C8.2934 30.5172 10.604 33.3099 13.7724 35.403C16.9409 37.4961 20.4691 38.5426 24.3569 38.5426ZM17.3029 18.0814C17.5823 16.4208 17.5369 14.9707 17.1667 13.731C16.7965 12.4913 15.962 11.0204 14.6629 9.31825C13.3545 7.6438 12.5188 6.13008 12.1556 4.7771C11.7924 3.42412 11.7738 1.83176 12.0997 0H14.16C13.9551 1.89189 14.0285 3.42412 14.38 4.59671C14.7315 5.76929 15.5079 7.13962 16.7093 8.7077C17.9198 10.3451 18.7311 11.8588 19.1432 13.2488C19.5552 14.6388 19.6286 16.2497 19.3632 18.0814H17.3029ZM24.8179 18.0814C24.9995 16.0785 24.9145 14.485 24.5629 13.3009C24.2114 12.1167 23.4351 10.7892 22.2338 9.31825C20.9487 7.68078 20.1094 6.17632 19.716 4.80488C19.3225 3.43338 19.2888 1.83176 19.6147 0H21.675C21.3956 1.56344 21.4317 2.97078 21.7833 4.22202C22.1348 5.47326 22.9484 6.96848 24.2242 8.7077C25.4348 10.3081 26.231 11.8126 26.6128 13.2211C26.9946 14.6295 27.0831 16.2497 26.8782 18.0814H24.8179ZM32.3469 18.0814C32.5657 16.1155 32.4993 14.5312 32.1477 13.3286C31.7963 12.1259 31.0199 10.7892 29.8186 9.31825C28.473 7.62065 27.6093 6.0919 27.2274 4.732C26.8457 3.37211 26.8178 1.79477 27.1436 0H29.2039C28.9246 1.56344 28.97 2.97078 29.3401 4.22202C29.7103 5.47326 30.5332 6.96848 31.809 8.7077C33.0429 10.2711 33.8449 11.7571 34.215 13.1656C34.5852 14.5741 34.6493 16.2127 34.4072 18.0814H32.3469Z" fill="#CB957B"/>
</svg>
