<svg width="38" height="46" viewBox="0 0 38 46" fill="none" xmlns="http://www.w3.org/2000/svg">
<g clip-path="url(#clip0_175_169)">
<path d="M18.4577 18.6391C16.2906 20.3416 14.3199 22.0558 12.1826 23.5086C10.6503 24.5494 9.97212 25.7597 10.1662 27.6387C10.5224 31.0765 9.6844 34.2789 8.25948 37.3776C7.38489 39.2802 6.71583 41.2817 5.93258 43.229C5.15618 45.1599 3.48008 45.984 1.8291 45.2799C0.182684 44.5782 -0.436149 42.7863 0.321978 40.8367C1.45004 37.9381 2.58494 35.0395 3.7404 32.1526C3.97789 31.5616 4.09891 30.9753 4.10348 30.3348C4.11947 26.8475 4.17884 23.3579 4.1697 19.8706C4.16742 18.5567 4.60814 17.5442 5.58092 16.6965C8.48555 14.1723 11.3582 11.6057 14.2514 9.06737C16.3568 7.22366 18.6175 7.55803 20.3918 9.72433C22.8352 12.7077 23.8924 16.0796 23.5225 19.9389C23.4472 20.7301 23.6915 21.2363 24.3537 21.6672C25.347 22.3148 26.2901 23.0494 27.2218 23.7888C28.4732 24.7825 28.7175 26.313 27.8635 27.5139C27.0414 28.6701 25.6256 28.8867 24.3263 27.9636C22.7004 26.8099 21.1157 25.5925 19.5149 24.401C18.7431 23.8265 18.4303 23.0353 18.4531 22.0652C18.4759 20.9867 18.4577 19.9059 18.4577 18.6321V18.6391Z" fill="#CB957B"/>
<path d="M37.9977 25.4677C37.9977 27.0736 37.9931 28.6818 37.9977 30.2877C38 31.3426 37.5182 31.8842 36.4746 31.8818C33.3211 31.8771 30.1652 31.8771 27.0117 31.8818C26.6144 31.8818 26.2559 31.8088 25.9613 31.5263C25.7352 31.3096 25.516 31.0577 25.5914 30.7162C25.6781 30.323 26.0275 30.5137 26.2581 30.4808C28.1443 30.2123 29.6537 28.9126 30.1173 27.1348C30.6105 25.2463 29.9711 23.3885 28.3772 22.1523C27.6488 21.5872 26.8907 21.0668 26.1554 20.5111C25.4406 19.9695 25.4909 19.4468 26.3152 19.1053C26.6189 18.9805 26.9797 18.9711 27.3154 18.9711C30.2794 18.9617 33.2434 18.9593 36.2097 18.9688C37.5981 18.9711 37.9817 19.3573 37.9931 20.763C38.0068 22.3312 37.9954 23.8971 37.9954 25.4653L37.9977 25.4677Z" fill="#CB957B"/>
<path d="M12.1415 29.0632C12.1415 28.3191 12.1597 27.5751 12.1346 26.8333C12.1186 26.3742 12.2351 26.0563 12.6141 25.7478C14.2058 24.4481 14.1053 24.5069 15.4137 26.0963C17.5443 28.6865 18.9326 31.5827 19.6086 34.9075C20.0424 37.0409 20.7275 39.1201 21.271 41.2298C21.7847 43.2266 20.9353 44.8749 19.1747 45.3788C17.5351 45.8497 15.9161 44.8254 15.3886 42.9087C14.5323 39.7935 13.6828 36.6759 12.9179 33.5371C12.7329 32.7742 11.9999 32.2962 12.1004 31.4061C12.1894 30.6338 12.1186 29.8426 12.1186 29.0609H12.1415V29.0632Z" fill="#CB957B"/>
<path d="M26.877 12.1096C23.8468 12.1261 21.3372 9.54064 21.3646 6.43246C21.392 3.33135 23.8216 0.830687 26.8153 0.823623C29.8889 0.816559 32.3186 3.32429 32.3049 6.48662C32.2912 9.59244 29.8775 12.0931 26.877 12.1096Z" fill="#CB957B"/>
<path d="M30.8503 41.8727C30.8503 41.3241 30.8229 40.7754 30.8572 40.2315C30.9165 39.2567 31.0033 38.4066 29.5556 38.562C28.8134 38.6421 28.4846 37.8015 28.9322 37.1116C29.5807 36.1061 30.2977 35.143 31.0239 34.1918C31.5559 33.4948 32.1268 33.6031 32.6109 34.2695C33.2457 35.1454 33.876 36.0261 34.4674 36.9326C35.0657 37.8462 34.7277 38.555 33.6408 38.5173C32.7708 38.489 32.5401 38.7669 32.5812 39.6381C32.652 41.1592 32.5995 42.6874 32.6018 44.2133C32.6018 44.8608 32.4419 45.4636 31.7158 45.4589C31.001 45.4565 30.8229 44.8867 30.8458 44.218C30.8709 43.4362 30.8526 42.6545 30.8526 41.8727H30.8503Z" fill="#CB957B"/>
</g>
<defs>
<clipPath id="clip0_175_169">
<rect width="38" height="44.7059" fill="white" transform="translate(0 0.823608)"/>
</clipPath>
</defs>
</svg>
