<svg width="44" height="43" viewBox="0 0 44 43" fill="none" xmlns="http://www.w3.org/2000/svg">
<path d="M40.8307 35.223L38.8038 33.1769L40.973 11.3846H21.8231L21.55 9.1154H31.3384V0.384644H33.6076V9.1154H43.5576L40.8307 35.223ZM40.073 42.3537L0.511536 2.79225L2.14229 1.16154L41.7037 40.723L40.073 42.3537ZM2.44239 35.5653V33.2961H30.9576V35.5653H2.44239ZM3.69239 41.9999C3.34365 41.9999 3.04815 41.8755 2.80589 41.6268C2.56355 41.3781 2.44239 41.0858 2.44239 40.7499V39.7307H30.9576V40.7499C30.9576 41.0858 30.8397 41.3781 30.6038 41.6268C30.3679 41.8755 30.0692 41.9998 29.7077 41.9998H3.69239V41.9999ZM20.7308 19.7692V22.0384C20.1026 21.9179 19.4558 21.8359 18.7904 21.7923C18.125 21.7487 17.4282 21.7269 16.7 21.7269C13.2821 21.7269 10.6366 22.2436 8.76349 23.2769C6.89042 24.3102 5.68209 25.6064 5.13849 27.1653H28.1461L30.4153 29.4345H2.47319C2.47319 26.8423 3.5815 24.5314 5.79814 22.5019C8.0148 20.4725 11.6488 19.4577 16.7 19.4577C17.4154 19.4577 18.109 19.4847 18.7808 19.5385C19.4526 19.5923 20.1026 19.6692 20.7308 19.7692Z" fill="#55A365"/>
</svg>
