<svg width="58" height="47" viewBox="0 0 58 47" fill="none" xmlns="http://www.w3.org/2000/svg">
<path d="M55.7444 13.2561C55.2443 12.0745 54.6609 10.9187 54.0106 9.82104C53.8092 9.48114 53.3707 9.36892 53.0305 9.57014C52.6904 9.77136 52.578 10.2095 52.7791 10.5494C53.3968 11.5924 53.9509 12.6903 54.4263 13.8133C55.8481 17.1716 56.5689 20.7353 56.5689 24.4052C56.5689 28.0751 55.8481 31.6385 54.4263 34.9971C53.9509 36.1201 53.3968 37.2181 52.7791 38.261C52.578 38.6009 52.6904 39.0391 53.0305 39.2403C53.145 39.3078 53.2705 39.34 53.3943 39.34C53.639 39.34 53.8772 39.2146 54.0106 38.989C54.6609 37.8914 55.2439 36.7355 55.7444 35.5539C57.241 32.0181 58 28.267 58 24.4049C58 20.5427 57.241 16.7913 55.7444 13.2558V13.2561Z" fill="#3F8372"/>
<path d="M52.0147 14.8312C51.5787 13.8008 51.07 12.7954 50.5027 11.8418C50.3006 11.5022 49.8617 11.3911 49.5223 11.5927C49.1828 11.7946 49.0712 12.2331 49.273 12.5723C49.807 13.4698 50.2863 14.4169 50.6969 15.3877C51.9067 18.2448 52.5197 21.2782 52.5197 24.4037C52.5197 27.5293 51.9063 30.5623 50.6969 33.4198C50.2863 34.3905 49.807 35.3376 49.273 36.2351C49.0709 36.5743 49.1825 37.0132 49.5223 37.2148C49.6371 37.283 49.763 37.3152 49.8871 37.3152C50.1311 37.3152 50.3689 37.1905 50.5027 36.9657C51.07 36.0124 51.5787 35.0067 52.0147 33.9766C53.2992 30.9418 53.9505 27.7212 53.9505 24.4037C53.9505 21.0862 53.2992 17.8652 52.0147 14.8308V14.8312Z" fill="#3F8372"/>
<path d="M4.25635 34.9958C2.83452 31.6372 2.11376 28.0734 2.11376 24.4035C2.11376 20.7336 2.83452 17.1699 4.25635 13.8113C4.73137 12.6887 5.2858 11.5903 5.90354 10.5474C6.10456 10.2075 5.99225 9.76933 5.65208 9.56811C5.31227 9.36688 4.87338 9.47947 4.672 9.81901C4.02171 10.917 3.43831 12.0728 2.93825 13.2541C1.44201 16.7903 0.682983 20.5414 0.682983 24.4039C0.682983 28.2664 1.44201 32.0171 2.93861 35.553C3.43866 36.7346 4.02206 37.8901 4.67235 38.9881C4.80577 39.2136 5.044 39.339 5.28866 39.339C5.41242 39.339 5.53797 39.3069 5.65244 39.2393C5.9926 39.0381 6.10492 38.5999 5.9039 38.26C5.28616 37.2171 4.73173 36.1188 4.25671 34.9961L4.25635 34.9958Z" fill="#3F8372"/>
<path d="M9.41006 12.5725C9.61215 12.2333 9.50055 11.7944 9.16074 11.5928C8.82129 11.3909 8.38204 11.5024 8.1803 11.8419C7.613 12.7955 7.104 13.8013 6.66833 14.831C5.38349 17.8654 4.73248 21.086 4.73248 24.4039C4.73248 27.7217 5.38385 30.942 6.66833 33.9768C7.10436 35.0068 7.613 36.0126 8.1803 36.9658C8.31408 37.1906 8.55195 37.3154 8.7959 37.3154C8.92037 37.3154 9.04628 37.2828 9.16074 37.2149C9.5002 37.013 9.6118 36.5744 9.41006 36.2353C8.87566 35.3374 8.39671 34.3903 7.98607 33.4199C6.77635 30.5624 6.16326 27.5291 6.16326 24.4039C6.16326 21.2787 6.77671 18.245 7.98643 15.3878C8.39707 14.4174 8.87602 13.4703 9.41042 12.5725H9.41006Z" fill="#3F8372"/>
<path d="M29.3415 5.29053C18.7938 5.29053 10.2123 13.8648 10.2123 24.4045C10.2123 34.9442 18.7938 43.5185 29.3415 43.5185C39.8892 43.5185 48.4707 34.9439 48.4707 24.4045C48.4707 13.8652 39.8892 5.29053 29.3415 5.29053ZM43.6593 25.1194H45.2085C45.1259 27.0108 44.7127 28.8446 43.978 30.5806C43.2708 32.2508 42.2933 33.7716 41.0671 35.1097L39.9715 34.015C39.6921 33.7358 39.2393 33.7358 38.9599 34.015C38.6805 34.2941 38.6805 34.7466 38.9599 35.0257L40.0552 36.1201C38.7163 37.3453 37.1947 38.3225 35.5228 39.0287C33.7851 39.7632 31.9498 40.1757 30.0569 40.2582V38.7103C30.0569 38.3153 29.7368 37.9955 29.3415 37.9955C28.9462 37.9955 28.6261 38.3153 28.6261 38.7103V40.2582C26.7332 40.1757 24.8979 39.7632 23.1605 39.0287C21.4887 38.3225 19.967 37.3457 18.6278 36.1201L19.7231 35.0257C20.0024 34.7466 20.0024 34.2941 19.7231 34.015C19.4437 33.7358 18.9909 33.7358 18.7115 34.015L17.6159 35.1097C16.3897 33.7716 15.4121 32.2511 14.705 30.5806C13.9703 28.8446 13.5571 27.0108 13.4745 25.1194H15.0237C15.4189 25.1194 15.7391 24.7991 15.7391 24.4045C15.7391 24.0099 15.4189 23.6897 15.0237 23.6897H13.4745C13.5571 21.7983 13.9703 19.964 14.705 18.2281C15.4121 16.5579 16.3897 15.0371 17.6159 13.699L18.7115 14.7937C18.8514 14.9335 19.0342 15.0032 19.2173 15.0032C19.4004 15.0032 19.5836 14.9335 19.7231 14.7937C20.0024 14.5146 20.0024 14.0621 19.7231 13.783L18.6278 12.6882C19.967 11.463 21.4887 10.4862 23.1605 9.77961C24.8979 9.04513 26.7332 8.63268 28.6261 8.55012V10.0981C28.6261 10.493 28.9462 10.8129 29.3415 10.8129C29.7368 10.8129 30.0569 10.493 30.0569 10.0981V8.55012C31.9498 8.63268 33.7851 9.04513 35.5228 9.77961C37.1947 10.4862 38.7167 11.463 40.0555 12.6882L38.9599 13.783C38.6805 14.0621 38.6805 14.5146 38.9599 14.7937C39.0998 14.9335 39.2825 15.0032 39.4657 15.0032C39.6488 15.0032 39.832 14.9335 39.9715 14.7937L41.0671 13.699C42.2933 15.0371 43.2708 16.5579 43.978 18.2281C44.7127 19.964 45.1259 21.7983 45.2085 23.6897H43.6593C43.264 23.6897 42.9439 24.0096 42.9439 24.4045C42.9439 24.7995 43.264 25.1194 43.6593 25.1194Z" fill="#3F8372"/>
<path d="M13.7435 11.0185C14.0812 10.6264 14.4346 10.2461 14.8034 9.87764C16.6913 7.99122 18.89 6.51011 21.3384 5.47505C22.1865 5.11692 23.0522 4.81741 23.9328 4.5783C24.4153 4.44642 24.9022 4.33312 25.3933 4.23769C24.092 1.86805 21.5838 0.366211 18.8507 0.366211C14.7379 0.366211 11.3917 3.70944 11.3917 7.81895C11.3917 9.39228 11.891 10.9227 12.8078 12.1883C13.1047 11.7876 13.4166 11.3977 13.7435 11.0185Z" fill="#3F8372"/>
<path d="M37.3446 5.47505C39.793 6.51011 41.9917 7.99122 43.8796 9.87764C44.2484 10.2461 44.6018 10.6264 44.9395 11.0185C45.2664 11.3977 45.5787 11.788 45.8752 12.1887C46.792 10.9231 47.2913 9.39228 47.2913 7.81895C47.2913 3.70944 43.9451 0.366211 39.8323 0.366211C37.0995 0.366211 34.591 1.86805 33.2897 4.23769C33.7808 4.33312 34.2677 4.44642 34.7502 4.57795C35.6308 4.81741 36.4965 5.11692 37.3446 5.47505Z" fill="#3F8372"/>
<path d="M17.9192 41.49C17.5057 41.2138 17.1018 40.9218 16.7084 40.6147L15.7258 43.4501C15.4986 44.1059 15.5405 44.8111 15.8438 45.4355C16.1471 46.0599 16.6755 46.5288 17.3322 46.7561C17.6108 46.8526 17.8988 46.9005 18.1856 46.9005C18.5734 46.9005 18.9597 46.8126 19.3188 46.6382C19.9441 46.3351 20.4134 45.8069 20.6405 45.151L21.2797 43.3075C20.8369 43.1195 20.4026 42.9161 19.9766 42.6985C19.2662 42.3353 18.5798 41.9325 17.9192 41.49Z" fill="#3F8372"/>
<path d="M41.9745 40.6147L40.7637 41.49C40.1031 41.9325 39.4167 42.3353 38.7063 42.6985C38.2803 42.9161 37.846 43.1195 37.4032 43.3075L38.0424 45.151C38.2695 45.8069 38.7392 46.3351 39.3641 46.6382C39.7232 46.8126 40.1095 46.9005 40.4976 46.9005C40.7841 46.9005 41.0721 46.8526 41.3507 46.7561C42.7057 46.2872 43.4264 44.804 42.9571 43.4501L41.9745 40.6147Z" fill="#3F8372"/>
<path d="M41.0781 23.6892H31.3831C31.166 23.0709 30.6753 22.5802 30.0565 22.3632V15.8716C30.0565 15.4766 29.7363 15.1567 29.3411 15.1567C28.9458 15.1567 28.6257 15.4766 28.6257 15.8716V22.3632C27.7829 22.6592 27.1774 23.4623 27.1774 24.404C27.1774 25.596 28.1482 26.566 29.3411 26.566C30.2836 26.566 31.0873 25.9606 31.3831 25.1189H41.0781C41.4734 25.1189 41.7935 24.7986 41.7935 24.404C41.7935 24.0095 41.4734 23.6892 41.0781 23.6892Z" fill="#3F8372"/>
</svg>
