<svg width="24" height="23" viewBox="0 0 24 23" fill="none" xmlns="http://www.w3.org/2000/svg">
<path d="M12 11.1111C10.35 11.1111 9 10.5926 7.95 9.55556C6.9 8.51852 6.375 7.18519 6.375 5.55556C6.375 3.92593 6.9 2.59259 7.95 1.55556C9 0.518519 10.35 0 12 0C13.65 0 15 0.518519 16.05 1.55556C17.1 2.59259 17.625 3.92593 17.625 5.55556C17.625 7.18519 17.1 8.51852 16.05 9.55556C15 10.5926 13.65 11.1111 12 11.1111ZM0 23V19.5185C0 18.5802 0.2375 17.7778 0.7125 17.1111C1.1875 16.4444 1.8 15.9383 2.55 15.5926C4.225 14.8519 5.83125 14.2963 7.36875 13.9259C8.90625 13.5556 10.45 13.3704 12 13.3704C13.55 13.3704 15.0875 13.5617 16.6125 13.9444C18.1375 14.3272 19.7375 14.8765 21.4125 15.5926C22.1875 15.9383 22.8125 16.4444 23.2875 17.1111C23.7625 17.7778 24 18.5802 24 19.5185V23H0Z" fill="#CACACA"/>
</svg>
